<svg viewBox="0 0 33 33" version="1.1" xmlns="http://www.w3.org/2000/svg" xmlns:xlink="http://www.w3.org/1999/xlink">
    <g id="Canvas" transform="translate(-31652 -5443)">
        <g id="Group">
            <g id="Ellipse 4">
                <mask id="mask0_outline_ins">
                    <use xlink:href="#path0_fill" fill="white" transform="translate(31652 5446)"/>
                </mask>
                <g mask="url(#mask0_outline_ins)">
                    <use xlink:href="#path1_stroke_2x" transform="translate(31652 5446)" fill="#A6A6A6"/>
                </g>
            </g>
            <g id="Ellipse 4">
                <mask id="mask1_outline_ins">
                    <use xlink:href="#path2_fill" fill="white" transform="translate(31666 5443)"/>
                </mask>
                <g mask="url(#mask1_outline_ins)">
                    <use xlink:href="#path3_stroke_2x" transform="translate(31666 5443)" fill="#A6A6A6"/>
                </g>
            </g>
        </g>
    </g>
    <defs>
        <path id="path0_fill" d="M 15 30C 23.2843 30 30 23.2843 30 15L 15 15L 15 0C 6.71573 0 0 6.71573 0 15C 0 23.2843 6.71573 30 15 30Z"/>
        <path id="path1_stroke_2x" d="M 30 15L 31 15L 31 14L 30 14L 30 15ZM 15 0L 16 0L 16 -1L 15 -1L 15 0ZM 15 15L 14 15L 14 16L 15 16L 15 15ZM 29 15C 29 22.732 22.732 29 15 29L 15 31C 23.8366 31 31 23.8366 31 15L 29 15ZM 15 29C 7.26801 29 1 22.732 1 15L -1 15C -1 23.8366 6.16344 31 15 31L 15 29ZM 1 15C 1 7.26801 7.26801 1 15 1L 15 -1C 6.16344 -1 -1 6.16344 -1 15L 1 15ZM 30 14L 15 14L 15 16L 30 16L 30 14ZM 16 15L 16 0L 14 0L 14 15L 16 15Z"/>
        <path id="path2_fill" d="M 19 19C 19 8.50659 10.4934 0 0 0L 0 19L 19 19Z"/>
        <path id="path3_stroke_2x" d="M 0 0L 0 -1L -1 -1L -1 0L 0 0ZM 19 19L 19 20L 20 20L 20 19L 19 19ZM 0 19L -1 19L -1 20L 0 20L 0 19ZM 0 1C 9.94112 1 18 9.05888 18 19L 20 19C 20 7.95431 11.0457 -1 0 -1L 0 1ZM 19 18L 0 18L 0 20L 19 20L 19 18ZM 1 19L 1 0L -1 0L -1 19L 1 19Z"/>
    </defs>
</svg>
