<svg viewBox="0 0 33 33" xmlns="http://www.w3.org/2000/svg" xmlns:xlink="http://www.w3.org/1999/xlink"><g transform="translate(-31652 -5443)"><mask id="b"><use xlink:href="#a" fill="#fff" transform="translate(31652 5446)"/></mask><g mask="url(#b)"><use xlink:href="#c" transform="translate(31652 5446)" fill="#A6A6A6"/></g></g><g transform="translate(-31652 -5443)"><mask id="e"><use xlink:href="#d" fill="#fff" transform="translate(31666 5443)"/></mask><g mask="url(#e)"><use xlink:href="#f" transform="translate(31666 5443)" fill="#A6A6A6"/></g></g><defs><path id="a" d="M15 30c8.284 0 15-6.716 15-15H15V0C6.716 0 0 6.716 0 15c0 8.284 6.716 15 15 15z"/><path id="c" d="M30 15h1v-1h-1v1zM15 0h1v-1h-1v1zm0 15h-1v1h1v-1zm14 0c0 7.732-6.268 14-14 14v2c8.837 0 16-7.163 16-16h-2zM15 29C7.268 29 1 22.732 1 15h-2c0 8.837 7.163 16 16 16v-2zM1 15C1 7.268 7.268 1 15 1v-2C6.163-1-1 6.163-1 15h2zm29-1H15v2h15v-2zm-14 1V0h-2v15h2z"/><path id="d" d="M19 19C19 8.507 10.493 0 0 0v19h19z"/><path id="f" d="M0 0v-1h-1v1h1zm19 19v1h1v-1h-1zM0 19h-1v1h1v-1zM0 1c9.941 0 18 8.059 18 18h2C20 7.954 11.046-1 0-1v2zm19 17H0v2h19v-2zM1 19V0h-2v19h2z"/></defs></svg>