<svg width="514" height="514" xmlns="http://www.w3.org/2000/svg" xmlns:xlink="http://www.w3.org/1999/xlink"><g opacity=".5" fill="#FFF"><use xlink:href="#path0_fill"/><use xlink:href="#path0_fill" transform="translate(32)"/><use xlink:href="#path0_fill" transform="translate(64)"/><use xlink:href="#path0_fill" transform="translate(96)"/><use xlink:href="#path0_fill" transform="translate(128)"/><use xlink:href="#path0_fill" transform="translate(160)"/><use xlink:href="#path0_fill" transform="translate(192)"/><use xlink:href="#path0_fill" transform="translate(224)"/><use xlink:href="#path0_fill" transform="translate(256)"/><use xlink:href="#path0_fill" transform="translate(288)"/><use xlink:href="#path0_fill" transform="translate(320)"/><use xlink:href="#path0_fill" transform="translate(352)"/><use xlink:href="#path0_fill" transform="translate(384)"/><use xlink:href="#path0_fill" transform="translate(416)"/><use xlink:href="#path0_fill" transform="translate(448)"/><use xlink:href="#path0_fill" transform="translate(480)"/><use xlink:href="#path0_fill" transform="translate(512)"/><use xlink:href="#path0_fill" transform="translate(0 32)"/><use xlink:href="#path0_fill" transform="translate(32 32)"/><use xlink:href="#path0_fill" transform="translate(64 32)"/><use xlink:href="#path0_fill" transform="translate(96 32)"/><use xlink:href="#path0_fill" transform="translate(128 32)"/><use xlink:href="#path0_fill" transform="translate(160 32)"/><use xlink:href="#path0_fill" transform="translate(192 32)"/><use xlink:href="#path0_fill" transform="translate(224 32)"/><use xlink:href="#path0_fill" transform="translate(256 32)"/><use xlink:href="#path0_fill" transform="translate(288 32)"/><use xlink:href="#path0_fill" transform="translate(320 32)"/><use xlink:href="#path0_fill" transform="translate(352 32)"/><use xlink:href="#path0_fill" transform="translate(384 32)"/><use xlink:href="#path0_fill" transform="translate(416 32)"/><use xlink:href="#path0_fill" transform="translate(448 32)"/><use xlink:href="#path0_fill" transform="translate(480 32)"/><use xlink:href="#path0_fill" transform="translate(512 32)"/><use xlink:href="#path0_fill" transform="translate(0 64)"/><use xlink:href="#path0_fill" transform="translate(32 64)"/><use xlink:href="#path0_fill" transform="translate(64 64)"/><use xlink:href="#path0_fill" transform="translate(96 64)"/><use xlink:href="#path0_fill" transform="translate(128 64)"/><use xlink:href="#path0_fill" transform="translate(160 64)"/><use xlink:href="#path0_fill" transform="translate(192 64)"/><use xlink:href="#path0_fill" transform="translate(224 64)"/><use xlink:href="#path0_fill" transform="translate(256 64)"/><use xlink:href="#path0_fill" transform="translate(288 64)"/><use xlink:href="#path0_fill" transform="translate(320 64)"/><use xlink:href="#path0_fill" transform="translate(352 64)"/><use xlink:href="#path0_fill" transform="translate(384 64)"/><use xlink:href="#path0_fill" transform="translate(416 64)"/><use xlink:href="#path0_fill" transform="translate(448 64)"/><use xlink:href="#path0_fill" transform="translate(480 64)"/><use xlink:href="#path0_fill" transform="translate(512 64)"/><use xlink:href="#path0_fill" transform="translate(0 96)"/><use xlink:href="#path0_fill" transform="translate(32 96)"/><use xlink:href="#path0_fill" transform="translate(64 96)"/><use xlink:href="#path0_fill" transform="translate(96 96)"/><use xlink:href="#path0_fill" transform="translate(128 96)"/><use xlink:href="#path0_fill" transform="translate(160 96)"/><use xlink:href="#path0_fill" transform="translate(192 96)"/><use xlink:href="#path0_fill" transform="translate(224 96)"/><use xlink:href="#path0_fill" transform="translate(256 96)"/><use xlink:href="#path0_fill" transform="translate(288 96)"/><use xlink:href="#path0_fill" transform="translate(320 96)"/><use xlink:href="#path0_fill" transform="translate(352 96)"/><use xlink:href="#path0_fill" transform="translate(384 96)"/><use xlink:href="#path0_fill" transform="translate(416 96)"/><use xlink:href="#path0_fill" transform="translate(448 96)"/><use xlink:href="#path0_fill" transform="translate(480 96)"/><use xlink:href="#path0_fill" transform="translate(512 96)"/><use xlink:href="#path0_fill" transform="translate(0 128)"/><use xlink:href="#path0_fill" transform="translate(32 128)"/><use xlink:href="#path0_fill" transform="translate(64 128)"/><use xlink:href="#path0_fill" transform="translate(96 128)"/><use xlink:href="#path0_fill" transform="translate(128 128)"/><use xlink:href="#path0_fill" transform="translate(160 128)"/><use xlink:href="#path0_fill" transform="translate(192 128)"/><use xlink:href="#path0_fill" transform="translate(224 128)"/><use xlink:href="#path0_fill" transform="translate(256 128)"/><use xlink:href="#path0_fill" transform="translate(288 128)"/><use xlink:href="#path0_fill" transform="translate(320 128)"/><use xlink:href="#path0_fill" transform="translate(352 128)"/><use xlink:href="#path0_fill" transform="translate(384 128)"/><use xlink:href="#path0_fill" transform="translate(416 128)"/><use xlink:href="#path0_fill" transform="translate(448 128)"/><use xlink:href="#path0_fill" transform="translate(480 128)"/><use xlink:href="#path0_fill" transform="translate(512 128)"/><use xlink:href="#path0_fill" transform="translate(0 160)"/><use xlink:href="#path0_fill" transform="translate(32 160)"/><use xlink:href="#path0_fill" transform="translate(64 160)"/><use xlink:href="#path0_fill" transform="translate(96 160)"/><use xlink:href="#path0_fill" transform="translate(128 160)"/><use xlink:href="#path0_fill" transform="translate(160 160)"/><use xlink:href="#path0_fill" transform="translate(192 160)"/><use xlink:href="#path0_fill" transform="translate(224 160)"/><use xlink:href="#path0_fill" transform="translate(256 160)"/><use xlink:href="#path0_fill" transform="translate(288 160)"/><use xlink:href="#path0_fill" transform="translate(320 160)"/><use xlink:href="#path0_fill" transform="translate(352 160)"/><use xlink:href="#path0_fill" transform="translate(384 160)"/><use xlink:href="#path0_fill" transform="translate(416 160)"/><use xlink:href="#path0_fill" transform="translate(448 160)"/><use xlink:href="#path0_fill" transform="translate(480 160)"/><use xlink:href="#path0_fill" transform="translate(512 160)"/><use xlink:href="#path0_fill" transform="translate(0 192)"/><use xlink:href="#path0_fill" transform="translate(32 192)"/><use xlink:href="#path0_fill" transform="translate(64 192)"/><use xlink:href="#path0_fill" transform="translate(96 192)"/><use xlink:href="#path0_fill" transform="translate(128 192)"/><use xlink:href="#path0_fill" transform="translate(160 192)"/><use xlink:href="#path0_fill" transform="translate(192 192)"/><use xlink:href="#path0_fill" transform="translate(224 192)"/><use xlink:href="#path0_fill" transform="translate(256 192)"/><use xlink:href="#path0_fill" transform="translate(288 192)"/><use xlink:href="#path0_fill" transform="translate(320 192)"/><use xlink:href="#path0_fill" transform="translate(352 192)"/><use xlink:href="#path0_fill" transform="translate(384 192)"/><use xlink:href="#path0_fill" transform="translate(416 192)"/><use xlink:href="#path0_fill" transform="translate(448 192)"/><use xlink:href="#path0_fill" transform="translate(480 192)"/><use xlink:href="#path0_fill" transform="translate(512 192)"/><use xlink:href="#path0_fill" transform="translate(0 224)"/><use xlink:href="#path0_fill" transform="translate(32 224)"/><use xlink:href="#path0_fill" transform="translate(64 224)"/><use xlink:href="#path0_fill" transform="translate(96 224)"/><use xlink:href="#path0_fill" transform="translate(128 224)"/><use xlink:href="#path0_fill" transform="translate(160 224)"/><use xlink:href="#path0_fill" transform="translate(192 224)"/><use xlink:href="#path0_fill" transform="translate(224 224)"/><use xlink:href="#path0_fill" transform="translate(256 224)"/><use xlink:href="#path0_fill" transform="translate(288 224)"/><use xlink:href="#path0_fill" transform="translate(320 224)"/><use xlink:href="#path0_fill" transform="translate(352 224)"/><use xlink:href="#path0_fill" transform="translate(384 224)"/><use xlink:href="#path0_fill" transform="translate(416 224)"/><use xlink:href="#path0_fill" transform="translate(448 224)"/><use xlink:href="#path0_fill" transform="translate(480 224)"/><use xlink:href="#path0_fill" transform="translate(512 224)"/><use xlink:href="#path0_fill" transform="translate(0 256)"/><use xlink:href="#path0_fill" transform="translate(32 256)"/><use xlink:href="#path0_fill" transform="translate(64 256)"/><use xlink:href="#path0_fill" transform="translate(96 256)"/><use xlink:href="#path0_fill" transform="translate(128 256)"/><use xlink:href="#path0_fill" transform="translate(160 256)"/><use xlink:href="#path0_fill" transform="translate(192 256)"/><use xlink:href="#path0_fill" transform="translate(224 256)"/><use xlink:href="#path0_fill" transform="translate(256 256)"/><use xlink:href="#path0_fill" transform="translate(288 256)"/><use xlink:href="#path0_fill" transform="translate(320 256)"/><use xlink:href="#path0_fill" transform="translate(352 256)"/><use xlink:href="#path0_fill" transform="translate(384 256)"/><use xlink:href="#path0_fill" transform="translate(416 256)"/><use xlink:href="#path0_fill" transform="translate(448 256)"/><use xlink:href="#path0_fill" transform="translate(480 256)"/><use xlink:href="#path0_fill" transform="translate(512 256)"/><use xlink:href="#path0_fill" transform="translate(0 288)"/><use xlink:href="#path0_fill" transform="translate(32 288)"/><use xlink:href="#path0_fill" transform="translate(64 288)"/><use xlink:href="#path0_fill" transform="translate(96 288)"/><use xlink:href="#path0_fill" transform="translate(128 288)"/><use xlink:href="#path0_fill" transform="translate(160 288)"/><use xlink:href="#path0_fill" transform="translate(192 288)"/><use xlink:href="#path0_fill" transform="translate(224 288)"/><use xlink:href="#path0_fill" transform="translate(256 288)"/><use xlink:href="#path0_fill" transform="translate(288 288)"/><use xlink:href="#path0_fill" transform="translate(320 288)"/><use xlink:href="#path0_fill" transform="translate(352 288)"/><use xlink:href="#path0_fill" transform="translate(384 288)"/><use xlink:href="#path0_fill" transform="translate(416 288)"/><use xlink:href="#path0_fill" transform="translate(448 288)"/><use xlink:href="#path0_fill" transform="translate(480 288)"/><use xlink:href="#path0_fill" transform="translate(512 288)"/><use xlink:href="#path0_fill" transform="translate(0 320)"/><use xlink:href="#path0_fill" transform="translate(32 320)"/><use xlink:href="#path0_fill" transform="translate(64 320)"/><use xlink:href="#path0_fill" transform="translate(96 320)"/><use xlink:href="#path0_fill" transform="translate(128 320)"/><use xlink:href="#path0_fill" transform="translate(160 320)"/><use xlink:href="#path0_fill" transform="translate(192 320)"/><use xlink:href="#path0_fill" transform="translate(224 320)"/><use xlink:href="#path0_fill" transform="translate(256 320)"/><use xlink:href="#path0_fill" transform="translate(288 320)"/><use xlink:href="#path0_fill" transform="translate(320 320)"/><use xlink:href="#path0_fill" transform="translate(352 320)"/><use xlink:href="#path0_fill" transform="translate(384 320)"/><use xlink:href="#path0_fill" transform="translate(416 320)"/><use xlink:href="#path0_fill" transform="translate(448 320)"/><use xlink:href="#path0_fill" transform="translate(480 320)"/><use xlink:href="#path0_fill" transform="translate(512 320)"/><use xlink:href="#path0_fill" transform="translate(0 352)"/><use xlink:href="#path0_fill" transform="translate(32 352)"/><use xlink:href="#path0_fill" transform="translate(64 352)"/><use xlink:href="#path0_fill" transform="translate(96 352)"/><use xlink:href="#path0_fill" transform="translate(128 352)"/><use xlink:href="#path0_fill" transform="translate(160 352)"/><use xlink:href="#path0_fill" transform="translate(192 352)"/><use xlink:href="#path0_fill" transform="translate(224 352)"/><use xlink:href="#path0_fill" transform="translate(256 352)"/><use xlink:href="#path0_fill" transform="translate(288 352)"/><use xlink:href="#path0_fill" transform="translate(320 352)"/><use xlink:href="#path0_fill" transform="translate(352 352)"/><use xlink:href="#path0_fill" transform="translate(384 352)"/><use xlink:href="#path0_fill" transform="translate(416 352)"/><use xlink:href="#path0_fill" transform="translate(448 352)"/><use xlink:href="#path0_fill" transform="translate(480 352)"/><use xlink:href="#path0_fill" transform="translate(512 352)"/><use xlink:href="#path0_fill" transform="translate(0 384)"/><use xlink:href="#path0_fill" transform="translate(32 384)"/><use xlink:href="#path0_fill" transform="translate(64 384)"/><use xlink:href="#path0_fill" transform="translate(96 384)"/><use xlink:href="#path0_fill" transform="translate(128 384)"/><use xlink:href="#path0_fill" transform="translate(160 384)"/><use xlink:href="#path0_fill" transform="translate(192 384)"/><use xlink:href="#path0_fill" transform="translate(224 384)"/><use xlink:href="#path0_fill" transform="translate(256 384)"/><use xlink:href="#path0_fill" transform="translate(288 384)"/><use xlink:href="#path0_fill" transform="translate(320 384)"/><use xlink:href="#path0_fill" transform="translate(352 384)"/><use xlink:href="#path0_fill" transform="translate(384 384)"/><use xlink:href="#path0_fill" transform="translate(416 384)"/><use xlink:href="#path0_fill" transform="translate(448 384)"/><use xlink:href="#path0_fill" transform="translate(480 384)"/><use xlink:href="#path0_fill" transform="translate(512 384)"/><use xlink:href="#path0_fill" transform="translate(0 416)"/><use xlink:href="#path0_fill" transform="translate(32 416)"/><use xlink:href="#path0_fill" transform="translate(64 416)"/><use xlink:href="#path0_fill" transform="translate(96 416)"/><use xlink:href="#path0_fill" transform="translate(128 416)"/><use xlink:href="#path0_fill" transform="translate(160 416)"/><use xlink:href="#path0_fill" transform="translate(192 416)"/><use xlink:href="#path0_fill" transform="translate(224 416)"/><use xlink:href="#path0_fill" transform="translate(256 416)"/><use xlink:href="#path0_fill" transform="translate(288 416)"/><use xlink:href="#path0_fill" transform="translate(320 416)"/><use xlink:href="#path0_fill" transform="translate(352 416)"/><use xlink:href="#path0_fill" transform="translate(384 416)"/><use xlink:href="#path0_fill" transform="translate(416 416)"/><use xlink:href="#path0_fill" transform="translate(448 416)"/><use xlink:href="#path0_fill" transform="translate(480 416)"/><use xlink:href="#path0_fill" transform="translate(512 416)"/><use xlink:href="#path0_fill" transform="translate(0 448)"/><use xlink:href="#path0_fill" transform="translate(32 448)"/><use xlink:href="#path0_fill" transform="translate(64 448)"/><use xlink:href="#path0_fill" transform="translate(96 448)"/><use xlink:href="#path0_fill" transform="translate(128 448)"/><use xlink:href="#path0_fill" transform="translate(160 448)"/><use xlink:href="#path0_fill" transform="translate(192 448)"/><use xlink:href="#path0_fill" transform="translate(224 448)"/><use xlink:href="#path0_fill" transform="translate(256 448)"/><use xlink:href="#path0_fill" transform="translate(288 448)"/><use xlink:href="#path0_fill" transform="translate(320 448)"/><use xlink:href="#path0_fill" transform="translate(352 448)"/><use xlink:href="#path0_fill" transform="translate(384 448)"/><use xlink:href="#path0_fill" transform="translate(416 448)"/><use xlink:href="#path0_fill" transform="translate(448 448)"/><use xlink:href="#path0_fill" transform="translate(480 448)"/><use xlink:href="#path0_fill" transform="translate(512 448)"/><use xlink:href="#path0_fill" transform="translate(0 480)"/><use xlink:href="#path0_fill" transform="translate(32 480)"/><use xlink:href="#path0_fill" transform="translate(64 480)"/><use xlink:href="#path0_fill" transform="translate(96 480)"/><use xlink:href="#path0_fill" transform="translate(128 480)"/><use xlink:href="#path0_fill" transform="translate(160 480)"/><use xlink:href="#path0_fill" transform="translate(192 480)"/><use xlink:href="#path0_fill" transform="translate(224 480)"/><use xlink:href="#path0_fill" transform="translate(256 480)"/><use xlink:href="#path0_fill" transform="translate(288 480)"/><use xlink:href="#path0_fill" transform="translate(320 480)"/><use xlink:href="#path0_fill" transform="translate(352 480)"/><use xlink:href="#path0_fill" transform="translate(384 480)"/><use xlink:href="#path0_fill" transform="translate(416 480)"/><use xlink:href="#path0_fill" transform="translate(448 480)"/><use xlink:href="#path0_fill" transform="translate(480 480)"/><use xlink:href="#path0_fill" transform="translate(512 480)"/><use xlink:href="#path0_fill" transform="translate(0 512)"/><use xlink:href="#path0_fill" transform="translate(32 512)"/><use xlink:href="#path0_fill" transform="translate(64 512)"/><use xlink:href="#path0_fill" transform="translate(96 512)"/><use xlink:href="#path0_fill" transform="translate(128 512)"/><use xlink:href="#path0_fill" transform="translate(160 512)"/><use xlink:href="#path0_fill" transform="translate(192 512)"/><use xlink:href="#path0_fill" transform="translate(224 512)"/><use xlink:href="#path0_fill" transform="translate(256 512)"/><use xlink:href="#path0_fill" transform="translate(288 512)"/><use xlink:href="#path0_fill" transform="translate(320 512)"/><use xlink:href="#path0_fill" transform="translate(352 512)"/><use xlink:href="#path0_fill" transform="translate(384 512)"/><use xlink:href="#path0_fill" transform="translate(416 512)"/><use xlink:href="#path0_fill" transform="translate(448 512)"/><use xlink:href="#path0_fill" transform="translate(480 512)"/><use xlink:href="#path0_fill" transform="translate(512 512)"/></g><defs><path id="path0_fill" d="M2 1a1 1 0 1 1-2 0 1 1 0 0 1 2 0z"/></defs></svg>