<svg width="182" height="33" viewBox="0 0 182 33" xmlns="http://www.w3.org/2000/svg" xmlns:xlink="http://www.w3.org/1999/xlink"><g transform="translate(-26127 237)"><use xlink:href="#a" transform="translate(26127 -237)" fill="#FFF"/><path id="a" fill-rule="evenodd" d="M16.482 0C7.382 0 0 7.362 0 16.5 0 25.639 7.382 33 16.482 33s16.482-7.361 16.482-16.5C32.9 7.362 25.518 0 16.482 0zm0 28.939c-6.873 0-12.473-5.585-12.473-12.439S9.61 4.062 16.482 4.062c6.873 0 12.409 5.584 12.409 12.438 0 6.854-5.6 12.439-12.41 12.439zm2.736-14.216c-.827-.254-1.782-.825-2.736-1.396a9.316 9.316 0 0 1-.827-.571c-.319-.19-.637-.444-.891-.635-1.146-.888-.891-1.904.19-2.602 1.146-.761 2.546-1.332 4.519-2.03.636-.19.89-.508.763-.762 0 0 0-.064-.063-.064 0-.063-.064-.063-.127-.126-.382-.381-1.21-.699-2.61-.762-.572-.063-1.845 0-3.5.508-3.118.888-6.109 3.236-6.172 4.125-.064 1.269 3.181 3.3 5.663 4.632.128.572.128 1.27.128 1.968v.19c0 1.015-.128 2.094-.255 2.792-.19 1.46-1.21 1.714-2.355 1.08-1.209-.635-2.354-1.587-4.009-2.983-.509-.445-.89-.572-1.081-.254 0 .063 0 .063-.064.127-.127.507-.064 1.396.636 2.665.255.508.891 1.587 2.1 2.792 2.228 2.285 5.791 3.808 6.619 3.364 1.145-.508 1.336-4.38 1.336-7.235.064-.063.127-.063.19-.127l.064-.063.064-.064c.954-.634 2.354-1.332 3.436-1.777 0 0 .064 0 .064-.063.064 0 .064 0 .127-.064.064 0 .128-.063.191-.063h.064c.064 0 .127-.063.19-.063 1.337-.508 2.1.253 2.1 1.523 0 1.396-.19 2.855-.636 4.95-.127.698-.063 1.079.319 1.079h.127c.509-.128 1.209-.635 2.036-1.84.318-.445.955-1.587 1.4-3.238.891-3.11.51-6.917-.254-7.425-.955-.57-4.328 1.08-6.746 2.412zm27.873 6.664c0 1.523 0 1.84-2.673 2.728l1.273 2.856c5.282-1.142 5.282-2.538 5.282-5.838V6.79H47.09v14.597zm12.154-1.143c-1.463 0-2.227-.888-2.418-2.729h7.891s.191-.698.191-1.713c0-3.046-1.909-5.33-5.79-5.33-3.819 0-6.11 2.347-6.11 6.282 0 4.315 2.61 6.22 5.855 6.22 2.8 0 5.218-1.334 6.109-1.841l-1.337-2.348c-1.463.825-3.118 1.46-4.39 1.46zm-.063-7.044c1.4 0 2.1.825 2.1 2.412H56.89c.19-1.587.955-2.412 2.29-2.412zm13.3 6.537c-.446 0-1.018-.064-1.018-1.08v-5.14h3.245V10.79h-3.245V7.3l-3.691.443v3.047h-1.655v2.728h1.655v5.14c0 2.983 1.209 4.38 3.69 4.38 1.719 0 3.246-.635 4.073-1.016l-1.272-2.792c-.319.127-1.273.508-1.782.508zm2.736-9.647h4.646v12.693h3.882V10.09h4.581v-3.3H75.218v3.3zm22.973.445c-1.846 0-3.437.888-4.518 1.586V6.092h-3.755v16.69h3.755V14.85c.7-.635 1.909-1.396 3.054-1.396 1.146 0 1.4.761 1.4 1.777v7.552h3.755v-8.44c-.064-2.349-1.082-3.808-3.691-3.808zm11.9 0c-4.136 0-6.364 2.284-6.364 6.219 0 3.998 2.291 6.282 6.364 6.282 4.136 0 6.364-2.284 6.364-6.219 0-3.998-2.291-6.282-6.364-6.282zm0 9.646c-1.782 0-2.546-1.27-2.546-3.364s.764-3.363 2.546-3.363c1.782 0 2.609 1.27 2.609 3.363 0 2.095-.827 3.364-2.609 3.364zm16.482-1.46c-.764.698-2.037 1.396-3.055 1.396-1.145 0-1.4-.761-1.4-1.777v-7.55h-3.754v8.44c0 2.348 1.081 3.808 3.627 3.808 1.845 0 3.436-.825 4.582-1.587v1.333h3.754V10.788h-3.754v7.933zm14.318-6.663c-1.018-.825-2.227-1.523-3.946-1.523-2.8 0-4.709 2.094-4.709 6.282 0 4.125 1.909 6.22 4.709 6.22 1.719 0 2.928-.635 3.946-1.46v1.27c0 1.332-.573 1.84-2.418 1.84-1.209 0-3.437-.508-4.964-.952l-.764 2.982c2.037.572 4.582.952 6.491.952 3.628 0 5.409-1.65 5.409-5.077V10.79h-3.754v1.269zm0 6.536c-.891.952-1.846 1.396-2.736 1.396-1.4 0-2.1-1.142-2.1-3.236 0-2.094.7-3.237 2.1-3.237.954 0 1.909.444 2.736 1.397v3.68zm14.573-8.06c-1.846 0-3.437.89-4.519 1.587V6.092h-3.754v16.69h3.754V14.85c.7-.635 1.91-1.396 3.055-1.396 1.145 0 1.4.761 1.4 1.777v7.552h3.755v-8.44c-.064-2.349-1.082-3.808-3.691-3.808zm11.645 9.202c-.445 0-1.018-.063-1.018-1.078v-5.14h3.245v-2.73h-3.245v-3.49l-3.691.444v3.047h-1.655v2.728h1.655v5.14c0 2.983 1.209 4.38 3.691 4.38 1.718 0 3.245-.635 4.073-1.016l-1.273-2.792c-.318.127-1.209.508-1.782.508zm10.627-4.315c-1.527-.38-3.054-.571-3.054-1.332 0-.381.445-.699 1.336-.699 1.146 0 2.927.508 4.009.952l1.464-2.475c-1.273-.57-3.627-1.332-5.727-1.332-3.119 0-4.837 1.586-4.837 3.68 0 2.412 2.164 3.364 4.137 3.872 1.336.317 3.181.634 3.181 1.396 0 .38-.445.761-1.336.761-1.273 0-3.564-.761-4.773-1.332l-1.463 2.602c1.336.761 3.945 1.586 6.363 1.586 3.182 0 4.964-1.46 4.964-3.68 0-2.54-2.227-3.491-4.264-3.999z"/></g></svg>