<?xml version="1.0" encoding="utf-8"?>
<!-- Generator: Adobe Illustrator 16.0.0, SVG Export Plug-In . SVG Version: 6.00 Build 0)  -->
<!DOCTYPE svg PUBLIC "-//W3C//DTD SVG 1.1//EN" "http://www.w3.org/Graphics/SVG/1.1/DTD/svg11.dtd">
<svg version="1.1" id="Слой_1" xmlns="http://www.w3.org/2000/svg" xmlns:xlink="http://www.w3.org/1999/xlink" x="0px" y="0px"
	 width="182px" height="33px" viewBox="0 0 182 33" enable-background="new 0 0 182 33" xml:space="preserve">
<g transform="translate(-26127 237)">
	<path id="a" fill="#FFFFFF" d="M26143.482-237c-9.1,0-16.482,7.362-16.482,16.5c0,9.139,7.383,16.5,16.482,16.5
		s16.482-7.361,16.482-16.5C26159.9-229.638,26152.52-237,26143.482-237z M26143.482-208.061c-6.873,0-12.473-5.586-12.473-12.439
		c0-6.854,5.6-12.438,12.473-12.438s12.408,5.584,12.408,12.438c0,6.854-5.6,12.439-12.41,12.439H26143.482z M26146.219-222.277
		c-0.828-0.254-1.781-0.825-2.736-1.396c-0.285-0.175-0.561-0.366-0.826-0.571c-0.32-0.19-0.637-0.444-0.891-0.635
		c-1.146-0.888-0.893-1.904,0.189-2.602c1.146-0.761,2.545-1.332,4.518-2.03c0.637-0.19,0.891-0.508,0.764-0.762
		c0,0,0-0.064-0.063-0.064c0-0.063-0.064-0.063-0.127-0.126c-0.383-0.381-1.211-0.699-2.609-0.762c-0.574-0.063-1.846,0-3.5,0.508
		c-3.119,0.888-6.109,3.236-6.172,4.125c-0.064,1.269,3.18,3.3,5.662,4.632c0.127,0.572,0.127,1.27,0.127,1.968v0.19
		c0,1.015-0.127,2.094-0.254,2.792c-0.191,1.46-1.211,1.714-2.355,1.08c-1.209-0.635-2.354-1.588-4.008-2.983
		c-0.51-0.444-0.891-0.571-1.082-0.254c0,0.063,0,0.063-0.064,0.127c-0.127,0.507-0.064,1.396,0.637,2.665
		c0.256,0.508,0.891,1.587,2.1,2.792c2.229,2.285,5.791,3.808,6.619,3.364c1.145-0.508,1.336-4.381,1.336-7.235
		c0.064-0.063,0.127-0.063,0.189-0.127l0.064-0.063l0.064-0.063c0.953-0.634,2.354-1.332,3.436-1.776c0,0,0.064,0,0.064-0.063
		c0.063,0,0.063,0,0.127-0.063c0.064,0,0.127-0.063,0.191-0.063h0.064c0.063,0,0.125-0.063,0.189-0.063
		c1.336-0.508,2.1,0.254,2.1,1.523c0,1.396-0.189,2.855-0.637,4.949c-0.127,0.699-0.063,1.08,0.32,1.08h0.127
		c0.508-0.129,1.209-0.635,2.035-1.84c0.318-0.445,0.955-1.588,1.4-3.238c0.891-3.11,0.51-6.917-0.254-7.425
		C26152.01-225.259,26148.637-223.609,26146.219-222.277z M26174.092-215.613c0,1.523,0,1.84-2.674,2.729l1.273,2.855
		c5.281-1.142,5.281-2.537,5.281-5.838v-14.343h-3.883v14.597H26174.092z M26186.246-216.756c-1.463,0-2.227-0.889-2.418-2.729
		h7.891c0,0,0.191-0.699,0.191-1.714c0-3.046-1.91-5.33-5.791-5.33c-3.818,0-6.109,2.347-6.109,6.282
		c0,4.314,2.609,6.221,5.854,6.221c2.801,0,5.219-1.334,6.109-1.842l-1.336-2.348
		C26189.174-217.391,26187.52-216.755,26186.246-216.756L26186.246-216.756z M26186.184-223.8c1.398,0,2.1,0.825,2.1,2.412h-4.393
		c0.189-1.587,0.955-2.412,2.289-2.412H26186.184z M26199.482-217.264c-0.445,0-1.018-0.063-1.018-1.079v-5.14h3.244v-2.727h-3.244
		v-3.49l-3.691,0.443v3.047h-1.654v2.728h1.654v5.14c0,2.982,1.209,4.38,3.689,4.38c1.721,0,3.246-0.636,4.074-1.017l-1.271-2.791
		c-0.32,0.127-1.273,0.508-1.783,0.508V-217.264z M26202.219-226.91h4.645v12.693h3.883v-12.693h4.582v-3.3h-13.109V-226.91z
		 M26225.191-226.465c-1.846,0-3.438,0.888-4.518,1.586v-6.029h-3.756v16.69h3.756v-7.932c0.699-0.635,1.908-1.396,3.053-1.396
		c1.146,0,1.4,0.761,1.4,1.777v7.552h3.756v-8.44C26228.818-225.006,26227.801-226.465,26225.191-226.465z M26237.092-226.465
		c-4.137,0-6.365,2.284-6.365,6.219c0,3.998,2.293,6.282,6.365,6.282c4.135,0,6.363-2.284,6.363-6.219
		C26243.455-224.181,26241.164-226.465,26237.092-226.465z M26237.092-216.818c-1.783,0-2.547-1.271-2.547-3.365
		c0-2.094,0.764-3.363,2.547-3.363c1.781,0,2.609,1.27,2.609,3.363C26239.701-218.088,26238.873-216.818,26237.092-216.818z
		 M26253.574-218.279c-0.766,0.698-2.037,1.396-3.055,1.396c-1.146,0-1.4-0.762-1.4-1.777v-7.55h-3.756v8.44
		c0,2.348,1.082,3.808,3.629,3.808c1.844,0,3.436-0.825,4.582-1.587v1.333h3.754v-11.996h-3.754V-218.279z M26267.891-224.942
		c-1.018-0.825-2.227-1.523-3.945-1.523c-2.801,0-4.709,2.094-4.709,6.282c0,4.125,1.908,6.22,4.709,6.22
		c1.719,0,2.928-0.635,3.945-1.46v1.271c0,1.332-0.572,1.84-2.418,1.84c-1.207,0-3.436-0.508-4.963-0.953l-0.764,2.982
		c2.037,0.572,4.582,0.952,6.49,0.952c3.627,0,5.408-1.649,5.408-5.077v-11.802h-3.754V-224.942L26267.891-224.942z
		 M26267.891-218.406c-0.891,0.952-1.846,1.396-2.734,1.396c-1.4,0-2.102-1.143-2.102-3.236s0.701-3.237,2.102-3.237
		c0.953,0,1.908,0.444,2.734,1.397V-218.406L26267.891-218.406z M26282.465-226.466c-1.846,0-3.438,0.89-4.52,1.587v-6.029h-3.754
		v16.69h3.754v-7.932c0.699-0.635,1.91-1.396,3.055-1.396s1.4,0.761,1.4,1.777v7.552h3.756v-8.44
		C26286.092-225.006,26285.074-226.465,26282.465-226.466L26282.465-226.466z M26294.109-217.264c-0.445,0-1.018-0.063-1.018-1.078
		v-5.14h3.244v-2.73h-3.244v-3.49l-3.691,0.444v3.047h-1.654v2.728h1.654v5.14c0,2.983,1.209,4.38,3.691,4.38
		c1.717,0,3.244-0.635,4.072-1.016l-1.273-2.793C26295.574-217.645,26294.684-217.264,26294.109-217.264L26294.109-217.264z
		 M26304.736-221.579c-1.527-0.38-3.053-0.571-3.053-1.332c0-0.381,0.443-0.699,1.336-0.699c1.145,0,2.926,0.508,4.008,0.952
		l1.465-2.475c-1.273-0.57-3.627-1.332-5.727-1.332c-3.121,0-4.838,1.586-4.838,3.68c0,2.412,2.164,3.364,4.137,3.872
		c1.336,0.317,3.182,0.634,3.182,1.396c0,0.381-0.445,0.762-1.336,0.762c-1.273,0-3.564-0.762-4.773-1.332l-1.463,2.602
		c1.336,0.762,3.945,1.586,6.363,1.586c3.182,0,4.963-1.459,4.963-3.68C26309-220.12,26306.773-221.071,26304.736-221.579
		L26304.736-221.579z"/>
	<path id="a_1_" d="M16.482,0C7.383,0,0,7.361,0,16.5S7.383,33,16.482,33s16.482-7.361,16.482-16.5C32.9,7.361,25.518,0,16.482,0z
		 M16.482,28.939C9.609,28.939,4.01,23.354,4.01,16.5s5.6-12.438,12.473-12.438S28.891,9.646,28.891,16.5s-5.6,12.439-12.41,12.439
		H16.482z M19.219,14.723c-0.828-0.254-1.783-0.824-2.736-1.396c-0.287-0.175-0.563-0.366-0.828-0.571
		c-0.318-0.189-0.637-0.443-0.891-0.635c-1.146-0.889-0.891-1.904,0.189-2.602c1.146-0.762,2.547-1.332,4.52-2.03
		c0.637-0.19,0.891-0.509,0.764-0.763c0,0,0-0.063-0.063-0.063c0-0.063-0.064-0.063-0.127-0.126
		c-0.383-0.381-1.211-0.699-2.611-0.762c-0.572-0.063-1.844,0-3.5,0.508c-3.117,0.888-6.109,3.236-6.172,4.125
		c-0.064,1.269,3.182,3.3,5.664,4.632c0.127,0.571,0.127,1.271,0.127,1.968v0.19c0,1.015-0.127,2.094-0.254,2.792
		c-0.191,1.46-1.211,1.714-2.355,1.08c-1.209-0.635-2.354-1.588-4.01-2.983c-0.508-0.444-0.889-0.571-1.08-0.254
		c0,0.063,0,0.063-0.064,0.127c-0.127,0.507-0.064,1.396,0.637,2.665c0.254,0.508,0.891,1.587,2.1,2.792
		c2.229,2.285,5.791,3.808,6.619,3.364c1.145-0.508,1.336-4.381,1.336-7.235c0.064-0.063,0.127-0.063,0.189-0.127l0.064-0.063
		l0.064-0.063c0.953-0.634,2.354-1.332,3.436-1.776c0,0,0.064,0,0.064-0.063c0.063,0,0.063,0,0.127-0.063
		c0.063,0,0.127-0.063,0.189-0.063h0.064c0.064,0,0.127-0.063,0.189-0.063c1.338-0.508,2.102,0.254,2.102,1.523
		c0,1.396-0.191,2.855-0.637,4.949c-0.127,0.699-0.063,1.08,0.318,1.08h0.127c0.51-0.129,1.209-0.635,2.037-1.84
		c0.318-0.445,0.955-1.588,1.4-3.238c0.891-3.11,0.51-6.918-0.254-7.426C25.01,11.741,21.637,13.391,19.219,14.723z M47.092,21.387
		c0,1.523,0,1.84-2.674,2.729l1.273,2.855c5.281-1.142,5.281-2.537,5.281-5.838V6.79H47.09v14.597H47.092z M59.244,20.244
		c-1.463,0-2.227-0.889-2.418-2.729h7.893c0,0,0.189-0.699,0.189-1.714c0-3.046-1.908-5.329-5.789-5.329
		c-3.818,0-6.109,2.346-6.109,6.281c0,4.314,2.609,6.221,5.854,6.221c2.801,0,5.219-1.334,6.109-1.842l-1.336-2.348
		c-1.463,0.824-3.119,1.46-4.391,1.46L59.244,20.244z M59.182,13.2c1.4,0,2.1,0.825,2.1,2.411h-4.391
		c0.189-1.586,0.955-2.411,2.289-2.411H59.182z M72.482,19.736c-0.447,0-1.018-0.063-1.018-1.079v-5.14h3.244V10.79h-3.244V7.3
		l-3.691,0.443v3.047h-1.656v2.728h1.656v5.141c0,2.982,1.209,4.38,3.689,4.38c1.719,0,3.246-0.636,4.072-1.017l-1.271-2.791
		c-0.318,0.127-1.273,0.508-1.781,0.508V19.736z M75.219,10.09h4.645v12.693h3.883V10.09h4.58v-3.3H75.219V10.09z M98.191,10.535
		c-1.846,0-3.438,0.888-4.518,1.586V6.092h-3.756v16.69h3.756V14.85c0.699-0.635,1.908-1.396,3.053-1.396
		c1.146,0,1.4,0.761,1.4,1.776v7.553h3.756v-8.44C101.818,11.994,100.801,10.535,98.191,10.535z M110.092,10.535
		c-4.137,0-6.365,2.283-6.365,6.219c0,3.998,2.291,6.282,6.365,6.282c4.135,0,6.363-2.284,6.363-6.22
		C116.455,12.818,114.164,10.535,110.092,10.535z M110.092,20.182c-1.783,0-2.547-1.271-2.547-3.365
		c0-2.094,0.764-3.362,2.547-3.362c1.781,0,2.607,1.271,2.607,3.362C112.699,18.912,111.873,20.182,110.092,20.182z M126.572,18.721
		c-0.764,0.698-2.037,1.396-3.055,1.396c-1.145,0-1.4-0.762-1.4-1.777v-7.55h-3.754v8.44c0,2.348,1.082,3.808,3.627,3.808
		c1.846,0,3.438-0.825,4.582-1.587v1.333h3.754V10.788h-3.754V18.721z M140.891,12.059c-1.018-0.826-2.227-1.523-3.945-1.523
		c-2.801,0-4.709,2.094-4.709,6.281c0,4.125,1.908,6.221,4.709,6.221c1.719,0,2.928-0.635,3.945-1.46v1.271
		c0,1.332-0.572,1.84-2.418,1.84c-1.209,0-3.438-0.508-4.963-0.953l-0.766,2.982c2.037,0.572,4.582,0.952,6.492,0.952
		c3.627,0,5.408-1.649,5.408-5.077V10.79h-3.754V12.059L140.891,12.059z M140.891,18.594c-0.891,0.952-1.846,1.396-2.736,1.396
		c-1.398,0-2.1-1.143-2.1-3.236s0.701-3.236,2.1-3.236c0.955,0,1.91,0.443,2.736,1.396V18.594z M155.465,10.534
		c-1.848,0-3.438,0.89-4.52,1.587V6.092h-3.754v16.69h3.754V14.85c0.699-0.635,1.91-1.396,3.055-1.396s1.4,0.761,1.4,1.776v7.553
		h3.754v-8.44C159.092,11.994,158.072,10.535,155.465,10.534L155.465,10.534z M167.109,19.736c-0.445,0-1.018-0.063-1.018-1.078
		v-5.141h3.244v-2.729h-3.244v-3.49L162.4,7.742v3.047h-1.656v2.729h1.656v5.14c0,2.983,1.209,4.38,3.691,4.38
		c1.717,0,3.244-0.635,4.072-1.016l-1.273-2.793C168.572,19.355,167.682,19.736,167.109,19.736L167.109,19.736z M177.736,15.421
		c-1.527-0.38-3.055-0.571-3.055-1.332c0-0.381,0.445-0.698,1.336-0.698c1.146,0,2.928,0.508,4.01,0.951l1.463-2.475
		c-1.271-0.57-3.627-1.332-5.727-1.332c-3.119,0-4.836,1.586-4.836,3.68c0,2.412,2.164,3.364,4.137,3.872
		c1.336,0.317,3.18,0.634,3.18,1.396c0,0.381-0.443,0.762-1.336,0.762c-1.271,0-3.563-0.762-4.771-1.332l-1.463,2.602
		c1.336,0.762,3.943,1.586,6.361,1.586c3.184,0,4.965-1.459,4.965-3.68C182,16.88,179.773,15.93,177.736,15.421z"/>
</g>
</svg>
