<svg viewBox="0 0 834 295" xmlns="http://www.w3.org/2000/svg" xmlns:xlink="http://www.w3.org/1999/xlink"><g opacity=".3" transform="translate(-26095 -1436)"><mask id="a"><use xlink:href="#path0_fill" transform="translate(25988 1436)" fill="#FFF"/></mask><g mask="url(#a)" fill="#FFF"><use xlink:href="#path1_stroke" transform="rotate(90 12378.5 13739.5)"/><use xlink:href="#path1_stroke" transform="rotate(90 12393.5 13754.5)"/><use xlink:href="#path1_stroke" transform="rotate(90 12408.5 13769.5)"/><use xlink:href="#path1_stroke" transform="rotate(90 12423.5 13784.5)"/><use xlink:href="#path1_stroke" transform="rotate(90 12438.5 13799.5)"/><use xlink:href="#path1_stroke" transform="rotate(90 12453.5 13814.5)"/><use xlink:href="#path1_stroke" transform="rotate(90 12468.5 13829.5)"/><use xlink:href="#path1_stroke" transform="rotate(90 12483.5 13844.5)"/><use xlink:href="#path1_stroke" transform="rotate(90 12498.5 13859.5)"/><use xlink:href="#path1_stroke" transform="rotate(90 12513.5 13874.5)"/><use xlink:href="#path1_stroke" transform="rotate(90 12528.5 13889.5)"/><use xlink:href="#path1_stroke" transform="rotate(90 12543.5 13904.5)"/><use xlink:href="#path1_stroke" transform="rotate(90 12558.5 13919.5)"/><use xlink:href="#path1_stroke" transform="rotate(90 12573.5 13934.5)"/><use xlink:href="#path1_stroke" transform="rotate(90 12588.5 13949.5)"/><use xlink:href="#path1_stroke" transform="rotate(90 12603.5 13964.5)"/><use xlink:href="#path1_stroke" transform="rotate(90 12618.5 13979.5)"/><use xlink:href="#path1_stroke" transform="rotate(90 12633.5 13994.5)"/><use xlink:href="#path1_stroke" transform="rotate(90 12648.5 14009.5)"/><use xlink:href="#path1_stroke" transform="rotate(90 12663.5 14024.5)"/><use xlink:href="#path1_stroke" transform="rotate(90 12678.5 14039.5)"/><use xlink:href="#path1_stroke" transform="rotate(90 12693.5 14054.5)"/><use xlink:href="#path1_stroke" transform="rotate(90 12708.5 14069.5)"/><use xlink:href="#path1_stroke" transform="rotate(90 12723.5 14084.5)"/><use xlink:href="#path1_stroke" transform="rotate(90 12738.5 14099.5)"/><use xlink:href="#path1_stroke" transform="rotate(90 12753.5 14114.5)"/><use xlink:href="#path1_stroke" transform="rotate(90 12768.5 14129.5)"/><use xlink:href="#path1_stroke" transform="rotate(90 12783.5 14144.5)"/></g></g><defs><path id="path0_fill" d="M249 108c-91 0-148 116-241 116L0 422l948-28c0-164-1-394-7-394-213-.004-299 212-421 212S340 108 249 108z"/><path id="path1_stroke" d="M0 0h370v-1H0v1z"/></defs></svg>