<svg width="991" height="92" viewBox="0 0 991 92" xmlns="http://www.w3.org/2000/svg" xmlns:xlink="http://www.w3.org/1999/xlink"><title>p³õ</title><desc>Created using Figma</desc><use xlink:href="#a" transform="translate(0 46)" fill="#FFF" fill-opacity=".2"/><use xlink:href="#b" transform="translate(571 46)" fill="#FFF" fill-opacity=".2"/><use xlink:href="#c" transform="translate(195.5 42)" fill="#FFF" fill-opacity=".2"/><use xlink:href="#d" transform="translate(201.5 39)" fill="#FFF" fill-opacity=".2"/><use xlink:href="#e" transform="translate(207.5 37)" fill="#FFF" fill-opacity=".2"/><use xlink:href="#f" transform="translate(213.5 31)" fill="#FFF" fill-opacity=".2"/><use xlink:href="#g" transform="translate(219.5 35)" fill="#FFF" fill-opacity=".2"/><use xlink:href="#h" transform="translate(225.5 27)" fill="#FFF" fill-opacity=".2"/><use xlink:href="#i" transform="translate(231.5 40)" fill="#FFF" fill-opacity=".2"/><use xlink:href="#j" transform="translate(237.5 23)" fill="#FFF" fill-opacity=".2"/><use xlink:href="#k" transform="translate(243.5 28)" fill="#FFF" fill-opacity=".2"/><use xlink:href="#l" transform="translate(249.5 34)" fill="#FFF" fill-opacity=".2"/><use xlink:href="#d" transform="translate(255.5 39)" fill="#FFF" fill-opacity=".2"/><use xlink:href="#m" transform="translate(261.5 43)" fill="#FFF" fill-opacity=".2"/><use xlink:href="#i" transform="translate(267.5 40)" fill="#FFF" fill-opacity=".2"/><use xlink:href="#l" transform="translate(273.5 34)" fill="#FFF" fill-opacity=".2"/><use xlink:href="#n" transform="translate(279.5 24)" fill="#FFF" fill-opacity=".2"/><use xlink:href="#o" transform="translate(285.5 13)" fill="#FFF" fill-opacity=".2"/><use xlink:href="#p" transform="translate(291.5 1)" fill="#FFF" fill-opacity=".2"/><use xlink:href="#q" transform="translate(297.5 14)" fill="#FFF" fill-opacity=".2"/><use xlink:href="#r" transform="translate(303.5 30)" fill="#FFF" fill-opacity=".2"/><use xlink:href="#i" transform="translate(309.5 40)" fill="#FFF" fill-opacity=".2"/><use xlink:href="#c" transform="translate(315.5 42)" fill="#FFF" fill-opacity=".2"/><use xlink:href="#s" transform="translate(321.5 38)" fill="#FFF" fill-opacity=".2"/><use xlink:href="#l" transform="translate(327.5 34)" fill="#FFF" fill-opacity=".2"/><use xlink:href="#i" transform="translate(333.5 40)" fill="#FFF" fill-opacity=".2"/><use xlink:href="#t" transform="translate(339.5 29)" fill="#FFF" fill-opacity=".2"/><use xlink:href="#n" transform="translate(345.5 24)" fill="#FFF" fill-opacity=".2"/><use xlink:href="#u" transform="translate(351.5 19)" fill="#FFF" fill-opacity=".2"/><use xlink:href="#v" transform="translate(357.5 15)" fill="#FFF" fill-opacity=".2"/><use xlink:href="#w" transform="translate(363.5 10)" fill="#FFF" fill-opacity=".2"/><use xlink:href="#x" transform="translate(369.5 5)" fill="#FFF" fill-opacity=".2"/><use xlink:href="#y" transform="translate(375.5)" fill="#FFF" fill-opacity=".2"/><use xlink:href="#y" transform="translate(381.5)" fill="#FFF" fill-opacity=".2"/><use xlink:href="#x" transform="translate(387.5 5)" fill="#FFF" fill-opacity=".2"/><use xlink:href="#z" transform="translate(393.5 11)" fill="#FFF" fill-opacity=".2"/><use xlink:href="#v" transform="translate(399.5 15)" fill="#FFF" fill-opacity=".2"/><use xlink:href="#u" transform="translate(405.5 19)" fill="#FFF" fill-opacity=".2"/><use xlink:href="#A" transform="translate(411.5 25)" fill="#FFF" fill-opacity=".2"/><use xlink:href="#t" transform="translate(417.5 29)" fill="#FFF" fill-opacity=".2"/><use xlink:href="#l" transform="translate(423.5 34)" fill="#FFF" fill-opacity=".2"/><use xlink:href="#e" transform="translate(428.5 37)" fill="#FFF" fill-opacity=".2"/><use xlink:href="#i" transform="translate(434.5 40)" fill="#FFF" fill-opacity=".2"/><use xlink:href="#B" transform="translate(440.5 36)" fill="#FFF" fill-opacity=".2"/><use xlink:href="#d" transform="translate(446.5 39)" fill="#FFF" fill-opacity=".2"/><use xlink:href="#l" transform="translate(452.5 34)" fill="#FFF" fill-opacity=".2"/><use xlink:href="#c" transform="translate(458.5 42)" fill="#FFF" fill-opacity=".2"/><use xlink:href="#f" transform="translate(464.5 31)" fill="#FFF" fill-opacity=".2"/><use xlink:href="#l" transform="translate(470.5 34)" fill="#FFF" fill-opacity=".2"/><use xlink:href="#s" transform="translate(476.5 38)" fill="#FFF" fill-opacity=".2"/><use xlink:href="#c" transform="translate(482.5 42)" fill="#FFF" fill-opacity=".2"/><use xlink:href="#m" transform="translate(488.5 43)" fill="#FFF" fill-opacity=".2"/><use xlink:href="#c" transform="translate(494.5 42)" fill="#FFF" fill-opacity=".2"/><use xlink:href="#s" transform="translate(500.5 38)" fill="#FFF" fill-opacity=".2"/><use xlink:href="#l" transform="translate(506.5 34)" fill="#FFF" fill-opacity=".2"/><use xlink:href="#f" transform="translate(512.5 31)" fill="#FFF" fill-opacity=".2"/><use xlink:href="#k" transform="translate(518.5 28)" fill="#FFF" fill-opacity=".2"/><use xlink:href="#C" transform="translate(524.5 32)" fill="#FFF" fill-opacity=".2"/><use xlink:href="#s" transform="translate(530.5 38)" fill="#FFF" fill-opacity=".2"/><use xlink:href="#c" transform="translate(536.5 42)" fill="#FFF" fill-opacity=".2"/><use xlink:href="#D" transform="translate(541.5 44)" fill="#FFF" fill-opacity=".2"/><use xlink:href="#E" transform="translate(547.5 41)" fill="#FFF" fill-opacity=".2"/><use xlink:href="#s" transform="translate(553.5 38)" fill="#FFF" fill-opacity=".2"/><use xlink:href="#c" transform="translate(559.5 42)" fill="#FFF" fill-opacity=".2"/><use xlink:href="#m" transform="translate(565.5 43)" fill="#FFF" fill-opacity=".2"/><defs><path id="a" d="M0 .5h190v-1H0v1z"/><path id="b" d="M0 .5h420v-1H0v1z"/><path id="c" d="M-.5 0v8h1V0h-1z"/><path id="d" d="M-.5 0v14h1V0h-1z"/><path id="e" d="M-.5 0v18h1V0h-1z"/><path id="f" d="M-.5 0v30h1V0h-1z"/><path id="g" d="M-.5 0v22h1V0h-1z"/><path id="h" d="M-.5 0v38h1V0h-1z"/><path id="i" d="M-.5 0v12h1V0h-1z"/><path id="j" d="M-.5 0v46h1V0h-1z"/><path id="k" d="M-.5 0v36h1V0h-1z"/><path id="l" d="M-.5 0v24h1V0h-1z"/><path id="m" d="M-.5 0v6h1V0h-1z"/><path id="n" d="M-.5 0v44h1V0h-1z"/><path id="o" d="M-.5 0v66h1V0h-1z"/><path id="p" d="M-.5 0v90h1V0h-1z"/><path id="q" d="M-.5 0v64h1V0h-1z"/><path id="r" d="M-.5 0v32h1V0h-1z"/><path id="s" d="M-.5 0v16h1V0h-1z"/><path id="t" d="M-.5 0v34h1V0h-1z"/><path id="u" d="M-.5 0v54h1V0h-1z"/><path id="v" d="M-.5 0v62h1V0h-1z"/><path id="w" d="M-.5 0v72h1V0h-1z"/><path id="x" d="M-.5 0v82h1V0h-1z"/><path id="y" d="M-.5 0v92h1V0h-1z"/><path id="z" d="M-.5 0v70h1V0h-1z"/><path id="A" d="M-.5 0v42h1V0h-1z"/><path id="B" d="M-.5 0v20h1V0h-1z"/><path id="C" d="M-.5 0v28h1V0h-1z"/><path id="D" d="M-.5 0v4h1V0h-1z"/><path id="E" d="M-.5 0v10h1V0h-1z"/></defs></svg>