<svg width="991" height="92" xmlns="http://www.w3.org/2000/svg" xmlns:xlink="http://www.w3.org/1999/xlink"><use xlink:href="#path0_stroke" transform="translate(0 46)" fill="#FFF" fill-opacity=".2"/><use xlink:href="#path1_stroke" transform="translate(571 46)" fill="#FFF" fill-opacity=".2"/><use xlink:href="#path2_stroke" transform="translate(195.5 42)" fill="#FFF" fill-opacity=".2"/><use xlink:href="#path3_stroke" transform="translate(201.5 39)" fill="#FFF" fill-opacity=".2"/><use xlink:href="#path4_stroke" transform="translate(207.5 37)" fill="#FFF" fill-opacity=".2"/><use xlink:href="#path5_stroke" transform="translate(213.5 31)" fill="#FFF" fill-opacity=".2"/><use xlink:href="#path6_stroke" transform="translate(219.5 35)" fill="#FFF" fill-opacity=".2"/><use xlink:href="#path7_stroke" transform="translate(225.5 27)" fill="#FFF" fill-opacity=".2"/><use xlink:href="#path8_stroke" transform="translate(231.5 40)" fill="#FFF" fill-opacity=".2"/><use xlink:href="#path9_stroke" transform="translate(237.5 23)" fill="#FFF" fill-opacity=".2"/><use xlink:href="#path10_stroke" transform="translate(243.5 28)" fill="#FFF" fill-opacity=".2"/><use xlink:href="#path11_stroke" transform="translate(249.5 34)" fill="#FFF" fill-opacity=".2"/><use xlink:href="#path3_stroke" transform="translate(255.5 39)" fill="#FFF" fill-opacity=".2"/><use xlink:href="#path12_stroke" transform="translate(261.5 43)" fill="#FFF" fill-opacity=".2"/><use xlink:href="#path8_stroke" transform="translate(267.5 40)" fill="#FFF" fill-opacity=".2"/><use xlink:href="#path11_stroke" transform="translate(273.5 34)" fill="#FFF" fill-opacity=".2"/><use xlink:href="#path13_stroke" transform="translate(279.5 24)" fill="#FFF" fill-opacity=".2"/><use xlink:href="#path14_stroke" transform="translate(285.5 13)" fill="#FFF" fill-opacity=".2"/><use xlink:href="#path15_stroke" transform="translate(291.5 1)" fill="#FFF" fill-opacity=".2"/><use xlink:href="#path16_stroke" transform="translate(297.5 14)" fill="#FFF" fill-opacity=".2"/><use xlink:href="#path17_stroke" transform="translate(303.5 30)" fill="#FFF" fill-opacity=".2"/><use xlink:href="#path8_stroke" transform="translate(309.5 40)" fill="#FFF" fill-opacity=".2"/><use xlink:href="#path2_stroke" transform="translate(315.5 42)" fill="#FFF" fill-opacity=".2"/><use xlink:href="#path18_stroke" transform="translate(321.5 38)" fill="#FFF" fill-opacity=".2"/><use xlink:href="#path11_stroke" transform="translate(327.5 34)" fill="#FFF" fill-opacity=".2"/><use xlink:href="#path8_stroke" transform="translate(333.5 40)" fill="#FFF" fill-opacity=".2"/><use xlink:href="#path19_stroke" transform="translate(339.5 29)" fill="#FFF" fill-opacity=".2"/><use xlink:href="#path13_stroke" transform="translate(345.5 24)" fill="#FFF" fill-opacity=".2"/><use xlink:href="#path20_stroke" transform="translate(351.5 19)" fill="#FFF" fill-opacity=".2"/><use xlink:href="#path21_stroke" transform="translate(357.5 15)" fill="#FFF" fill-opacity=".2"/><use xlink:href="#path22_stroke" transform="translate(363.5 10)" fill="#FFF" fill-opacity=".2"/><use xlink:href="#path23_stroke" transform="translate(369.5 5)" fill="#FFF" fill-opacity=".2"/><use xlink:href="#path24_stroke" transform="translate(375.5)" fill="#FFF" fill-opacity=".2"/><use xlink:href="#path24_stroke" transform="translate(381.5)" fill="#FFF" fill-opacity=".2"/><use xlink:href="#path23_stroke" transform="translate(387.5 5)" fill="#FFF" fill-opacity=".2"/><use xlink:href="#path25_stroke" transform="translate(393.5 11)" fill="#FFF" fill-opacity=".2"/><use xlink:href="#path21_stroke" transform="translate(399.5 15)" fill="#FFF" fill-opacity=".2"/><use xlink:href="#path20_stroke" transform="translate(405.5 19)" fill="#FFF" fill-opacity=".2"/><use xlink:href="#path26_stroke" transform="translate(411.5 25)" fill="#FFF" fill-opacity=".2"/><use xlink:href="#path19_stroke" transform="translate(417.5 29)" fill="#FFF" fill-opacity=".2"/><use xlink:href="#path11_stroke" transform="translate(423.5 34)" fill="#FFF" fill-opacity=".2"/><use xlink:href="#path4_stroke" transform="translate(428.5 37)" fill="#FFF" fill-opacity=".2"/><use xlink:href="#path8_stroke" transform="translate(434.5 40)" fill="#FFF" fill-opacity=".2"/><use xlink:href="#path27_stroke" transform="translate(440.5 36)" fill="#FFF" fill-opacity=".2"/><use xlink:href="#path3_stroke" transform="translate(446.5 39)" fill="#FFF" fill-opacity=".2"/><use xlink:href="#path11_stroke" transform="translate(452.5 34)" fill="#FFF" fill-opacity=".2"/><use xlink:href="#path2_stroke" transform="translate(458.5 42)" fill="#FFF" fill-opacity=".2"/><use xlink:href="#path5_stroke" transform="translate(464.5 31)" fill="#FFF" fill-opacity=".2"/><use xlink:href="#path11_stroke" transform="translate(470.5 34)" fill="#FFF" fill-opacity=".2"/><use xlink:href="#path18_stroke" transform="translate(476.5 38)" fill="#FFF" fill-opacity=".2"/><use xlink:href="#path2_stroke" transform="translate(482.5 42)" fill="#FFF" fill-opacity=".2"/><use xlink:href="#path12_stroke" transform="translate(488.5 43)" fill="#FFF" fill-opacity=".2"/><use xlink:href="#path2_stroke" transform="translate(494.5 42)" fill="#FFF" fill-opacity=".2"/><use xlink:href="#path18_stroke" transform="translate(500.5 38)" fill="#FFF" fill-opacity=".2"/><use xlink:href="#path11_stroke" transform="translate(506.5 34)" fill="#FFF" fill-opacity=".2"/><use xlink:href="#path5_stroke" transform="translate(512.5 31)" fill="#FFF" fill-opacity=".2"/><use xlink:href="#path10_stroke" transform="translate(518.5 28)" fill="#FFF" fill-opacity=".2"/><use xlink:href="#path28_stroke" transform="translate(524.5 32)" fill="#FFF" fill-opacity=".2"/><use xlink:href="#path18_stroke" transform="translate(530.5 38)" fill="#FFF" fill-opacity=".2"/><use xlink:href="#path2_stroke" transform="translate(536.5 42)" fill="#FFF" fill-opacity=".2"/><use xlink:href="#path29_stroke" transform="translate(541.5 44)" fill="#FFF" fill-opacity=".2"/><use xlink:href="#path30_stroke" transform="translate(547.5 41)" fill="#FFF" fill-opacity=".2"/><use xlink:href="#path18_stroke" transform="translate(553.5 38)" fill="#FFF" fill-opacity=".2"/><use xlink:href="#path2_stroke" transform="translate(559.5 42)" fill="#FFF" fill-opacity=".2"/><use xlink:href="#path12_stroke" transform="translate(565.5 43)" fill="#FFF" fill-opacity=".2"/><defs><path id="path0_stroke" d="M0 .5h190v-1H0v1z"/><path id="path1_stroke" d="M0 .5h420v-1H0v1z"/><path id="path2_stroke" d="M-.5 0v8h1V0h-1z"/><path id="path3_stroke" d="M-.5 0v14h1V0h-1z"/><path id="path4_stroke" d="M-.5 0v18h1V0h-1z"/><path id="path5_stroke" d="M-.5 0v30h1V0h-1z"/><path id="path6_stroke" d="M-.5 0v22h1V0h-1z"/><path id="path7_stroke" d="M-.5 0v38h1V0h-1z"/><path id="path8_stroke" d="M-.5 0v12h1V0h-1z"/><path id="path9_stroke" d="M-.5 0v46h1V0h-1z"/><path id="path10_stroke" d="M-.5 0v36h1V0h-1z"/><path id="path11_stroke" d="M-.5 0v24h1V0h-1z"/><path id="path12_stroke" d="M-.5 0v6h1V0h-1z"/><path id="path13_stroke" d="M-.5 0v44h1V0h-1z"/><path id="path14_stroke" d="M-.5 0v66h1V0h-1z"/><path id="path15_stroke" d="M-.5 0v90h1V0h-1z"/><path id="path16_stroke" d="M-.5 0v64h1V0h-1z"/><path id="path17_stroke" d="M-.5 0v32h1V0h-1z"/><path id="path18_stroke" d="M-.5 0v16h1V0h-1z"/><path id="path19_stroke" d="M-.5 0v34h1V0h-1z"/><path id="path20_stroke" d="M-.5 0v54h1V0h-1z"/><path id="path21_stroke" d="M-.5 0v62h1V0h-1z"/><path id="path22_stroke" d="M-.5 0v72h1V0h-1z"/><path id="path23_stroke" d="M-.5 0v82h1V0h-1z"/><path id="path24_stroke" d="M-.5 0v92h1V0h-1z"/><path id="path25_stroke" d="M-.5 0v70h1V0h-1z"/><path id="path26_stroke" d="M-.5 0v42h1V0h-1z"/><path id="path27_stroke" d="M-.5 0v20h1V0h-1z"/><path id="path28_stroke" d="M-.5 0v28h1V0h-1z"/><path id="path29_stroke" d="M-.5 0v4h1V0h-1z"/><path id="path30_stroke" d="M-.5 0v10h1V0h-1z"/></defs></svg>