<svg viewBox="0 0 45 30" xmlns="http://www.w3.org/2000/svg" xmlns:xlink="http://www.w3.org/1999/xlink"><use xlink:href="#a" transform="translate(.5 .5)" fill="#A6A6A6"/><defs><path id="a" d="M3.5 26V2h-1v24h1zM5 .5h35v-1H5v1zM41.5 2v24h1V2h-1zm.5 23.5H3v1h39v-1zm-40.5 4h41v-1h-41v1zm41-4H42v1h.5v-1zM3 25.5H1.5v1H3v-1zM3.5 2A1.5 1.5 0 0 1 5 .5v-1A2.5 2.5 0 0 0 2.5 2h1zM40 .5A1.5 1.5 0 0 1 41.5 2h1A2.5 2.5 0 0 0 40-.5v1zM.5 27.5a1 1 0 0 1 1-1v-1a2 2 0 0 0-2 2h1zm-1 0a2 2 0 0 0 2 2v-1a1 1 0 0 1-1-1h-1zm43 2a2 2 0 0 0 2-2h-1a1 1 0 0 1-1 1v1zm2-2a2 2 0 0 0-2-2v1a1 1 0 0 1 1 1h1z"/></defs></svg>