<?xml version="1.0" encoding="utf-8"?>
<!-- Generator: Adobe Illustrator 26.3.1, SVG Export Plug-In . SVG Version: 6.00 Build 0)  -->
<svg version="1.1" id="Layer_1" xmlns="http://www.w3.org/2000/svg" xmlns:xlink="http://www.w3.org/1999/xlink" x="0px" y="0px"
	 viewBox="0 0 60 60" style="enable-background:new 0 0 60 60;" xml:space="preserve">
<style type="text/css">
	.st0{fill:none;}
	.st1{fill:none;stroke:#1A8CFF;}
	.st2{fill:none;stroke:#1A8CFF;stroke-width:2;stroke-linecap:round;stroke-linejoin:round;}
</style>
<g>
	<path class="st0" d="M30,0L30,0c16.6,0,30,13.4,30,30l0,0c0,16.6-13.4,30-30,30l0,0C13.4,60,0,46.6,0,30l0,0C0,13.4,13.4,0,30,0z"
		/>
	<path class="st1" d="M30,0.5L30,0.5c16.3,0,29.5,13.2,29.5,29.5l0,0c0,16.3-13.2,29.5-29.5,29.5l0,0C13.7,59.5,0.5,46.3,0.5,30l0,0
		C0.5,13.7,13.7,0.5,30,0.5z"/>
</g>
<g transform="translate(15 15)">
	<g transform="translate(0 0)">
		<path class="st2" d="M11.9,7.4L4.3,15l7.5,7.6"/>
		<path class="st2" d="M25.7,15H4.6"/>
		<path class="st0" d="M0,30h30V0H0V30z"/>
	</g>
</g>
</svg>
