<svg xmlns="http://www.w3.org/2000/svg" width="36.244" height="36.006" viewBox="0 0 36.244 36.006"><defs><style>.a,.b{fill:none;stroke:#1a8cff;stroke-linecap:round;stroke-width:2px;}.a{stroke-linejoin:round;}.b{stroke-linejoin:bevel;}</style></defs><g transform="translate(-1.795 -2.08)"><path class="a" d="M17.317,6h-6.6A4.72,4.72,0,0,0,6,10.726V23.958a4.72,4.72,0,0,0,4.715,4.726h13.2a4.72,4.72,0,0,0,4.715-4.726V19.232" transform="translate(2.685 2.69)"/><path class="a" d="M16.126,3.845c-4.457-1.4-8.474-1.046-10.9,1.379-3.31,3.312-2.756,9.592.844,15.911l2.047,3.676.566,1.021" transform="translate(0 0)"/><path class="a" d="M14.032,28.889c4.508,1.446,8.577,1.11,11.024-1.337,2.425-2.426,2.777-6.443,1.377-10.9a26.1,26.1,0,0,0-2.44-5.39" transform="translate(9.729 7.278)"/><path class="a" d="M18.892,7.5,18.264,8.77,13,9.535l3.809,3.713-.9,5.243,2.8-1.474,1.9-1,4.708,2.475-.9-5.243,3.809-3.713L22.973,8.77,20.618,4" transform="translate(8.795 0.881)"/><path class="a" d="M8,8.5h7.618" transform="translate(4.415 4.899)"/><line class="b" x2="7.406" transform="translate(12.416 17.189)"/><line class="b" x2="7.406" transform="translate(12.416 20.979)"/><line class="b" x2="13.332" transform="translate(12.393 26.664)"/></g></svg>