<svg xmlns="http://www.w3.org/2000/svg" width="45" height="36.537" viewBox="0 0 45 36.537"><defs><style>.a,.b,.c{fill:none;stroke:#1a8cff;stroke-linecap:round;stroke-linejoin:round;stroke-width:2px;}.a{stroke-dasharray:3;}.c{stroke-dasharray:4;}</style></defs><g transform="translate(-1 -5.635)"><path class="a" d="M9.893,8,2,21.672H17.787Z" transform="translate(0 5.794)"/><path class="a" d="M5.464,27.672H21.251L13.358,14Z" transform="translate(4.341 13.328)"/><path class="b" d="M17.787,14H2L9.893,27.672,17.787,14Z" transform="translate(0 13.5)"/><path class="b" d="M8.928,14Z" transform="translate(8.746 13.411)"/><path class="b" d="M14.842,14H8.928l7.893,13.672L24.715,14H19.508" transform="translate(8.682 13.328)"/><path class="b" d="M18.62,12.557,21.251,8H5.464l7.893,13.672,2.631-4.558" transform="translate(4.341 5.794)"/><g transform="translate(29.213 7)"><path class="c" d="M24.918,16.672h2L19.021,3l-.865,1.5" transform="translate(-11.128 -3)"/><path class="b" d="M22.965,3,15.072,16.672H30.859" transform="translate(-15.072 -3)"/></g></g></svg>