<svg xmlns="http://www.w3.org/2000/svg" width="36.207" height="36.207" viewBox="0 0 36.207 36.207"><defs><style>.a,.b,.c{fill:none;stroke:#1a8cff;stroke-linecap:round;stroke-width:2px;}.a{stroke-linejoin:round;}.b,.c{stroke-linejoin:bevel;}.c{stroke-dasharray:2;}</style></defs><g transform="translate(-2.5 -2.5)"><circle class="a" cx="4.024" cy="4.024" r="4.024" transform="translate(16.579 7.525)"/><path class="a" d="M11.549,3.5v8.049H3.5" transform="translate(0 0)"/><line class="b" x1="6.767" y1="6.85" transform="translate(4.781 4.698)"/><path class="a" d="M11.549,24.549V16.5H3.5" transform="translate(0 13.158)"/><line class="b" x1="6.767" y2="6.85" transform="translate(4.781 29.658)"/><path class="a" d="M16.5,3.5v8.049h8.049" transform="translate(13.158 0)"/><line class="b" y1="6.85" x2="6.767" transform="translate(29.658 4.698)"/><path class="a" d="M16.5,24.549V16.5h8.049" transform="translate(13.158 13.158)"/><line class="b" x2="6.767" y2="6.85" transform="translate(29.658 29.658)"/><line class="b" x2="8.049" transform="translate(16.579 30.664)"/><path class="a" d="M8,17.5a6.015,6.015,0,0,1,5.395-5.972L16.049,17.5,18.7,11.532A6.015,6.015,0,0,1,24.1,17.5Z" transform="translate(4.555 8.13)"/><path class="c" d="M3.84,7.5" transform="translate(0.344 4.049)"/></g></svg>