<svg xmlns="http://www.w3.org/2000/svg" width="34.539" height="37.559" viewBox="0 0 34.539 37.559"><defs><style>.a,.b,.c{fill:none;}.a,.b,.c,.d{stroke:#1a8cff;stroke-linecap:round;stroke-width:2px;}.a,.c,.d{stroke-linejoin:round;}.b{stroke-linejoin:bevel;}.c{stroke-dasharray:5;}.d{fill:#fff;}</style></defs><g transform="translate(-1.996 -1.275)"><g transform="translate(0.937 0.873)"><path class="a" d="M16.428,24.025a1.526,1.526,0,0,1,1.756.293l0,0a1.548,1.548,0,0,0,2.187,0l.212-.212a1.547,1.547,0,0,0,0-2.189l0,0a1.524,1.524,0,0,1-.3-1.756,8.482,8.482,0,0,0,.428-1.03,1.523,1.523,0,0,1,1.447-1.02h0a1.548,1.548,0,0,0,1.547-1.547v-.3a1.547,1.547,0,0,0-1.547-1.547h0A1.525,1.525,0,0,1,20.718,13.7a8.482,8.482,0,0,0-.428-1.03,1.524,1.524,0,0,1,.3-1.756l0,0a1.547,1.547,0,0,0,0-2.189l-.212-.212a1.548,1.548,0,0,0-2.187,0l0,0a1.524,1.524,0,0,1-1.756.3,8.579,8.579,0,0,0-1.029-.43,1.521,1.521,0,0,1-1.022-1.445h0A1.547,1.547,0,0,0,12.83,5.384h-.3a1.546,1.546,0,0,0-1.547,1.547h0" transform="translate(5.666 2.724)"/><path class="a" d="M12.668,7.738a1.524,1.524,0,0,1-1.756-.3l0,0a1.548,1.548,0,0,0-2.187,0l-.213.212a1.55,1.55,0,0,0,0,2.189l0,0a1.524,1.524,0,0,1,.3,1.756,8.224,8.224,0,0,0-.428,1.03A1.525,1.525,0,0,1,6.931,13.65h0A1.546,1.546,0,0,0,5.384,15.2v.3a1.547,1.547,0,0,0,1.547,1.547h0a1.523,1.523,0,0,1,1.447,1.02,8.224,8.224,0,0,0,.428,1.03,1.524,1.524,0,0,1-.3,1.756l0,0a1.55,1.55,0,0,0,0,2.189l.213.212a1.548,1.548,0,0,0,2.187,0l0,0a1.526,1.526,0,0,1,1.756-.293,8.732,8.732,0,0,0,1.029.428,1.523,1.523,0,0,1,1.022,1.447h0a1.546,1.546,0,0,0,1.547,1.546h.3a1.547,1.547,0,0,0,1.547-1.546h0" transform="translate(1.93 3.794)"/><g transform="translate(15.845 13.291)"><path class="a" d="M10.5,15.376v0a1.876,1.876,0,0,0,1.876,1.876h1.25A1.876,1.876,0,0,0,15.5,15.378h0A1.875,1.875,0,0,0,13.627,13.5h-1.25A1.876,1.876,0,0,1,10.5,11.627h0a1.875,1.875,0,0,1,1.876-1.876h1.25A1.875,1.875,0,0,1,15.5,11.627v.178" transform="translate(-10.501 -7.653)"/><line class="b" y1="2.097" transform="translate(2.501)"/><line class="b" y2="2.097" transform="translate(2.5 9.6)"/></g></g><path class="c" d="M3,19.226A16.267,16.267,0,0,1,19.284,3.021" transform="translate(0.001 0.813)"/><path class="c" d="M28.253,11.98A16.267,16.267,0,0,1,12,28.312" transform="translate(7.282 8.059)"/><path class="a" d="M12.027,3A16.267,16.267,0,0,1,28.232,19.285" transform="translate(7.303 0.796)"/><path class="a" d="M19.33,28.256A16.267,16.267,0,0,1,3,12" transform="translate(0 8.077)"/><path class="d" d="M1.809,3.618,0,1.809,1.809,0Z" transform="matrix(0.966, -0.259, 0.259, 0.966, 13.324, 2.968)"/><path class="d" d="M0,3.618,1.809,1.809,0,0Z" transform="matrix(0.985, -0.174, 0.174, 0.985, 23.142, 34.114)"/></g></svg>