<?xml version="1.0" standalone="no"?>
<!DOCTYPE svg PUBLIC "-//W3C//DTD SVG 20010904//EN"
 "http://www.w3.org/TR/2001/REC-SVG-20010904/DTD/svg10.dtd">
<svg version="1.0" xmlns="http://www.w3.org/2000/svg"
 width="500.000000pt" height="500.000000pt" viewBox="0 0 500.000000 500.000000"
 preserveAspectRatio="xMidYMid meet">

<g transform="translate(0.000000,500.000000) scale(0.100000,-0.100000)"
fill="#000000" stroke="none">
<path d="M0 2500 l0 -2500 2500 0 2500 0 0 2500 0 2500 -2500 0 -2500 0 0
-2500z m2698 1889 c646 -70 1208 -467 1492 -1054 557 -1150 -158 -2509 -1420
-2700 -137 -21 -402 -21 -537 -1 -758 114 -1371 666 -1557 1401 -47 187 -59
309 -53 530 6 221 28 355 88 535 138 415 412 769 774 1003 351 226 798 332
1213 286z"/>
<path d="M2289 3925 c-324 -53 -583 -188 -810 -422 -182 -188 -300 -401 -363
-653 -97 -392 -22 -811 206 -1148 216 -320 557 -541 938 -607 126 -22 346 -22
475 0 315 54 611 218 824 458 183 206 304 464 348 742 21 133 13 393 -16 516
-130 559 -554 982 -1106 1101 -120 26 -377 33 -496 13z m383 -195 c151 -17
270 -77 254 -128 -9 -28 -30 -38 -186 -96 -171 -64 -395 -175 -452 -225 -28
-25 -53 -59 -64 -86 -16 -42 -16 -48 0 -90 21 -55 83 -112 224 -206 96 -64
285 -166 339 -183 17 -5 75 19 230 96 296 148 459 197 548 168 45 -15 68 -60
90 -174 57 -296 3 -670 -136 -948 -80 -161 -184 -279 -274 -314 -86 -32 -91
-2 -42 256 33 173 51 344 45 428 -12 159 -96 220 -238 172 -93 -31 -332 -148
-427 -208 l-80 -52 -6 -189 c-12 -334 -53 -552 -116 -620 -24 -26 -37 -31 -74
-31 -179 0 -569 228 -759 443 -176 199 -268 378 -268 520 0 76 15 103 52 94
27 -7 63 -34 213 -162 104 -88 280 -209 343 -236 25 -11 67 -19 97 -19 46 0
60 5 89 30 21 19 41 49 50 78 24 75 39 233 40 424 0 144 -2 181 -14 192 -8 8
-85 57 -170 108 -232 140 -375 250 -442 342 -21 29 -28 50 -28 84 0 43 3 48
88 131 231 229 604 388 962 409 14 1 64 -3 112 -8z"/>
</g>
</svg>
