<?xml version="1.0" standalone="no"?>
<!DOCTYPE svg PUBLIC "-//W3C//DTD SVG 20010904//EN"
 "http://www.w3.org/TR/2001/REC-SVG-20010904/DTD/svg10.dtd">
<svg version="1.0" xmlns="http://www.w3.org/2000/svg"
 width="500.000000pt" height="500.000000pt" viewBox="0 0 500.000000 500.000000"
 preserveAspectRatio="xMidYMid meet">

<g transform="translate(0.000000,500.000000) scale(0.100000,-0.100000)"
fill="#000000" stroke="none">
<path d="M0 2500 l0 -2500 2500 0 2500 0 0 2500 0 2500 -2500 0 -2500 0 0
-2500z m1322 258 c94 -40 168 -154 168 -258 0 -66 -28 -135 -75 -188 -136
-151 -371 -120 -467 61 -32 60 -32 194 0 254 74 140 228 194 374 131z m1228
-129 c0 -45 2 -50 18 -43 9 4 35 9 56 12 56 6 66 -12 66 -120 l0 -88 -30 0
-30 0 0 79 c0 86 -8 99 -51 77 -22 -10 -24 -19 -27 -84 l-3 -72 -29 0 -30 0 0
145 0 145 30 0 c29 0 30 -1 30 -51z m1000 0 c0 -45 2 -50 18 -43 9 4 35 9 56
12 56 6 66 -12 66 -120 l0 -88 -30 0 -30 0 0 79 c0 86 -8 99 -51 77 -22 -10
-24 -19 -27 -84 l-3 -72 -29 0 -30 0 0 145 0 145 30 0 c29 0 30 -1 30 -51z
m-1750 -112 c0 -168 -3 -177 -62 -192 -21 -5 -27 -3 -33 15 -5 16 -1 26 14 36
20 14 21 24 21 155 l0 139 30 0 30 0 0 -153z m655 123 c0 -22 -5 -25 -37 -28
l-38 -3 0 -110 0 -109 -35 0 -35 0 0 109 0 110 -37 3 c-33 3 -38 7 -41 31 l-3
28 113 -3 113 -3 0 -25z m-295 -10 c0 -27 3 -30 31 -30 26 0 30 -3 27 -22 -2
-17 -11 -24 -31 -26 -27 -3 -28 -5 -25 -55 3 -47 5 -52 26 -52 29 -1 51 -33
31 -46 -8 -5 -31 -9 -51 -9 -50 0 -68 27 -68 101 0 41 -4 58 -15 63 -8 3 -15
15 -15 26 0 11 7 20 15 20 9 0 15 9 15 24 0 23 4 26 53 35 4 0 7 -12 7 -29z
m1658 -3 c3 -21 9 -27 28 -27 19 0 24 -5 24 -25 0 -20 -5 -25 -25 -25 -24 0
-25 -3 -25 -56 0 -54 1 -56 24 -50 19 5 26 1 31 -15 9 -27 -8 -39 -55 -39 -50
0 -60 14 -60 87 0 47 -4 65 -15 69 -8 4 -15 16 -15 29 0 13 7 25 15 29 8 3 15
14 15 25 0 18 22 31 45 27 6 -2 11 -15 13 -29z m-1814 -38 c27 -13 50 -57 44
-86 -3 -15 -15 -19 -71 -21 -69 -3 -84 -15 -52 -42 13 -10 24 -11 57 -1 35 11
43 10 56 -3 14 -14 12 -17 -21 -31 -56 -23 -113 -20 -142 10 -20 20 -25 34
-25 77 1 55 11 76 45 96 26 15 77 15 109 1z m903 -4 c33 -23 48 -83 33 -129
-15 -47 -44 -66 -102 -66 -67 0 -99 29 -106 98 -4 47 -2 54 26 82 26 25 38 30
79 30 27 0 58 -7 70 -15z m143 -64 c0 -86 8 -99 51 -77 22 10 24 19 27 84 l3
72 29 0 30 0 0 -105 0 -105 -29 0 c-16 0 -31 5 -33 11 -3 9 -9 9 -25 0 -28
-15 -86 -14 -101 1 -8 8 -12 46 -12 105 l0 93 30 0 30 0 0 -79z m309 67 c11
-10 14 -10 18 0 3 6 18 12 34 12 l29 0 0 -119 c0 -105 -2 -121 -21 -145 -18
-23 -28 -26 -77 -26 -92 0 -116 12 -94 47 5 7 20 9 48 4 51 -10 84 2 84 29 0
21 -14 27 -25 10 -10 -17 -71 -11 -96 9 -21 17 -24 28 -24 84 0 80 19 107 75
107 20 0 42 -6 49 -12z m696 2 c22 -8 24 -13 15 -29 -8 -17 -15 -18 -45 -10
-35 10 -55 6 -55 -11 0 -5 17 -14 38 -19 20 -6 47 -18 60 -26 30 -21 30 -68 0
-89 -26 -19 -101 -20 -141 -3 -25 11 -26 14 -14 30 11 17 18 18 55 7 23 -6 47
-8 52 -5 21 13 8 25 -35 36 -45 11 -85 47 -85 75 0 8 9 23 20 34 22 22 90 27
135 10z"/>
<path d="M1135 2709 c-43 -12 -102 -65 -126 -111 -29 -57 -28 -145 3 -200 109
-198 408 -124 408 100 0 152 -139 254 -285 211z m125 -38 c0 -3 -21 -17 -47
-31 -63 -33 -65 -52 -10 -84 l43 -26 51 22 c69 29 83 22 83 -44 0 -56 -25
-123 -54 -147 -16 -13 -16 -10 -10 52 8 81 -4 91 -68 55 -34 -18 -44 -29 -46
-53 -6 -69 -13 -95 -28 -95 -45 0 -134 71 -149 121 -11 33 0 32 48 -2 25 -17
52 -29 60 -26 17 6 29 84 16 108 -5 10 -17 20 -27 23 -11 4 -30 18 -43 32 -28
30 -20 48 31 78 49 29 150 40 150 17z"/>
<path d="M1922 2548 c-22 -22 -13 -38 22 -38 39 0 53 14 36 35 -15 18 -42 19
-58 3z"/>
<path d="M2810 2540 c-11 -11 -20 -31 -20 -45 0 -24 31 -65 48 -65 25 0 46 30
46 65 0 25 -6 42 -19 51 -25 18 -31 18 -55 -6z"/>
<path d="M3302 2538 c-7 -7 -12 -26 -12 -43 0 -36 15 -55 45 -55 30 0 45 19
45 55 0 36 -15 55 -45 55 -12 0 -26 -5 -33 -12z"/>
</g>
</svg>
