<svg xmlns="http://www.w3.org/2000/svg" width="29.5" height="29.5" viewBox="0 0 29.5 29.5"><defs><style>.a,.b{fill:none;stroke:#1a8cff;stroke-linecap:round;stroke-width:1.5px;}.a{stroke-linejoin:round;}.b{stroke-linejoin:bevel;}</style></defs><g transform="translate(25.799 -2.25)"><circle class="a" cx="1.556" cy="1.556" r="1.556" transform="translate(-0.161 16.201)"/><path class="a" d="M-10.308,18.175h3.576V13.487" transform="translate(8.128 5.825)"/><circle class="a" cx="1.556" cy="1.556" r="1.556" transform="translate(-1.058 3.837)"/><path class="a" d="M-8.474,4.492h-3.112V7.57" transform="translate(7.417 0.83)"/><circle class="a" cx="4.668" cy="4.668" r="4.668" transform="translate(-15.751 10.064)"/><path class="a" d="M-23.413,24.336c0-5.315,3.382-8.829,7.707-9.336l3.793,5.6L-8.119,15c4.325.507,7.707,3.951,7.707,9.336Z" transform="translate(0.91 6.664)"/><path class="a" d="M-12.206,15.022v5.386H-16" transform="translate(4.992 6.676)"/><path class="a" d="M-14.671,20.408h-3.811V15.022" transform="translate(3.623 6.676)"/><line class="b" y2="4.201" transform="translate(-11.053 26.798)"/><path class="a" d="M-10.364,21.356a9.355,9.355,0,0,0,3.711-7.467A9.367,9.367,0,0,0-16.02,4.522" transform="translate(4.969 0.846)"/><path class="a" d="M-18.287,21.386a9.352,9.352,0,0,1-3.752-7.5,9.367,9.367,0,0,1,9.367-9.367" transform="translate(1.656 0.846)"/><circle class="a" cx="1.556" cy="1.556" r="1.556" transform="translate(-25.049 20.904)"/><circle class="a" cx="1.556" cy="1.556" r="1.556" transform="translate(-22.669 3)"/><path class="a" d="M-22.519,5V8.112h2.541" transform="translate(1.406 1.112)"/><path class="a" d="M-20.8,11h-3.246v5.446" transform="translate(0.556 4.443)"/><line class="b" x2="7.66" transform="translate(-14.859 21.683)"/></g></svg>