<svg xmlns="http://www.w3.org/2000/svg" width="28.497" height="28.497" viewBox="0 0 28.497 28.497"><defs><style>.a,.b,.c{fill:none;stroke:#1a8cff;stroke-linecap:round;stroke-width:1.5px;}.a,.b{stroke-linejoin:round;}.b{stroke-dasharray:4;}.c{stroke-linejoin:bevel;}</style></defs><g transform="translate(-2.259 -2.252)"><path class="a" d="M14.755,5.825l8.255,4.766-8.254,4.766L6.5,10.59Z" transform="translate(1.748 1.414)"/><path class="a" d="M19.11,10.5l3.9,2.251-8.254,4.766L6.5,12.751,10.4,10.5" transform="translate(1.748 3.755)"/><path class="a" d="M19.11,13.5l3.9,2.251-8.254,4.766L6.5,15.751,10.4,13.5" transform="translate(1.748 5.258)"/><path class="b" d="M6.926,24.706A13.5,13.5,0,0,1,6.973,5.644" transform="translate(0 1.323)"/><path class="b" d="M18.338,5.626a13.5,13.5,0,0,1,.047,19.118" transform="translate(7.677 1.314)"/><path class="a" d="M5.653,6.918a13.5,13.5,0,0,1,19.062.048" transform="translate(1.324 0)"/><path class="a" d="M24.752,18.331a13.5,13.5,0,0,1-19.118.047" transform="translate(1.315 7.677)"/><path class="a" d="M7.049,7.046H4.927V4.923Z" transform="translate(0.96 0.962)"/><path class="a" d="M19.777,19.774V17.651H17.655Z" transform="translate(7.335 7.337)"/><line class="c" x2="2.565" y2="1.481" transform="translate(13.349 17.206)"/><line class="c" x2="2.565" y2="1.481" transform="translate(13.349 12.697)"/><line class="c" x2="2.565" y2="1.481" transform="translate(13.368 21.728)"/></g></svg>