<svg xmlns="http://www.w3.org/2000/svg" width="28.498" height="28.753" viewBox="0 0 28.498 28.753"><defs><style>.a,.b{fill:none;stroke:#1a8cff;stroke-linecap:round;stroke-width:1.5px;}.a{stroke-linejoin:round;}.b{stroke-linejoin:bevel;}</style></defs><g transform="translate(-2.25 -1.996)"><path class="a" d="M19.75,3,18.591,5.348,16,5.724l1.875,1.828-.443,2.581,1.38-.726.937-.493,2.317,1.218-.443-2.581L23.5,5.724l-2.591-.376L19.75,3" transform="translate(6.499 0)"/><g transform="translate(3.75 21.749)"><path class="a" d="M10.118,20.793a.88.88,0,0,1,.819-.876,3.567,3.567,0,0,0,0-1.335.876.876,0,0,1-.6-1.456,3.791,3.791,0,0,0-.966-.966.876.876,0,0,1-1.456-.6,3.567,3.567,0,0,0-1.335,0,.876.876,0,0,1-1.456.6,3.791,3.791,0,0,0-.966.966.876.876,0,0,1-.6,1.456,3.567,3.567,0,0,0,0,1.335.876.876,0,0,1,.6,1.456,3.791,3.791,0,0,0,.966.966.876.876,0,0,1,1.456.6,3.567,3.567,0,0,0,1.335,0,.876.876,0,0,1,1.456-.6,3.791,3.791,0,0,0,.966-.966A.877.877,0,0,1,10.118,20.793Z" transform="translate(-3.5 -15.5)"/><circle class="a" cx="1.25" cy="1.25" r="1.25" transform="translate(2.5 2.5)"/></g><g transform="translate(8.776 9.414)"><circle class="a" cx="4.094" cy="4.094" r="4.094" transform="translate(3.619)"/><path class="a" d="M6.851,16.882A7,7,0,0,1,11.495,14.4l3.069,6.9,3.07-6.9A7,7,0,0,1,22.7,17.448" transform="translate(-6.851 -3.716)"/><line class="b" x2="3.069" transform="translate(7.713 10.68)"/></g><path class="a" d="M5.1,16.99A10.636,10.636,0,0,1,5,15.5,10.5,10.5,0,0,1,19.874,5.952" transform="translate(1 1)"/><path class="a" d="M26.046,7.71a13.5,13.5,0,0,1-18.4,18.252" transform="translate(2.323 2.354)"/><path class="a" d="M4.681,23.03A13.5,13.5,0,0,1,24.046,5.305" transform="translate(0 0)"/><path class="a" d="M23.577,9.508A10.5,10.5,0,0,1,8.472,22.316" transform="translate(2.735 3.253)"/></g></svg>