<svg xmlns="http://www.w3.org/2000/svg" xmlns:xlink="http://www.w3.org/1999/xlink" version="1.1" id="Layer_1" x="0px" y="0px" width="100px" height="100px" viewBox="0 0 100 100" enable-background="new 0 0 100 100" xml:space="preserve">
<g>
	<path fill="none" d="M29.243,54.563c0.074-1.184,0.926-2.143,2.043-2.364C30.169,52.42,29.317,53.378,29.243,54.563z"/>
	<path fill="none" d="M90.619,71.87c0.967,0,1.754-0.788,1.754-1.755l2.34-13.584c-0.001-0.947-0.788-1.734-1.755-1.734H70.404   L67.462,71.87H90.619z M78.925,62.259c0.465,0,0.841,0.377,0.841,0.841c0,0.465-0.376,0.842-0.841,0.842   c-0.464,0-0.841-0.377-0.841-0.842C78.084,62.636,78.461,62.259,78.925,62.259z"/>
	<rect x="33.694" y="52.15" fill="none" width="32.257" height="0.002"/>
	<path fill="none" d="M67.865,52.15h-0.002c1.359,0,2.467,1.072,2.541,2.414h21.066v-0.002H70.404   C70.33,53.223,69.225,52.15,67.865,52.15z"/>
	<path fill="none" d="M6.932,54.797c-0.967,0-1.754,0.787-1.754,1.754l2.337,13.545c0.002,0.986,0.789,1.774,1.756,1.774h22.913   l-2.946-17.073H6.932z M20.965,63.941c-0.464,0-0.841-0.377-0.841-0.842c0-0.464,0.376-0.841,0.841-0.841   c0.465,0,0.841,0.377,0.841,0.841C21.806,63.564,21.43,63.941,20.965,63.941z"/>
	<path fill="none" d="M67.865,52.451H31.781c-1.244,0-2.255,1.012-2.255,2.255l3.004,17.415c0.003,1.268,1.014,2.281,2.258,2.281   h30.067c1.246,0,2.256-1.012,2.258-2.256l3.009-17.467C70.12,53.463,69.107,52.451,67.865,52.451z M49.822,64.207   c-0.597,0-1.081-0.484-1.081-1.081s0.484-1.081,1.081-1.081c0.597,0,1.081,0.484,1.081,1.081S50.419,64.207,49.822,64.207z"/>
	<circle fill="#000000" cx="20.965" cy="63.1" r="0.841"/>
	<path fill="#000000" d="M31.286,52.198c0.16-0.031,0.325-0.048,0.494-0.048h0.827c-0.302-0.537-0.69-1.16-1.213-1.935   c0,0-0.55-0.75-1.849-1.249c0,0-2.772-0.842-4.086-1.761c0,0.026,0,0.054-0.001,0.081c-0.006,0.361-0.046,0.803-0.103,1.262   c-0.166,1.363-0.473,2.877-0.473,2.877c-0.407-0.67-0.773-1.112-1.095-1.396c-0.444-0.392-0.806-0.483-1.078-0.454   c-0.323,0.033-0.518,0.234-0.574,0.299c1.774-2.166,2.408-4.018,2.464-4.188c-0.012-0.136-0.015-0.279-0.007-0.433   c0,0-0.011-0.191-0.03-0.17c0.509-0.654,0.923-1.198,1.197-1.958c0.468-0.47,0.707-1.607,0.707-1.607   c0.39-1.093,0.149-1.517-0.035-1.675c0.283-0.915,0.896-3.494-0.564-5.136c0,0-0.899-1.237-3.148-1.687c0,0-0.865-0.35-1.211-1.262   c0,0-0.774,0.101-0.774,0.775l-0.375-0.15l-0.346,0.246l-0.403-0.246c0,0-0.148-0.045-0.487,0.075c0,0-2.586,1.123-3.335,3.447   c0,0-0.416,0.988,0.091,3.858c-0.122,0.05-0.665,0.35-0.163,1.754c0,0,0.217,1.029,0.64,1.534c0.239,0.739,0.604,1.452,1.05,2.082   c-0.002-0.001-0.005-0.004-0.007-0.005c0,0,0.056,0.276,0.004,0.662c0.105,0.285,0.944,2.476,2.42,4.131   c-0.078-0.08-0.24-0.211-0.479-0.252c-0.259-0.043-0.609,0.018-1.042,0.366c-0.345,0.278-0.743,0.739-1.188,1.478   c0,0-0.368-1.809-0.517-3.252c-0.035-0.346-0.059-0.671-0.061-0.944c0-0.055,0-0.106,0-0.156c-1.287,0.937-4.149,1.805-4.149,1.805   c-1.299,0.499-1.849,1.25-1.849,1.25c-1.567,2.319-2.007,3.368-2.116,4.347h20.821C29.317,53.378,30.169,52.42,31.286,52.198z"/>
	<path fill="#000000" d="M92.197,72.486H67.379c0.014-0.104,0.031-0.209,0.031-0.315l0.012-0.067h23.197   c1.097,0,1.988-0.892,1.986-1.969l2.34-13.584c0-1.096-0.893-1.988-1.987-1.988h-1.487v0.002H70.404   c-0.074-1.342-1.182-2.414-2.541-2.414h-0.578h-0.001h-1.333v0.002H33.694V52.15h-0.001h-1.086H31.78   c-0.169,0-0.334,0.017-0.494,0.048c-1.117,0.222-1.969,1.181-2.043,2.364H8.422H8.421H6.932c-1.096,0-1.988,0.893-1.986,2.008   l2.337,13.545c0,1.097,0.892,1.986,1.988,1.986h22.953l0.008,0.045c0,0.115,0.019,0.228,0.034,0.34H7.692   c-0.258,0-0.468,0.209-0.468,0.468s0.209,0.467,0.468,0.467h24.893c0.443,0.763,1.259,1.281,2.203,1.281h30.069   c0.947,0,1.766-0.522,2.205-1.281h25.135c0.26,0,0.469-0.208,0.469-0.467S92.456,72.486,92.197,72.486z M92.958,54.797   c0.967,0,1.754,0.787,1.755,1.734l-2.34,13.584c0,0.967-0.787,1.755-1.754,1.755H67.462l2.942-17.073H92.958z M9.271,71.87   c-0.967,0-1.754-0.788-1.756-1.774L5.178,56.551c0-0.967,0.787-1.754,1.754-1.754h22.306l2.946,17.073H9.271z M64.855,74.402   H34.788c-1.244,0-2.255-1.014-2.258-2.281l-3.004-17.415c0-1.243,1.011-2.255,2.255-2.255h36.084c1.242,0,2.255,1.012,2.257,2.229   l-3.009,17.467C67.111,73.391,66.102,74.402,64.855,74.402z"/>
	<circle fill="#000000" cx="78.925" cy="63.1" r="0.841"/>
	<path fill="#000000" d="M67.865,52.15c1.359,0,2.465,1.072,2.539,2.412h21.066c-0.109-0.979-0.55-2.027-2.117-4.347   c0,0-0.549-0.75-1.849-1.249c0,0-2.771-0.842-4.086-1.761c0,0.026,0,0.054-0.001,0.081c-0.007,0.361-0.047,0.803-0.104,1.262   c-0.166,1.363-0.474,2.877-0.474,2.877c-0.405-0.67-0.772-1.112-1.096-1.396c-0.444-0.392-0.808-0.483-1.078-0.454   c-0.321,0.033-0.519,0.234-0.573,0.299c1.774-2.166,2.408-4.018,2.465-4.188c-0.013-0.136-0.017-0.279-0.008-0.433   c0,0-0.011-0.191-0.029-0.17c0.51-0.654,0.922-1.198,1.196-1.958c0.468-0.47,0.707-1.607,0.707-1.607   c0.39-1.093,0.147-1.517-0.034-1.675c0.281-0.915,0.896-3.494-0.564-5.136c0,0-0.898-1.237-3.148-1.687c0,0-0.865-0.35-1.211-1.262   c0,0-0.775,0.101-0.775,0.775l-0.373-0.15l-0.346,0.246l-0.404-0.246c0,0-0.147-0.045-0.486,0.075c0,0-2.586,1.123-3.336,3.447   c0,0-0.416,0.988,0.091,3.858c-0.122,0.05-0.664,0.35-0.163,1.754c0,0,0.219,1.029,0.643,1.534   c0.238,0.739,0.603,1.452,1.049,2.082c-0.002-0.001-0.004-0.004-0.008-0.005c0,0,0.057,0.276,0.006,0.662   c0.104,0.285,0.943,2.476,2.42,4.131c-0.077-0.08-0.239-0.211-0.479-0.252c-0.26-0.043-0.609,0.018-1.043,0.366   c-0.345,0.278-0.742,0.739-1.188,1.478c0,0-0.367-1.809-0.518-3.252c-0.035-0.346-0.058-0.671-0.061-0.944   c-0.001-0.055,0-0.106,0-0.156c-1.287,0.937-4.148,1.805-4.148,1.805c-1.3,0.499-1.85,1.25-1.85,1.25   c-0.523,0.775-0.911,1.397-1.213,1.935h0.578H67.865z"/>
	<path fill="#000000" d="M66.887,75.193H32.758c-0.332,0-0.602,0.271-0.602,0.603s0.27,0.601,0.602,0.601h34.127   c0.333,0,0.602-0.269,0.602-0.601S67.219,75.193,66.887,75.193z"/>
	<circle fill="#000000" cx="49.822" cy="63.126" r="1.081"/>
	<path fill="#000000" d="M65.951,52.15c-0.141-1.258-0.705-2.606-2.721-5.588c0,0-0.705-0.964-2.377-1.606   c0,0-3.563-1.082-5.252-2.264c0,0.034-0.002,0.069-0.002,0.104c-0.01,0.463-0.062,1.033-0.134,1.622   c-0.213,1.752-0.606,3.699-0.606,3.699c-0.523-0.861-0.994-1.431-1.409-1.794c-0.571-0.503-1.036-0.621-1.386-0.583   c-0.416,0.042-0.666,0.301-0.738,0.385c2.281-2.785,3.097-5.166,3.169-5.384c-0.015-0.175-0.021-0.359-0.009-0.556   c0,0-0.014-0.245-0.039-0.219c0.654-0.84,1.187-1.54,1.539-2.518c0.602-0.603,0.908-2.066,0.908-2.066   c0.502-1.405,0.191-1.95-0.045-2.152c0.363-1.176,1.151-4.493-0.726-6.604c0,0-1.157-1.591-4.048-2.168c0,0-1.112-0.45-1.559-1.623   c0,0-0.996,0.129-0.996,0.997l-0.481-0.193l-0.445,0.315l-0.519-0.315c0,0-0.19-0.058-0.627,0.096c0,0-3.325,1.445-4.289,4.432   c0,0-0.534,1.27,0.118,4.96c-0.158,0.063-0.855,0.449-0.21,2.255c0,0,0.279,1.324,0.824,1.972c0.307,0.95,0.776,1.868,1.35,2.677   c-0.003-0.002-0.006-0.005-0.009-0.008c0,0,0.072,0.356,0.006,0.852c0.135,0.365,1.213,3.182,3.112,5.311   c-0.1-0.102-0.308-0.272-0.616-0.324c-0.333-0.056-0.783,0.023-1.34,0.471c-0.443,0.358-0.955,0.951-1.528,1.898   c0,0-0.472-2.324-0.664-4.181c-0.046-0.445-0.075-0.863-0.079-1.215c0-0.07,0-0.137,0.001-0.201   c-1.654,1.205-5.335,2.321-5.335,2.321c-1.67,0.643-2.377,1.606-2.377,1.606c-2.014,2.983-2.58,4.332-2.721,5.589h0.001H65.951z"/>
</g>
</svg>