<svg xmlns="http://www.w3.org/2000/svg" width="39.54" height="39.245" viewBox="0 0 39.54 39.245"><defs><style>.a,.b{fill:none;stroke:#1a8cff;stroke-linecap:round;stroke-width:2px;}.a{stroke-linejoin:round;}.b{stroke-linejoin:bevel;}</style></defs><g transform="translate(-2.488 -2.499)"><path class="a" d="M24.6,3.5a3.3,3.3,0,0,1,3.3,3.3V23.09a3.3,3.3,0,0,1-3.3,3.3H7.3L3.488,29.443V6.8a3.3,3.3,0,0,1,3.3-3.3Z" transform="translate(0 0)"/><path class="a" d="M20.745,11.687h9.308l3.816-3.052V31.278a3.3,3.3,0,0,1-3.3,3.3H12.753a3.3,3.3,0,0,1-3.3-3.3V20.441" transform="translate(7.16 6.166)"/><path class="a" d="M14.529,5.967h5.5a3.3,3.3,0,0,1,3.3,3.3v5.5" transform="translate(13.254 2.963)"/><g transform="translate(7.809 9.002)"><line class="b" x2="15.617" transform="translate(0 0)"/><line class="b" x2="15.617" transform="translate(0 5.502)"/><line class="b" x2="5.501" transform="translate(0 11.002)"/><line class="b" x2="2.082" transform="translate(9.986 11.002)"/></g><path class="a" d="M14.254,22.8h-5.5a3.3,3.3,0,0,1-3.3-3.3V14" transform="translate(2.358 12.606)"/><g transform="translate(20.567 24.406)"><line class="b" x2="8.553" transform="translate(7.063)"/><line class="b" x2="15.617" transform="translate(0 5.502)"/><line class="b" x2="5.501" transform="translate(0 11.002)"/><line class="b" x2="2.082" transform="translate(9.986 11.002)"/></g></g></svg>