<svg xmlns="http://www.w3.org/2000/svg" width="70" height="70" viewBox="0 0 70 70"><defs><style>.a{fill:#14c784;}.b{fill:none;opacity:0;}</style></defs><g transform="translate(-748 -444)"><g transform="translate(748 444)"><path class="a" d="M56.966,25.468,53,20.865a6.457,6.457,0,0,1-1.369-3.671V12.242A5.644,5.644,0,0,0,46.012,6.62H41.06A6.535,6.535,0,0,1,37.39,5.251l-4.6-3.962a5.87,5.87,0,0,0-7.341,0L20.872,5.28A6.72,6.72,0,0,1,17.2,6.62h-5.04A5.644,5.644,0,0,0,6.54,12.242v4.981A6.629,6.629,0,0,1,5.2,20.865L1.267,25.5a5.865,5.865,0,0,0,0,7.283L5.2,37.412a6.629,6.629,0,0,1,1.34,3.641v4.981a5.644,5.644,0,0,0,5.622,5.622H17.2a6.535,6.535,0,0,1,3.671,1.369l4.6,3.962a5.87,5.87,0,0,0,7.341,0l4.6-3.962a6.457,6.457,0,0,1,3.671-1.369h4.952a5.644,5.644,0,0,0,5.622-5.622V41.082a6.535,6.535,0,0,1,1.369-3.671l3.962-4.6A5.91,5.91,0,0,0,56.966,25.468ZM41.235,23.633,27.165,37.7a2.18,2.18,0,0,1-3.088,0l-7.05-7.05a2.183,2.183,0,0,1,3.088-3.088l5.506,5.506L38.147,20.545a2.183,2.183,0,0,1,3.088,3.088Z" transform="translate(5.884 5.862)"/><path class="b" d="M0,0H70V70H0Z" transform="translate(70 70) rotate(180)"/></g></g></svg>