<svg xmlns="http://www.w3.org/2000/svg" width="38.733" height="39.66" viewBox="0 0 38.733 39.66"><defs><style>.a,.b{fill:none;stroke:#1a8cff;stroke-linecap:round;stroke-width:2px;}.a{stroke-linejoin:round;}.b{stroke-linejoin:bevel;}</style></defs><g transform="translate(-1.586 -2)"><path class="a" d="M14.823,19.322h6.9a1.941,1.941,0,0,0,1.82-2.042h0a1.941,1.941,0,0,0-1.82-2.042H11.069a5.061,5.061,0,0,0-3.11,1.091L4.121,19.569" transform="translate(1.169 12.755)"/><path class="a" d="M7,27.259l4.085-2.042h12.24A8.337,8.337,0,0,0,29.8,22.135l4.873-6a1.619,1.619,0,0,0-.112-2.165h0a1.614,1.614,0,0,0-2.136-.133l-5.234,5.433a6.132,6.132,0,0,1-4.413,1.877H18.1" transform="translate(4.169 10.944)"/><line class="b" x2="10.211" y2="10.212" transform="translate(3 30.034)"/><path class="b" d="M10.814,13.533" transform="translate(8.145 10.979)"/><g transform="translate(11.229 3)"><path class="a" d="M23.387,13.9V6.811H19.2V11H15.006v4.189H10.815v4.26h10.2a2.376,2.376,0,0,0,2.375-2.375V13.1" transform="translate(-3.083 0.972)"/><path class="a" d="M7.029,8.537v7.091H11.22V11.437h4.191V7.246H19.6V3.057L9.416,3A2.375,2.375,0,0,0,7.029,5.375V9.341" transform="translate(-7.029 -3)"/><path class="a" d="M0,0H3.866a0,0,0,0,1,0,0V3.866a0,0,0,0,1,0,0h-2.7A1.163,1.163,0,0,1,0,2.7V0A0,0,0,0,1,0,0Z" transform="translate(0.001 16.557)"/><path class="a" d="M0,0H2.7A1.163,1.163,0,0,1,3.866,1.163v2.7a0,0,0,0,1,0,0H0a0,0,0,0,1,0,0V0A0,0,0,0,1,0,0Z" transform="translate(16.432 0)"/></g></g></svg>