<svg xmlns="http://www.w3.org/2000/svg" width="27.5" height="32.5" viewBox="0 0 27.5 32.5"><defs><style>.a,.b{fill:none;stroke:#1a8cff;stroke-linecap:round;stroke-width:1.5px;}.a{stroke-linejoin:round;}.b{stroke-linejoin:bevel;}</style></defs><g transform="translate(-3.75 -2.25)"><rect class="a" width="26" height="31" rx="1.5" transform="translate(4.5 3)"/><line class="b" x2="9" transform="translate(8.5 16)"/><line class="b" x2="18" transform="translate(8.5 12)"/><line class="b" x2="26" transform="translate(4.5 8)"/><line class="b" x2="2" transform="translate(8.5 6)"/><line class="b" x2="2.551" transform="translate(13.285 5.551)"/><path class="a" d="M14.152,23.2H23.5a1.7,1.7,0,0,0,1.7-1.7V14.7A1.7,1.7,0,0,0,23.5,13H20.7L11,23.2H8.2a1.7,1.7,0,0,1-1.7-1.7V14.7A1.7,1.7,0,0,1,8.2,13h9.352" transform="translate(1.401 7.004)"/><path class="a" d="M13.5,14.5,16.05,17.05,13.5,19.6" transform="translate(6.304 8.055)"/><path class="a" d="M11.55,14.5,9,17.05l2.55,2.55" transform="translate(3.152 8.055)"/></g></svg>