<svg xmlns="http://www.w3.org/2000/svg" width="29.117" height="28.807" viewBox="0 0 29.117 28.807"><defs><style>.a,.b,.c{fill:none;stroke:#1a8cff;stroke-linecap:round;stroke-width:1.5px;}.a{stroke-linejoin:round;}.b,.c{stroke-linejoin:bevel;}.c{stroke-dasharray:2;}</style></defs><g transform="translate(-2.439 -2.439)"><path class="a" d="M3.5,7.47V3.5H7.47" transform="translate(0 0)"/><line class="b" x2="3.338" y2="3.379" transform="translate(3.5 3.5)"/><path class="a" d="M3.5,7.949v3.97H7.47" transform="translate(0 2.616)"/><line class="b" y1="3.379" x2="3.338" transform="translate(3.5 11.157)"/><path class="a" d="M21.921,7.949v3.97H18" transform="translate(8.526 2.616)"/><line class="b" x1="3.338" y1="3.379" transform="translate(27.109 11.157)"/><path class="a" d="M21.97,7.47V3.5H18" transform="translate(8.526 0)"/><line class="b" y1="3.379" x2="3.338" transform="translate(27.158 3.5)"/><g transform="translate(8.174 13.822)"><circle class="a" cx="3.882" cy="3.882" r="3.882" transform="translate(4.942)"/><path class="a" d="M6.443,22.924a6.6,6.6,0,0,1,5.915-6.547l2.909,6.547,2.909-6.547a6.6,6.6,0,0,1,5.915,6.547Z" transform="translate(-6.443 -6.25)"/></g><path class="c" d="M7.16,3.5" transform="translate(2.152 0)"/><g transform="translate(10.646 6.315)"><path class="a" d="M14.5,5.424l2.382,2.382L14.5,10.188" transform="translate(-4.178 -5.184)"/><path class="a" d="M10.382,5.424,8,7.806l2.381,2.382" transform="translate(-8 -5.184)"/><line class="b" x1="3.176" y2="4.764" transform="translate(4.764)"/></g><line class="b" x2="2.91" transform="translate(13.955 23.949)"/></g></svg>