<svg xmlns="http://www.w3.org/2000/svg" width="42.906" height="39.303" viewBox="0 0 42.906 39.303"><defs><style>.a{fill:none;stroke:#1a8cff;stroke-linecap:round;stroke-linejoin:round;stroke-width:2px;}</style></defs><g transform="translate(-1.336 -2.35)"><path class="a" d="M14.316,16.2l6.3,6.3a2.227,2.227,0,0,0,3.148,0h0a2.226,2.226,0,0,0,0-3.15L15.978,11.56" transform="translate(13.491 9.577)"/><path class="a" d="M12.863,17.148l7.871,7.873a2.229,2.229,0,0,0,3.15,0h0a2.227,2.227,0,0,0,0-3.148l-8.439-8.43" transform="translate(11.796 11.773)"/><path class="a" d="M11.2,18.125l6.757,6.76a2.229,2.229,0,0,0,3.15,0h0a2.229,2.229,0,0,0,0-3.15L14.278,14.91" transform="translate(9.853 13.485)"/><path class="a" d="M13.231,24.726a2.226,2.226,0,0,0,3.15,0h0a2.227,2.227,0,0,0,0-3.148L11.2,16.394" transform="translate(9.853 15.216)"/><g transform="translate(5.25 25.639)"><path class="a" d="M13.639,18h0a2.223,2.223,0,0,1,0,3.148l-1.573,1.575a2.229,2.229,0,0,1-3.15,0h0a2.227,2.227,0,0,1,0-3.148" transform="translate(1.182 -8.552)"/><path class="a" d="M12.186,16.544h0a2.229,2.229,0,0,1,0,3.15l-1.575,1.575a2.227,2.227,0,0,1-3.148,0h0a2.229,2.229,0,0,1,0-3.15" transform="translate(-0.513 -10.248)"/><path class="a" d="M10.734,15.091a2.227,2.227,0,0,1,0,3.148L9.159,19.814a2.223,2.223,0,0,1-3.148,0h0a2.223,2.223,0,0,1,0-3.148" transform="translate(-2.209 -11.943)"/><path class="a" d="M9.279,13.638h0a2.223,2.223,0,0,1,0,3.148L7.706,18.361a2.229,2.229,0,0,1-3.15,0h0a2.229,2.229,0,0,1,0-3.15" transform="translate(-3.904 -13.638)"/></g><path class="a" d="M23.782,6.386,22.731,7.437l-5.509.626L7.776,17.509h0a4.452,4.452,0,0,0,6.3,0l3.148-3.148h3.15" transform="translate(5.862 3.541)"/><path class="a" d="M20.618,20.024l1.344-1.344-.039-2.826,1.642-1.683L17.274,7.879" transform="translate(16.942 5.283)"/><path class="a" d="M6.767,17.356,4.7,12.14,3.125,10.566" transform="translate(0.437 8.417)"/><path class="a" d="M12.424,8.259l-2.074.022L8.018,5.948" transform="translate(6.144 3.031)"/><path class="a" d="M14.4,7.462,18.516,3.35,29.234,14.068" transform="translate(13.595)"/><path class="a" d="M2.75,13.963l10.5-10.5L16.494,6.7,7.048,16.144" transform="translate(0 0.126)"/></g></svg>