<svg xmlns="http://www.w3.org/2000/svg" width="90" height="90" viewBox="0 0 90 90"><path d="M18.173 22.665L.5 28.18l11.38 36.46 6.293-1.963zM70.995 43.857V73.21H48.56l-1.996 6.067 30.068 9.868L89.5 49.932zM68.498 70.6H20.783V.595h47.715V70.6zm-44.394-3.323h41.074V3.917H24.104v63.36zM29.28 15.15H60v2.082H29.28zM29.28 19.986H60v2.082H29.28zM29.28 25.114H60v2.08H29.28zM29.28 29.952H60v2.08H29.28zM44.368 57.577v-1.772c-1.25-.054-2.46-.39-3.17-.802l.56-2.18c.782.43 1.882.82 3.094.82 1.063 0 1.79-.41 1.79-1.157 0-.71-.596-1.155-1.976-1.625-1.994-.667-3.356-1.6-3.356-3.407 0-1.643 1.155-2.928 3.15-3.32V42.36h1.826v1.642c1.25.057 2.09.318 2.705.615l-.54 2.107c-.485-.205-1.343-.636-2.685-.636-1.214 0-1.604.522-1.604 1.045 0 .616.653 1.01 2.24 1.604 2.218.783 3.112 1.81 3.112 3.486 0 1.66-1.173 3.075-3.32 3.45v1.9h-1.825v.004z"/></svg>