<svg xmlns="http://www.w3.org/2000/svg" width="100" height="85.511" viewBox="0 0 100 85.511"><g fill="#010101"><path d="M45.172 17.244h49.344c3.027 0 5.484-2.453 5.484-5.483s-2.458-5.483-5.484-5.483H45.172c-3.03 0-5.483 2.454-5.483 5.484 0 3.032 2.455 5.484 5.482 5.484zM94.516 39.175H45.172c-3.03 0-5.483 2.453-5.483 5.482 0 3.032 2.455 5.484 5.482 5.484h49.344c3.027 0 5.484-2.452 5.484-5.483 0-3.03-2.457-5.482-5.484-5.482zM94.516 72.07H45.172c-3.03 0-5.483 2.452-5.483 5.485 0 3.03 2.455 5.48 5.482 5.48h49.344c3.027 0 5.484-2.45 5.484-5.48 0-3.033-2.457-5.484-5.484-5.484zM22.718 7.588h-6.652l-2.053-6.324C13.768.51 13.068 0 12.275 0c-.792 0-1.492.51-1.738 1.264l-2.06 6.324H1.83c-.792 0-1.495.51-1.742 1.264-.242.754.025 1.578.664 2.042l5.384 3.91L4.08 21.13c-.242.75.022 1.577.664 2.04.64.467 1.507.467 2.15 0l5.382-3.91 5.383 3.91c.32.236.698.35 1.073.35.374 0 .753-.114 1.074-.35.643-.463.907-1.29.665-2.04l-2.057-6.325 5.384-3.91c.637-.465.904-1.29.663-2.043-.248-.753-.95-1.264-1.745-1.264zM18.403 36.7H6.147c-1.01 0-1.828.818-1.828 1.83v12.256c0 1.01.817 1.826 1.827 1.826h12.256c1.01 0 1.827-.815 1.827-1.826V38.53c0-1.01-.816-1.83-1.827-1.83zM18.403 69.598H6.147c-1.01 0-1.828.817-1.828 1.827v12.257c0 1.013.817 1.83 1.827 1.83h12.256c1.01 0 1.827-.817 1.827-1.83V71.425c0-1.01-.816-1.827-1.827-1.827z"/></g></svg>