<svg xmlns="http://www.w3.org/2000/svg" width="100" height="100" viewBox="0 0 100 100"><path d="M29.243 54.563c.074-1.184.926-2.143 2.043-2.364-1.117.22-1.97 1.178-2.043 2.363zM90.62 71.87c.966 0 1.753-.788 1.753-1.755l2.34-13.584c0-.946-.788-1.733-1.755-1.733H70.404L67.462 71.87H90.62zm-11.695-9.61c.465 0 .84.376.84.84 0 .465-.375.842-.84.842-.464 0-.84-.377-.84-.842 0-.464.376-.84.84-.84zM33.694 52.15H65.95v.002H33.695zM67.865 52.15h-.002c1.36 0 2.467 1.072 2.54 2.414H91.47v-.002H70.404c-.074-1.34-1.18-2.412-2.54-2.412zM6.932 54.797c-.967 0-1.754.787-1.754 1.754l2.337 13.546c.002.986.79 1.774 1.756 1.774h22.914l-2.946-17.073H6.932zm14.033 9.144c-.464 0-.84-.376-.84-.84 0-.465.375-.842.84-.842.465 0 .84.377.84.84 0 .466-.375.843-.84.843zM67.865 52.45H31.78c-1.243 0-2.254 1.013-2.254 2.256L32.53 72.12c.003 1.27 1.014 2.282 2.258 2.282h30.067c1.246 0 2.256-1.012 2.258-2.256l3.01-17.467c-.003-1.217-1.016-2.23-2.258-2.23zM49.822 64.208c-.597 0-1.08-.484-1.08-1.08s.483-1.082 1.08-1.082c.597 0 1.08.484 1.08 1.08s-.483 1.082-1.08 1.082z" fill="none"/><circle cx="20.965" cy="63.1" r=".841"/><path d="M31.286 52.198c.16-.03.325-.048.494-.048h.827c-.302-.537-.69-1.16-1.213-1.935 0 0-.55-.75-1.85-1.25 0 0-2.77-.84-4.085-1.76 0 .026 0 .054-.002.08-.006.362-.046.804-.103 1.263-.166 1.363-.473 2.877-.473 2.877-.407-.67-.773-1.112-1.095-1.396-.444-.393-.806-.484-1.078-.455-.324.033-.52.234-.575.3 1.774-2.167 2.408-4.02 2.464-4.19-.013-.135-.016-.278-.008-.432 0 0-.01-.19-.03-.17.51-.654.923-1.198 1.197-1.958.467-.47.706-1.607.706-1.607.39-1.093.15-1.517-.035-1.675.284-.915.897-3.494-.563-5.136 0 0-.9-1.237-3.148-1.687 0 0-.866-.35-1.212-1.262 0 0-.774.1-.774.775l-.375-.15-.347.246-.403-.247s-.148-.045-.487.075c0 0-2.586 1.123-3.335 3.447 0 0-.416.988.09 3.858-.12.05-.664.35-.162 1.754 0 0 .217 1.03.64 1.534.24.74.604 1.453 1.05 2.083-.002 0-.005-.004-.007-.005 0 0 .055.276.003.662.105.285.944 2.476 2.42 4.13-.078-.08-.24-.21-.48-.25-.258-.044-.608.017-1.04.365-.346.278-.744.74-1.19 1.478 0 0-.367-1.81-.516-3.252-.035-.345-.06-.67-.06-.943v-.156c-1.288.938-4.15 1.806-4.15 1.806-1.3.5-1.85 1.25-1.85 1.25-1.566 2.32-2.006 3.368-2.115 4.347h20.82c.075-1.185.927-2.143 2.044-2.365zM92.197 72.486H67.38c.013-.104.03-.21.03-.315l.012-.066H90.62c1.096 0 1.987-.892 1.985-1.97l2.34-13.583c0-1.095-.893-1.987-1.987-1.987H91.47v.002H70.405c-.074-1.342-1.182-2.414-2.54-2.414H65.95v.003H33.695v-.003H31.78c-.17 0-.334.017-.494.048-1.117.222-1.97 1.18-2.043 2.364H6.933c-1.096 0-1.988.893-1.986 2.008l2.337 13.545c0 1.097.892 1.986 1.988 1.986h22.954l.008.046c0 .115.02.228.034.34H7.692c-.258 0-.468.21-.468.468s.21.467.468.467h24.893c.443.764 1.26 1.282 2.203 1.282h30.07c.946 0 1.765-.522 2.204-1.28h25.135c.26 0 .47-.21.47-.468s-.21-.468-.47-.468zm.76-17.69c.968 0 1.755.788 1.756 1.735l-2.34 13.585c0 .967-.787 1.755-1.754 1.755H67.46l2.942-17.073h22.554zM9.272 71.87c-.966 0-1.753-.788-1.755-1.774L5.178 56.55c0-.966.787-1.753 1.754-1.753h22.306l2.946 17.073H9.27zm55.585 2.532H34.788c-1.244 0-2.255-1.014-2.258-2.28l-3.004-17.416c0-1.243 1.01-2.255 2.255-2.255h36.085c1.242 0 2.255 1.013 2.257 2.23l-3.01 17.467c0 1.244-1.01 2.255-2.257 2.255z"/><circle cx="78.925" cy="63.1" r=".841"/><path d="M67.865 52.15c1.36 0 2.465 1.072 2.54 2.412H91.47c-.11-.98-.55-2.027-2.117-4.347 0 0-.55-.75-1.85-1.25 0 0-2.77-.84-4.085-1.76v.08c-.008.362-.048.804-.105 1.263-.166 1.363-.474 2.877-.474 2.877-.406-.67-.773-1.112-1.097-1.396-.444-.393-.808-.484-1.078-.455-.32.033-.52.234-.573.3 1.774-2.167 2.408-4.02 2.465-4.19-.013-.135-.017-.278-.008-.432 0 0-.012-.19-.03-.17.51-.654.922-1.198 1.196-1.958.468-.47.707-1.607.707-1.607.39-1.093.147-1.517-.034-1.675.28-.915.895-3.494-.565-5.136 0 0-.898-1.237-3.148-1.687 0 0-.865-.35-1.21-1.262 0 0-.776.1-.776.775l-.372-.15-.346.246-.404-.247s-.147-.045-.486.075c0 0-2.586 1.123-3.336 3.447 0 0-.416.988.09 3.858-.12.05-.663.35-.162 1.754 0 0 .22 1.03.643 1.534.238.74.603 1.453 1.05 2.083-.003 0-.005-.004-.01-.005 0 0 .058.276.007.662.104.285.943 2.476 2.42 4.13-.077-.08-.24-.21-.48-.25-.26-.044-.608.017-1.042.365-.345.278-.742.74-1.188 1.478 0 0-.367-1.81-.518-3.252-.035-.345-.058-.67-.06-.943-.002-.055 0-.106 0-.156-1.288.938-4.15 1.806-4.15 1.806-1.3.5-1.85 1.25-1.85 1.25-.522.775-.91 1.397-1.212 1.935h.581zM66.887 75.193h-34.13c-.33 0-.6.27-.6.603s.27.6.6.6h34.128c.333 0 .602-.268.602-.6s-.268-.603-.6-.603z"/><circle cx="49.822" cy="63.126" r="1.081"/><path d="M65.95 52.15c-.14-1.258-.704-2.606-2.72-5.588 0 0-.705-.964-2.377-1.606 0 0-3.563-1.082-5.252-2.264v.104c-.01.463-.063 1.033-.135 1.622-.213 1.752-.606 3.7-.606 3.7-.524-.862-.995-1.432-1.41-1.795-.57-.503-1.036-.62-1.386-.583-.416.042-.666.3-.738.385 2.28-2.785 3.097-5.166 3.17-5.384-.016-.174-.022-.358-.01-.555 0 0-.014-.245-.04-.22.655-.84 1.188-1.54 1.54-2.517.602-.603.908-2.066.908-2.066.502-1.405.19-1.95-.045-2.152.362-1.176 1.15-4.493-.727-6.604 0 0-1.157-1.59-4.048-2.168 0 0-1.112-.45-1.56-1.623 0 0-.995.13-.995.997l-.48-.193-.446.314-.52-.315s-.19-.06-.626.095c0 0-3.325 1.445-4.29 4.432 0 0-.533 1.27.12 4.96-.16.063-.856.45-.21 2.255 0 0 .278 1.324.823 1.972.308.95.777 1.868 1.35 2.677-.002 0-.005-.004-.008-.007 0 0 .072.356.006.852.135.365 1.213 3.182 3.112 5.31-.1-.1-.308-.27-.616-.323-.333-.056-.783.023-1.34.47-.443.36-.955.952-1.528 1.9 0 0-.472-2.325-.664-4.182-.046-.445-.075-.863-.08-1.215 0-.07 0-.137.002-.2-1.654 1.204-5.335 2.32-5.335 2.32-1.67.643-2.378 1.606-2.378 1.606-2.014 2.984-2.58 4.333-2.72 5.59h32.26z"/></svg>