<svg xmlns="http://www.w3.org/2000/svg" width="100" height="100" viewBox="0 0 100 100" fill="#fff"><path d="M7 92V0H0v100h100v-8zm86-67.565c0 1.604-1.3 2.904-2.904 2.904H69.404c-1.604 0-2.904-1.3-2.904-2.906V13c0-1.604 1.3-2.904 2.904-2.904h20.69C91.7 10.096 93 11.396 93 13v11.435zM79.75 18.3c-3.825 0-6.938-3.112-6.938-6.938s3.112-6.938 6.938-6.938 6.938 3.112 6.938 6.938S83.575 18.3 79.75 18.3zm0-10.875c-2.17 0-3.938 1.767-3.938 3.938S77.58 15.3 79.75 15.3s3.938-1.767 3.938-3.938-1.767-3.937-3.938-3.937zM14.845 86.272l-3.69-1.544 10.33-24.677 10.41 13.53L45.9 52.81l10.21 6.126 12.74-14.21 9.856 2.885 8.003-16.004 3.58 1.79-9.5 18.994-10.645-3.117-13.26 14.79-9.79-5.873-14.99 22.23-9.592-12.47z"/></svg>