<svg xmlns="http://www.w3.org/2000/svg" xmlns:xlink="http://www.w3.org/1999/xlink" version="1.1" id="Layer_1" x="0px" y="0px" width="100px" height="100px" viewBox="0 0 100 100" enable-background="new 0 0 100 100" fill="#fff" xml:space="preserve">
<polygon points="7,92 7,0 0,0 0,100 100,100 100,92 "/>
<path d="M93,24.435c0,1.604-1.301,2.904-2.904,2.904H69.404c-1.604,0-2.904-1.3-2.904-2.904V13c0-1.604,1.301-2.904,2.904-2.904  h20.691c1.604,0,2.904,1.3,2.904,2.904V24.435z"/>
<path d="M79.75,18.3c-3.825,0-6.938-3.112-6.938-6.938s3.112-6.938,6.938-6.938s6.938,3.112,6.938,6.938S83.575,18.3,79.75,18.3z   M79.75,7.425c-2.171,0-3.938,1.767-3.938,3.938S77.579,15.3,79.75,15.3s3.938-1.767,3.938-3.938S81.921,7.425,79.75,7.425z"/>
<polygon points="14.845,86.272 11.155,84.728 21.485,60.051 31.894,73.581 45.902,52.81 56.113,58.936 68.853,44.727 78.708,47.611   86.711,31.605 90.289,33.395 80.792,52.389 70.147,49.273 56.887,64.064 47.098,58.19 32.106,80.419 22.515,67.949 "/>
</svg>