<svg xmlns="http://www.w3.org/2000/svg" width="100" height="100" fill="#fff" viewBox="0 0 100 100"><path d="M50.122 41.04c7.87 0 14.25-6.388 14.25-14.252 0-7.875-6.382-14.25-14.25-14.25s-14.25 6.374-14.25 14.25c0 7.864 6.382 14.253 14.25 14.253zM27.8 100V87.354l-12.68 3.53c-.932.37-1.943.576-3 .576-4.484 0-8.12-3.646-8.12-8.124 0-1.688.512-3.25 1.387-4.544L25.73 50.9c2.208-3.027 5.292-6.397 11.796-6.397H62.12c6.5 0 9.587 3.37 11.793 6.396l20.34 27.892c.876 1.295 1.39 2.856 1.39 4.544 0 4.48-3.64 8.125-8.12 8.125-1.055 0-2.07-.206-2.998-.576l-12.686-3.53V100H27.8zm22.022-8.835l16.433-5.437-.37-.104c-11.34-3.336-6.924-18.316 4.412-14.972l1.55.52V54.26l-22.025 7.195-22.024-7.195v16.916l1.542-.52c11.345-3.346 15.758 11.635 4.414 14.973l-.363.102 16.432 5.435zM14.6 36.034c.506 1.087 1.725 1.79 3.105 1.79h.003c1.378 0 2.597-.703 3.104-1.79l.35-.752H14.25l.352.752zM21.483 31.167H13.96c-.515 0-.828.226-1 .415-.217.24-.336.567-.335.92 0 .376.133.72.376.963.244.244.576.373.96.373h7.523c.787 0 1.336-.55 1.336-1.336-.003-.786-.55-1.335-1.337-1.335zM22.52 27.223h-9.597c-.786.002-1.334.55-1.334 1.337 0 .787.548 1.336 1.333 1.336h9.595c.787 0 1.336-.55 1.336-1.335 0-.376-.133-.72-.376-.964-.244-.244-.575-.373-.96-.373zM26.435 3.586C24.16 1.313 21.128.06 17.9.06 11.263.06 5.86 5.46 5.86 12.1c0 3.25 1.348 6.41 3.656 8.628.597.717.967 1.685 1.092 4.51.04.896.688 1.52 1.658 1.52h.005c.45-.02.85-.197 1.13-.502.277-.303.413-.704.392-1.16-.146-3.275-.667-5.04-1.96-6.553-1.77-1.688-2.785-4.036-2.785-6.442 0-4.88 3.97-8.853 8.85-8.853 4.898 0 8.88 3.973 8.88 8.854 0 2.407-1.015 4.756-2.823 6.485-1.254 1.47-1.774 3.235-1.92 6.514-.04.92.6 1.62 1.52 1.66l.082.003c.89 0 1.54-.626 1.58-1.523.127-2.825.497-3.793 1.054-4.468 2.35-2.262 3.697-5.422 3.696-8.67-.002-3.22-1.256-6.243-3.53-8.516zm-2.802 22.64v.007-.008z"/></svg>