<svg xmlns="http://www.w3.org/2000/svg" width="100" height="100" fill="#fff" viewBox="0 0 100 100"><path d="M72.866 46.958c.255-.496.185-1.1-.176-1.523l-6.554-7.785 3.83-9.43c.206-.51.09-1.106-.3-1.5-.396-.394-.993-.514-1.503-.303l-9.435 3.825-7.78-6.55c-.428-.36-1.028-.427-1.522-.173-.497.25-.792.775-.758 1.33l.73 10.15-8.634 5.376c-.476.297-.733.848-.64 1.394.05.294.182.56.386.766.178.175.4.3.646.366l4.71 1.166c-.044.04-.096.08-.137.12L27.88 62.043c-.01.01-.02.016-.03.025L4.992 84.927c-.777.777-.777 2.05 0 2.828l3.6 3.598c.777.777 2.05.777 2.828 0l22.864-22.857c.01-.01.017-.02.025-.03l17.85-17.85c.05-.05.094-.11.14-.165l1.184 4.77c.13.54.578.947 1.13 1.04.552.087 1.102-.16 1.392-.64l5.38-8.634 10.145.724c.558.038 1.085-.258 1.336-.752zm-21.5.476c.053.492-.272 1.417-.62 1.768L34.28 65.665l-3.6-3.596L47.147 45.6c.34-.34 1.126-.694 1.705-.796l2.186.54.176.71.153 1.38zm9.38-3.277c-.516-.04-1.004.214-1.275.65l-4.078 6.563-1.865-7.505c-.06-.25-.187-.47-.367-.647-.173-.174-.393-.3-.644-.366l-7.498-1.855 6.56-4.09c.434-.27.685-.76.647-1.27l-.555-7.71 5.913 4.977c.397.334.94.42 1.415.226l7.162-2.91-2.904 7.163c-.196.48-.11 1.02.22 1.415l4.977 5.917-7.706-.558zM74.985 24.818l5.687-5.69c.777-.777.797-2.03.043-2.783-.753-.753-2.007-.733-2.784.045l-5.684 5.686c-.777.778-.798 2.032-.045 2.786.755.753 2.008.734 2.785-.044zM40.734 24.818c.777.778 2.03.797 2.785.043s.733-2.007-.044-2.785l-5.69-5.687c-.777-.778-2.03-.798-2.782-.044-.753.753-.732 2.006.045 2.784l5.684 5.69zM57.902 18.95c1.067 0 1.92-.902 1.92-2.002l-.012-7.916c0-1.1-.84-2-1.905-2s-1.905.9-1.905 2v7.92c0 1.1.834 2 1.902 1.998zM27.693 41h7.92c1.1 0 2-.935 2-2s-.9-2-2-2h-7.92c-1.1 0-2 .935-2 2s.9 2 2 2zM78.11 39.2c0 1.068.9 1.94 2 1.94h7.917c1.1 0 2-.873 2-1.94 0-1.064-.9-1.937-2-1.937l-7.916-.002c-1.098 0-2 .874-2 1.94zM96 85c0-1.104-.896-2-2-2H64c-1.104 0-2 .896-2 2v8c0 1.104.896 2 2 2h30c1.104 0 2-.896 2-2v-8zM96 70c0-1.104-.896-2-2-2H64c-1.104 0-2 .896-2 2v8c0 1.104.896 2 2 2h30c1.104 0 2-.896 2-2v-8zM96 55c0-1.104-.896-2-2-2H64c-1.104 0-2 .896-2 2v8c0 1.104.896 2 2 2h30c1.104 0 2-.896 2-2v-8z"/></svg>