<svg xmlns="http://www.w3.org/2000/svg" xmlns:xlink="http://www.w3.org/1999/xlink" version="1.1" id="Your_Icon" x="0px" y="0px" width="100px" height="100px"  fill="#fff" viewBox="0 0 100 100" enable-background="new 0 0 100 100" xml:space="preserve">
<path d="M72.866,46.958c0.255-0.496,0.185-1.1-0.176-1.523l-6.554-7.785l3.83-9.429c0.206-0.512,0.091-1.107-0.3-1.5  c-0.396-0.395-0.993-0.515-1.503-0.304l-9.435,3.825l-7.78-6.549c-0.428-0.362-1.028-0.428-1.522-0.174  c-0.497,0.25-0.792,0.776-0.758,1.332l0.729,10.149l-8.633,5.376c-0.476,0.297-0.733,0.848-0.641,1.394  c0.05,0.294,0.183,0.561,0.387,0.766c0.178,0.175,0.401,0.301,0.646,0.366l4.711,1.166c-0.045,0.041-0.097,0.08-0.138,0.121  L27.881,62.042c-0.01,0.01-0.021,0.016-0.031,0.025L4.992,84.927c-0.777,0.777-0.777,2.051,0,2.828l3.6,3.598  c0.777,0.777,2.051,0.777,2.828,0l22.864-22.857c0.01-0.01,0.017-0.021,0.025-0.031l17.85-17.849c0.05-0.049,0.095-0.11,0.142-0.165  l1.183,4.77c0.13,0.539,0.578,0.946,1.13,1.039c0.552,0.087,1.102-0.161,1.392-0.639l5.381-8.635l10.144,0.724  C72.088,47.748,72.615,47.452,72.866,46.958z M51.365,47.434c0.054,0.492-0.271,1.417-0.62,1.768L34.28,65.665l-3.599-3.596  l16.465-16.469c0.34-0.34,1.126-0.694,1.705-0.796l2.185,0.541l0.176,0.71L51.365,47.434z M60.747,44.157  c-0.517-0.04-1.005,0.214-1.276,0.651l-4.079,6.562l-1.865-7.505c-0.061-0.25-0.187-0.47-0.367-0.647  c-0.173-0.174-0.393-0.301-0.644-0.366l-7.498-1.855l6.559-4.089c0.435-0.27,0.686-0.762,0.648-1.272l-0.555-7.709l5.913,4.977  c0.397,0.334,0.94,0.421,1.415,0.226l7.162-2.91l-2.904,7.163c-0.196,0.479-0.109,1.021,0.22,1.415l4.977,5.917L60.747,44.157z"/>
<path d="M74.985,24.818l5.687-5.689c0.777-0.778,0.797-2.031,0.043-2.784c-0.753-0.753-2.007-0.733-2.784,0.045l-5.685,5.686  c-0.777,0.778-0.798,2.032-0.045,2.786C72.955,25.615,74.208,25.596,74.985,24.818z"/>
<path d="M40.734,24.818c0.777,0.778,2.031,0.797,2.785,0.043s0.734-2.008-0.043-2.786l-5.689-5.687  c-0.778-0.778-2.031-0.798-2.783-0.044c-0.753,0.753-0.732,2.006,0.045,2.784L40.734,24.818z"/>
<path d="M57.902,18.95c1.067-0.001,1.921-0.902,1.92-2.002l-0.012-7.916c-0.001-1.1-0.839-2-1.905-2S56,7.932,56,9.032v7.919  C56,18.052,56.834,18.951,57.902,18.95z"/>
<path d="M27.693,41h7.919c1.1,0,2-0.935,2-2s-0.9-2-2-2h-7.919c-1.1,0-2,0.935-2,2S26.594,41,27.693,41z"/>
<path d="M78.111,39.201c0,1.067,0.9,1.94,2,1.94l7.916-0.002c1.1,0,2-0.872,2-1.938c0-1.065-0.9-1.938-2-1.938l-7.916-0.002  C79.012,37.261,78.111,38.134,78.111,39.201z"/>
<path d="M96,85c0-1.104-0.896-2-2-2H64c-1.104,0-2,0.896-2,2v8c0,1.104,0.896,2,2,2h30c1.104,0,2-0.896,2-2V85z"/>
<path d="M96,70c0-1.104-0.896-2-2-2H64c-1.104,0-2,0.896-2,2v8c0,1.104,0.896,2,2,2h30c1.104,0,2-0.896,2-2V70z"/>
<path d="M96,55c0-1.104-0.896-2-2-2H64c-1.104,0-2,0.896-2,2v8c0,1.104,0.896,2,2,2h30c1.104,0,2-0.896,2-2V55z"/>
</svg>