<svg xmlns="http://www.w3.org/2000/svg" width="100" height="100" viewBox="0 0 100 100" fill="#fff"><path d="M62.925 93.344c-1.733-1.275-1.918-3.19-1.918-3.19L60.357 86H39.643l-.652 4.152s-.18 1.916-1.912 3.19c-1.732 1.275-3.1 2.37-1.732 2.554 1.317.178 13.74.016 14.656 0 .92.016 13.34.178 14.656 0 1.365-.183-.002-1.275-1.73-2.552zM26.667 60.152c5.534-.043 6.223-1.377 8.027-6.932 3.327-8.77 18.31 2.295 9.024 6.135-9.285 3.842-22.585.84-17.05.797zM83.41 2.37c-2.686-2.164-7.133-1.098-9.936 2.38l-28.39 40.336c-2.804 3.477-2.79 2.813-.105 4.975 2.683 2.166 2.036 2.32 4.84-1.156l33.376-36.317c2.802-3.48 2.9-8.053.214-10.216zm-7.3 4.828s-.415-.483-1.798-1.59c2.074-3.386 6.15-2.765 6.15-2.765-3.866 2.282-4.35 4.355-4.35 4.355zM96 16H83.517l-5.514 6h16v48h-88V22h51.19l4.227-6H4c-2.208 0-4 1.79-4 4v58c0 2.21 1.792 4 4 4h92c2.21 0 4-1.79 4-4V20c0-2.21-1.79-4-4-4z"/></svg>