<svg xmlns="http://www.w3.org/2000/svg" width="100" height="100" fill="#fff" viewBox="0 0 100 100"><path d="M63.74 36.05h19.165V19.397H6.275V59.72H61.38V38.408c.003-1.302 1.058-2.358 2.36-2.358zm19.232 35.323H62.866v7.095h21.17v-7.25c-.337.098-.694.155-1.064.155zM91.93 58.13h5.46v22.43h-5.46zm-1.658 0h-3.53v9.474c0 1.478-.854 2.756-2.096 3.373v7.49h5.626V58.132zm-3.53-16.32h3.53v13.266h-3.53zm-23.876 0h20.04v17.912h-20.04zm21.78 29.167c1.242-.617 2.096-1.896 2.096-3.373V58.13h-2.096v12.847zm-.61.243V56.96c0-1.042.844-1.886 1.887-1.886h.82V41.81h-3.838v17.912h-20.04v11.65H82.97c.373 0 .73-.056 1.068-.153z" fill="none"/><path d="M6.276 59.722V19.398h76.63v16.65h3.836V19.77c0-2.08-1.688-3.77-3.77-3.77H6.207c-2.08 0-3.77 1.69-3.77 3.77v47.833c0 2.082 1.69 3.77 3.77 3.77h28.3v11.152h-5.42v1.004H60.09v-1.006h-5.556v-11.15h6.845v-11.65H6.276zm76.63-17.912v-5.76H63.74c-1.304 0-2.358 1.055-2.358 2.356V59.72h1.484V41.81h20.04zm1.13 39.834v-3.176h-21.17v-7.095H61.38v9.8c0 1.303 1.055 2.356 2.357 2.356H85.92c-1.043 0-1.886-.844-1.886-1.887zm6.236-39.834v13.266h1.656v-16.67c0-1.3-1.056-2.356-2.357-2.356h-2.827v5.76h3.53z"/><path d="M90.272 78.468h-5.626v2.092h7.283V58.13h-1.66z" fill="none"/><path d="M82.905 36.05h3.837v5.76h-3.837zM61.382 59.722h1.484v11.65h-1.484zm34.733-4.646h-4.187v3.055h5.46v22.43h-5.46v.615c0 1.302-1.056 2.355-2.357 2.355h6.546c1.042 0 1.885-.844 1.885-1.887v-24.68c0-1.043-.842-1.887-1.884-1.887zm-9.373 0h3.53v3.055h-3.53zM84.037 71.22v7.248h.61v-7.49c-.196.095-.397.177-.61.24zm1.886-16.144c-1.043 0-1.886.844-1.886 1.886V71.22c.213-.064.414-.147.61-.243V58.13h2.095v-3.054h-.82zm4.35 0h1.655v3.055h-1.656zm1.657 26.098v-.614h-7.283v-2.092h-.61v3.176c0 1.043.844 1.886 1.887 1.886h3.648c1.3 0 2.357-1.054 2.357-2.356z"/></svg>