<svg xmlns="http://www.w3.org/2000/svg" width="100" height="100" fill="#fff" viewBox="0 0 100 100"><path d="M63.74 36.05h19.165V19.397H6.275v40.324h55.106V38.407c.002-1.302 1.057-2.358 2.36-2.358zM82.972 71.373H62.866v7.095h21.17v-7.25c-.337.098-.694.155-1.064.155zM91.93 58.13h5.46v22.43h-5.46zM90.272 58.13h-3.53v9.474c0 1.478-.854 2.756-2.096 3.373v7.49h5.626V58.132zM86.742 41.81h3.53v13.266h-3.53zM62.866 41.81h20.04v17.912h-20.04zM84.646 70.977c1.242-.617 2.096-1.896 2.096-3.373V58.13h-2.096v12.847zM84.037 71.22V56.96c0-1.042.843-1.886 1.886-1.886h.82V41.81h-3.838v17.912h-20.04v11.65h20.106c.372 0 .73-.056 1.067-.153z" fill="none"/><path d="M6.276 59.722V19.398h76.63v16.65h3.836V19.77c0-2.08-1.688-3.77-3.77-3.77H6.207c-2.08 0-3.77 1.69-3.77 3.77v47.833c0 2.082 1.69 3.77 3.77 3.77h28.3v11.152h-5.42v1.004H60.09v-1.005h-5.556V71.373h6.845v-11.65H6.277zM82.905 41.81v-5.76H63.74c-1.304 0-2.358 1.055-2.358 2.356V59.72h1.484V41.81h20.04zM84.037 81.644v-3.176h-21.17v-7.095H61.38v9.8c0 1.303 1.055 2.356 2.357 2.356h22.183c-1.043 0-1.886-.843-1.886-1.886zM90.272 41.81v13.266h1.656v-16.67c0-1.3-1.056-2.356-2.357-2.356h-2.828v5.76h3.53z"/><path fill="none" d="M90.272 78.468h-5.626v2.092h7.283V58.13H90.27z"/><path d="M82.905 36.05h3.837v5.76h-3.837zM61.382 59.722h1.484v11.65h-1.484zM96.115 55.076h-4.187v3.055h5.46v22.43h-5.46v.614c0 1.302-1.056 2.355-2.357 2.355h6.545c1.042 0 1.885-.844 1.885-1.887v-24.68c0-1.043-.843-1.887-1.885-1.887zM86.742 55.076h3.53v3.055h-3.53zM84.037 71.22v7.248h.61v-7.49c-.196.095-.397.177-.61.24zM85.923 55.076c-1.043 0-1.886.844-1.886 1.886V71.22c.213-.064.414-.147.61-.243V58.13h2.095v-3.054h-.82zM90.272 55.076h1.656v3.055h-1.656zM91.93 81.174v-.614h-7.283v-2.092h-.61v3.176c0 1.043.844 1.886 1.887 1.886h3.648c1.3 0 2.357-1.054 2.357-2.356z"/></svg>