<svg xmlns="http://www.w3.org/2000/svg" width="100" height="100" viewBox="0 0 100 100" fill="#fff"><circle cx="10.417" cy="77.083" r="6.25"/><path d="M10.417 85.417C4.663 85.417 0 90.08 0 95.833V100h20.834v-4.167c0-5.753-4.663-10.416-10.417-10.416z"/><circle cx="35.417" cy="77.083" r="6.25"/><path d="M35.417 85.417C29.663 85.417 25 90.08 25 95.833V100h20.834v-4.167c0-5.753-4.663-10.416-10.417-10.416z"/><circle cx="60.417" cy="77.083" r="6.25"/><path d="M60.417 85.417C54.663 85.417 50 90.08 50 95.833V100h20.834v-4.167c0-5.753-4.663-10.416-10.417-10.416z"/><circle cx="85.417" cy="77.083" r="6.25"/><path d="M85.417 85.417C79.663 85.417 75 90.08 75 95.833V100h20.834v-4.167c0-5.753-4.663-10.416-10.417-10.416zM52.084 56.25H43.75c-1.15 0-2.083-.932-2.083-2.083s.932-2.084 2.083-2.084h8.334c1.15 0 2.083.933 2.083 2.084s-.932 2.083-2.083 2.083zM47.917 12.5c-1.15 0-2.083-.932-2.083-2.083V2.083c0-1.15.932-2.083 2.083-2.083S50 .932 50 2.083v8.333c0 1.152-.932 2.084-2.083 2.084zm-18.75 18.75h-8.333c-1.15 0-2.084-.932-2.084-2.083s.933-2.084 2.084-2.084h8.333c1.15 0 2.083.933 2.083 2.084s-.932 2.083-2.083 2.083zm5.208-13.542c-.532 0-1.065-.203-1.473-.61l-5.895-5.892c-.813-.814-.813-2.132 0-2.946.813-.814 2.132-.814 2.946 0l5.895 5.892c.813.814.813 2.132 0 2.946-.407.407-.94.61-1.473.61zm27.085 0c-.534 0-1.067-.203-1.475-.61-.813-.813-.813-2.132 0-2.946l5.893-5.895c.813-.814 2.132-.814 2.945 0 .814.814.814 2.132 0 2.946l-5.892 5.895c-.405.407-.94.61-1.47.61zM75 31.25h-8.333c-1.15 0-2.083-.932-2.083-2.083s.932-2.084 2.083-2.084H75c1.15 0 2.084.933 2.084 2.084S76.15 31.25 75 31.25zM52.084 58.333H43.75c-1.15 0-2.083.933-2.083 2.084S42.6 62.5 43.75 62.5h1.042c0 1.15.932 2.083 2.083 2.083h2.084c1.15 0 2.08-.932 2.08-2.083h1.043c1.15 0 2.083-.932 2.083-2.083s-.932-2.084-2.083-2.084zm6.57-19.323c2.38-2.596 3.846-6.045 3.846-9.843 0-8.055-6.53-14.583-14.583-14.583s-14.583 6.53-14.583 14.583c0 3.674 1.37 7.02 3.61 9.584.975 1.1 4.723 5.54 4.723 9.168 0 1.15.932 2.083 2.083 2.083h8.334c1.15 0 2.083-.93 2.083-2.082V47.8c.07-3.36 3.274-7.384 4.488-8.79z"/></svg>