<svg xmlns="http://www.w3.org/2000/svg" width="100" height="100" fill="#fff" viewBox="0 0 100 100"><path d="M50.276 87.53l-.405-.003-.366.002c-3.375 0-20.428-.363-25.485-7.504-.462-.54-1.816-2.783.168-9.07.924-2.926 3.905-10.653 7.06-18.836 3.628-9.402 7.732-20.042 8.487-22.9V17.883c-.088-.35-.42-1.547-.984-2.354-.326-.467-1.006-1.438-.558-2.3.263-.504.776-.76 1.526-.76h20.564c.75 0 1.263.256 1.525.76.448.86-.23 1.833-.56 2.3-.563.807-.895 2.004-.982 2.354V29.22c.755 2.86 4.862 13.508 8.49 22.917 3.154 8.175 6.133 15.896 7.056 18.82 1.987 6.286.633 8.53.17 9.07-5.055 7.14-22.292 7.502-25.704 7.502zm-.406-2.003l.405.002c1.99 0 19.564-.19 24.1-6.698l.112-.134c-.008 0 1.154-1.638-.583-7.14C73 68.694 70.032 61 66.89 52.858c-3.882-10.066-7.896-20.474-8.595-23.27l-.03-.243.023-11.798c.017-.074.408-1.805 1.262-3.077h-19.1c.852 1.27 1.244 3 1.26 3.076l.025.218-.03 11.823c-.7 2.795-4.71 13.195-8.59 23.252C29.97 60.99 27 68.69 26.095 71.56c-1.75 5.546-.557 7.166-.544 7.182l.073.09c4.537 6.51 21.914 6.698 23.88 6.698l.367-.003zM64.532 53.896c-1.38-.17-2.87-.393-4.476-.666-8.616-1.465-5.363 0-10.056 2.235-4.693 2.235-5.587 1.788-12.29-.894-.746-.297-1.492-.525-2.23-.702-2.98 7.724-6.052 15.688-6.93 18.466-1.027 3.256-.848 4.717-.77 5.087 1.95 2.678 9.54 5.534 21.723 5.534.198 0 .31 0 .324-.002l.45.002c12.33 0 19.99-2.856 21.943-5.533.08-.368.257-1.83-.77-5.086-.878-2.774-3.942-10.72-6.918-18.438z"/></svg>