<svg xmlns="http://www.w3.org/2000/svg" width="32" height="32" fill="#fff" viewBox="0 0 32 32"><path fill="#fff" d="M24.087 4.086l-.404-2.312-1.59 1.728-2.322-.33 1.15 2.045-1.03 2.107 2.3-.464 1.69 1.635.27-2.332 2.074-1.1-2.136-.977zm3.174 13.55l-.18-1.25-.883.905-1.244-.213.588 1.11-.587 1.103 1.244-.22.883.897.18-1.25 1.134-.562-1.133-.518zM5.966 7.106l.948-.37.844.57-.062-1.014.802-.626-.985-.256-.348-.957-.547.86L5.6 5.35l.646.784-.28.977zm5.52 2.835l1.02-1.095 1.48.22-.727-1.312.667-1.34-1.47.288-1.068-1.05-.182 1.49-1.328.693 1.358.633.25 1.475zm6.794 2.22c-.59-.368-1.173-.618-1.69-.73-.494-.09-1.04-.148-1.427.374L3.606 30.227h6.68l9.67-15.417c.302-.576.01-1.04-.284-1.446-.325-.42-.805-.84-1.394-1.206zm-3.62 9.214c-.256-.396-.74-.854-1.375-1.254-.632-.397-1.258-.636-1.726-.69l4.42-7.06c.063-.016.262-.022.543.063.346.093.785.285 1.225.562.504.312.908.678 1.133.97.114.147.18.272.196.336l.004.017-4.423 7.057z"/></svg>