<svg xmlns="http://www.w3.org/2000/svg" fill="#fff" width="71" height="100" viewBox="0 0 71 100"><path d="M70 7.583H56.625V5.96c0-.55-.45-1-1-1H43.443V2c0-1.1-.9-2-2-2H29.557c-1.1 0-2 .9-2 2v2.96H15.375c-.55 0-1 .45-1 1v1.624H1c-.55 0-1 .45-1 1V99c0 .55.45 1 1 1h69c.55 0 1-.45 1-1V8.583c0-.55-.45-1-1-1zM35.5 2.32c1.094 0 1.98.886 1.98 1.98 0 1.093-.887 1.98-1.98 1.98-1.094 0-1.98-.887-1.98-1.98 0-1.094.886-1.98 1.98-1.98zm27.995 90.075c0 .55-.45 1-1 1H8.505c-.55 0-1-.45-1-1V15.188c0-.55.45-1 1-1h5.87v1.67c0 .55.45 1 1 1h40.25c.55 0 1-.45 1-1v-1.67h5.87c.55 0 1 .45 1 1v77.207zM14.375 25.5H52.5v2.375H14.375zM14.375 31.625H52.5V34H14.375zM14.375 37.75H43.5v2.375H14.375zM14.375 50H52.5v2.375H14.375zM14.375 56.125H52.5V58.5H14.375zM14.375 62.25H43.5v2.375H14.375zM26.842 85.22H22.61l2.13-3.694 29.767-16.94 2.1 3.693zM56.762 63.327l2.1 3.693-1.594.907-2.1-3.693z"/></svg>