<svg xmlns="http://www.w3.org/2000/svg" xmlns:xlink="http://www.w3.org/1999/xlink" version="1.1" id="Layer_1" x="0px" y="0px" width="100px" height="100px"  fill="#fff" viewBox="0 0 100 100" enable-background="new 0 0 100 100" xml:space="preserve">
<path d="M60.811,67.957c-0.012,0-0.021-0.006-0.032-0.006H38.641c-0.012,0-0.021,0.006-0.033,0.006  c-0.316,0.018-0.569,0.274-0.569,0.596c0,0.331,0.269,0.601,0.602,0.601h22.138c0.331,0,0.601-0.27,0.601-0.601  C61.379,68.231,61.127,67.974,60.811,67.957z"/>
<g>
	<path fill="none" d="M49.476,45.265c2.892,0,5.272-3.193,5.581-7.296c0.038-0.265,0.059-0.536,0.063-0.811l-0.903,1.037   c0.498-1.103-1.275-3.908-1.275-3.908c-2.987,2.161-7.43,0-7.43,0c-1.341,0.529-0.706,4.299-0.706,4.299   c-0.334-0.233-0.642-0.355-0.892-0.417C44.283,42.175,46.632,45.265,49.476,45.265z"/>
	<path d="M54.808,45.53c-0.032,1.531-2.303,2.767-5.099,2.767c-2.796,0-5.065-1.236-5.099-2.767   c-3.003,0.274-5.543,2.131-6.794,4.726h23.787C60.352,47.661,57.812,45.804,54.808,45.53z"/>
	<path d="M43.121,37.936c0.005,0.061,0.01,0.121,0.015,0.181c0.406,4.587,3.09,8.131,6.339,8.131   c3.293,0,6.005-3.637,6.356-8.311c0.048-0.335,0.073-0.68,0.073-1.029c0-0.35-0.025-0.694-0.073-1.029   c-0.471-3.249-3.138-5.737-6.356-5.737c-3.218,0-5.884,2.49-6.354,5.74c-0.048,0.334-0.072,0.678-0.072,1.026   c0,0.143,0.004,0.283,0.012,0.422C43.073,37.535,43.092,37.736,43.121,37.936z M45.511,34.287c0,0,4.443,2.161,7.43,0   c0,0,1.773,2.806,1.275,3.908l0.903-1.037c-0.005,0.275-0.025,0.546-0.063,0.811c-0.309,4.103-2.688,7.296-5.581,7.296   c-2.843,0-5.193-3.09-5.562-7.097c0.25,0.063,0.558,0.184,0.892,0.417C44.806,38.585,44.17,34.816,45.511,34.287z"/>
</g>
<path d="M63.307,50.637H36.112c-0.759,0-1.375,0.616-1.375,1.375l1.375,13.964c0,0.759,0.616,1.374,1.375,1.374  h24.445c0.76,0,1.375-0.615,1.375-1.374l1.375-13.964C64.682,51.252,64.066,50.637,63.307,50.637z M49.701,60.125  c-0.664,0-1.203-0.54-1.203-1.204c0-0.663,0.539-1.202,1.203-1.202c0.664,0,1.203,0.539,1.203,1.202  C50.904,59.585,50.365,60.125,49.701,60.125z"/>
<path d="M85.445,62.725c-0.009,0-0.015-0.004-0.022-0.004H69.609c-0.009,0-0.016,0.004-0.023,0.004  c-0.226,0.013-0.405,0.196-0.405,0.426c0,0.236,0.191,0.429,0.429,0.429h15.813c0.236,0,0.429-0.192,0.429-0.429  C85.851,62.921,85.67,62.738,85.445,62.725z"/>
<g>
	<path fill="none" d="M77.348,46.517c2.065,0,3.766-2.28,3.986-5.211c0.027-0.189,0.041-0.383,0.045-0.58l-0.645,0.741   c0.355-0.788-0.911-2.792-0.911-2.792c-2.134,1.543-5.308,0-5.308,0c-0.958,0.378-0.504,3.07-0.504,3.07   c-0.239-0.166-0.458-0.253-0.637-0.298C73.639,44.31,75.317,46.517,77.348,46.517z"/>
	<path d="M81.157,46.706c-0.023,1.094-1.645,1.977-3.642,1.977c-1.998,0-3.618-0.883-3.642-1.977   c-2.146,0.196-3.96,1.522-4.854,3.376h16.99C85.118,48.228,83.302,46.902,81.157,46.706z"/>
	<path d="M72.809,41.282c0.003,0.043,0.007,0.086,0.012,0.129c0.289,3.277,2.206,5.809,4.527,5.809   c2.353,0,4.289-2.598,4.54-5.936c0.034-0.24,0.052-0.485,0.052-0.735s-0.018-0.496-0.052-0.735   c-0.337-2.321-2.241-4.098-4.54-4.098s-4.203,1.779-4.539,4.1c-0.034,0.239-0.052,0.484-0.052,0.733   c0,0.102,0.003,0.202,0.009,0.302C72.775,40.996,72.789,41.14,72.809,41.282z M74.516,38.676c0,0,3.174,1.543,5.308,0   c0,0,1.267,2.003,0.911,2.792l0.645-0.741c-0.004,0.197-0.018,0.39-0.045,0.58c-0.221,2.931-1.921,5.211-3.986,5.211   c-2.031,0-3.709-2.207-3.973-5.069c0.179,0.045,0.397,0.132,0.637,0.298C74.012,41.746,73.558,39.054,74.516,38.676z"/>
</g>
<path d="M87.228,50.354H67.803c-0.543,0-0.982,0.439-0.982,0.982l0.982,9.974c0,0.543,0.439,0.982,0.981,0.982  h17.461c0.543,0,0.982-0.439,0.982-0.982l0.981-9.974C88.209,50.793,87.77,50.354,87.228,50.354z M77.509,57.131  c-0.475,0-0.859-0.386-0.859-0.859c0-0.475,0.385-0.859,0.859-0.859c0.474,0,0.858,0.385,0.858,0.859  C78.368,56.746,77.983,57.131,77.509,57.131z"/>
<path d="M29.833,62.725c-0.008,0-0.015-0.004-0.023-0.004H13.998c-0.008,0-0.015,0.004-0.023,0.004  c-0.226,0.013-0.406,0.196-0.406,0.426c0,0.236,0.192,0.429,0.429,0.429h15.813c0.236,0,0.429-0.192,0.429-0.429  C30.24,62.921,30.059,62.738,29.833,62.725z"/>
<g>
	<path fill="none" d="M21.737,46.517c2.066,0,3.766-2.28,3.986-5.211c0.027-0.189,0.042-0.383,0.045-0.58l-0.645,0.741   c0.355-0.788-0.911-2.792-0.911-2.792c-2.134,1.543-5.307,0-5.307,0c-0.958,0.378-0.504,3.07-0.504,3.07   c-0.239-0.166-0.458-0.253-0.637-0.298C18.028,44.31,19.706,46.517,21.737,46.517z"/>
	<path d="M25.546,46.706c-0.023,1.094-1.645,1.977-3.642,1.977c-1.998,0-3.619-0.883-3.642-1.977   c-2.145,0.196-3.959,1.522-4.854,3.376h16.991C29.506,48.228,27.691,46.902,25.546,46.706z"/>
	<path d="M17.198,41.282c0.003,0.043,0.007,0.086,0.011,0.129c0.29,3.277,2.207,5.809,4.528,5.809   c2.353,0,4.29-2.598,4.54-5.936c0.034-0.24,0.052-0.485,0.052-0.735s-0.019-0.496-0.052-0.735c-0.337-2.321-2.241-4.098-4.54-4.098   c-2.298,0-4.203,1.779-4.539,4.1c-0.034,0.239-0.051,0.484-0.051,0.733c0,0.102,0.002,0.202,0.008,0.302   C17.164,40.996,17.177,41.14,17.198,41.282z M18.905,38.676c0,0,3.173,1.543,5.307,0c0,0,1.267,2.003,0.911,2.792l0.645-0.741   c-0.003,0.197-0.018,0.39-0.045,0.58c-0.221,2.931-1.92,5.211-3.986,5.211c-2.031,0-3.709-2.207-3.973-5.069   c0.179,0.045,0.397,0.132,0.637,0.298C18.401,41.746,17.947,39.054,18.905,38.676z"/>
</g>
<path d="M31.617,50.354H12.191c-0.542,0-0.982,0.439-0.982,0.982l0.982,9.974c0,0.543,0.439,0.982,0.982,0.982h17.46  c0.543,0,0.982-0.439,0.982-0.982l0.981-9.974C32.598,50.793,32.159,50.354,31.617,50.354z M21.897,57.131  c-0.474,0-0.859-0.386-0.859-0.859c0-0.475,0.385-0.859,0.859-0.859c0.475,0,0.859,0.385,0.859,0.859  C22.757,56.746,22.372,57.131,21.897,57.131z"/>
</svg>