<svg xmlns="http://www.w3.org/2000/svg" width="100" height="100" fill="#fff" viewBox="0 0 100 100"><path d="M60.81 67.957c-.01 0-.02-.006-.03-.006H38.64c-.01 0-.02.008-.032.008-.316.018-.57.274-.57.596 0 .33.27.6.603.6h22.14c.33 0 .6-.27.6-.6 0-.322-.252-.58-.57-.596z"/><path d="M49.476 45.265c2.892 0 5.272-3.193 5.58-7.296.04-.267.06-.538.064-.813l-.903 1.037c.498-1.103-1.275-3.908-1.275-3.908-2.987 2.16-7.43 0-7.43 0-1.34.53-.706 4.3-.706 4.3-.334-.234-.642-.356-.892-.418.37 4.005 2.718 7.095 5.562 7.095z" fill="none"/><path d="M54.808 45.53c-.032 1.53-2.303 2.767-5.1 2.767-2.795 0-5.064-1.236-5.098-2.767-3.003.274-5.543 2.13-6.794 4.726h23.787c-1.25-2.595-3.79-4.452-6.795-4.726zM43.12 37.936l.016.18c.406 4.588 3.09 8.132 6.34 8.132 3.292 0 6.004-3.637 6.355-8.31.05-.336.075-.68.075-1.03s-.025-.694-.073-1.03c-.47-3.248-3.137-5.736-6.355-5.736-3.218 0-5.884 2.49-6.354 5.74-.047.334-.07.678-.07 1.026 0 .143.003.283.01.422.013.205.032.406.06.606zm2.39-3.65s4.444 2.162 7.43 0c0 0 1.774 2.807 1.276 3.91l.903-1.038c-.007.275-.027.546-.065.81-.31 4.104-2.688 7.297-5.58 7.297-2.844 0-5.194-3.09-5.563-7.097.25.063.558.184.892.417 0 0-.635-3.77.706-4.298zm17.797 16.35H36.112c-.76 0-1.375.617-1.375 1.376l1.375 13.964c0 .76.616 1.374 1.375 1.374h24.445c.76 0 1.375-.615 1.375-1.374l1.375-13.964c0-.76-.616-1.375-1.375-1.375zM49.7 60.127c-.663 0-1.202-.54-1.202-1.205 0-.66.54-1.2 1.203-1.2.666 0 1.205.54 1.205 1.2 0 .666-.54 1.206-1.203 1.206zm35.745 2.6c-.01 0-.015-.005-.022-.005H69.61c-.01 0-.017.006-.024.006-.226.013-.405.196-.405.426 0 .237.193.43.43.43h15.814c.236 0 .43-.192.43-.43-.002-.23-.183-.412-.408-.425z"/><path d="M77.348 46.517c2.065 0 3.766-2.28 3.986-5.21.027-.19.04-.384.045-.58l-.647.74c.355-.788-.91-2.792-.91-2.792-2.135 1.543-5.31 0-5.31 0-.957.378-.503 3.07-.503 3.07-.238-.166-.457-.253-.636-.298.265 2.863 1.943 5.07 3.974 5.07z" fill="none"/><path d="M81.157 46.706c-.023 1.094-1.645 1.977-3.642 1.977-1.998 0-3.618-.883-3.642-1.977-2.146.196-3.96 1.522-4.854 3.376h16.99c-.893-1.854-2.71-3.18-4.854-3.376zm-8.347-5.424c.002.043.006.086.01.13.29 3.276 2.207 5.808 4.528 5.808 2.353 0 4.29-2.598 4.54-5.936.034-.24.052-.485.052-.735s-.018-.498-.052-.737c-.337-2.32-2.24-4.098-4.54-4.098s-4.203 1.78-4.54 4.1c-.033.24-.05.484-.05.733 0 .1.002.2.008.3.01.146.023.29.043.432zm1.706-2.606s3.174 1.543 5.308 0c0 0 1.267 2.003.91 2.792l.646-.74c-.004.196-.018.39-.045.58-.22 2.93-1.92 5.21-3.986 5.21-2.033 0-3.71-2.207-3.975-5.07.18.046.397.133.637.3 0-.002-.455-2.694.503-3.072zm12.712 11.678H67.803c-.543 0-.982.44-.982.982l.984 9.974c0 .543.44.982.98.982h17.462c.543 0 .982-.44.982-.982l.98-9.974c.002-.543-.437-.982-.98-.982zm-9.72 6.777c-.474 0-.858-.384-.858-.857 0-.475.385-.86.86-.86.473 0 .857.386.857.86s-.384.86-.858.86zm-47.675 5.595c-.008 0-.015-.004-.023-.004H13.998c-.008 0-.015.006-.023.006-.226.013-.406.196-.406.426 0 .237.19.43.427.43H29.81c.237 0 .43-.192.43-.43 0-.23-.18-.412-.407-.425z"/><path d="M21.737 46.517c2.066 0 3.766-2.28 3.986-5.21.027-.19.042-.384.045-.58l-.645.74c.355-.788-.91-2.792-.91-2.792-2.135 1.543-5.308 0-5.308 0-.958.378-.504 3.07-.504 3.07-.237-.166-.456-.253-.635-.298.264 2.863 1.942 5.07 3.973 5.07z" fill="none"/><path d="M25.546 46.706c-.023 1.094-1.645 1.977-3.642 1.977-1.998 0-3.62-.883-3.642-1.977-2.145.196-3.96 1.522-4.854 3.376h16.99c-.892-1.854-2.707-3.18-4.852-3.376zm-8.348-5.424l.01.13c.29 3.276 2.208 5.808 4.53 5.808 2.352 0 4.29-2.598 4.54-5.936.033-.24.05-.485.05-.735s-.018-.498-.05-.737c-.338-2.32-2.242-4.098-4.54-4.098-2.3 0-4.204 1.78-4.54 4.1-.034.24-.05.484-.05.733 0 .1 0 .2.007.3.01.146.022.29.043.432zm1.707-2.606s3.173 1.543 5.307 0c0 0 1.267 2.003.91 2.792l.646-.74c-.003.196-.018.39-.045.58-.22 2.93-1.92 5.21-3.986 5.21-2.03 0-3.71-2.207-3.973-5.07.18.046.397.133.637.3 0-.002-.452-2.694.506-3.072zm12.712 11.678H12.19c-.54 0-.98.44-.98.982l.98 9.974c0 .543.44.982.983.982h17.46c.543 0 .982-.44.982-.982l.98-9.974c.003-.543-.436-.982-.978-.982zm-9.72 6.777c-.474 0-.86-.384-.86-.857 0-.475.386-.86.86-.86.475 0 .86.386.86.86s-.385.86-.86.86z"/></svg>