<svg xmlns="http://www.w3.org/2000/svg" width="100" fill="#fff" height="100" viewBox="0 0 100 100"><path d="M77.123 81.133H21.787c-2.068 0-3.745-1.676-3.745-3.744V23.506c0-2.068 1.677-3.745 3.745-3.745h55.336c2.068 0 3.744 1.677 3.744 3.745v53.88c0 2.07-1.676 3.745-3.744 3.745zM25.53 73.645h47.85V27.252H25.53v46.393zm6.45-47.64c-2.042 0-3.712-1.64-3.744-3.687l-.208-13.313c-.032-2.068 1.618-3.77 3.686-3.803h.06c2.04 0 3.71 1.638 3.743 3.686l.208 13.313c.032 2.07-1.618 3.773-3.686 3.805h-.06zm12.066 0c-2.068 0-3.745-1.678-3.745-3.746V7.28c0-2.068 1.68-3.745 3.747-3.745s3.745 1.677 3.745 3.745v14.98c0 2.068-1.676 3.744-3.744 3.744zm12.064 0c-2.044 0-3.715-1.644-3.743-3.694L52.16 7.335c-.028-2.068 1.625-3.767 3.692-3.796 2.028-.005 3.767 1.624 3.796 3.692l.207 14.977c.028 2.068-1.625 3.767-3.692 3.796h-.053zm10.61 0c-2.067 0-3.743-1.678-3.743-3.746V8.945c0-2.068 1.676-3.745 3.744-3.745s3.746 1.678 3.746 3.746V22.26c0 2.068-1.676 3.744-3.744 3.744zm0 68.44c-2.04 0-3.71-1.638-3.743-3.686l-.207-13.314c-.032-2.068 1.618-3.77 3.686-3.803h.06c2.04 0 3.71 1.638 3.743 3.686l.205 13.31c.032 2.07-1.618 3.77-3.686 3.804h-.06zM54.446 96.11c-2.068 0-3.744-1.676-3.744-3.744V77.39c0-2.07 1.676-3.745 3.744-3.745s3.744 1.676 3.744 3.744v14.976c0 2.068-1.675 3.743-3.744 3.743zm-11.858 0c-2.044 0-3.715-1.642-3.743-3.692l-.208-14.978c-.03-2.067 1.625-3.768 3.692-3.796 2.035-.02 3.765 1.624 3.794 3.692l.208 14.978c.03 2.067-1.625 3.768-3.692 3.796h-.052zm-10.816-1.665c-2.068 0-3.745-1.676-3.745-3.744V77.39c0-2.07 1.677-3.745 3.745-3.745s3.745 1.676 3.745 3.744V90.7c0 2.07-1.677 3.745-3.745 3.745zM77.81 36.82c-2.04 0-3.71-1.638-3.743-3.686-.032-2.068 1.618-3.77 3.686-3.802l13.313-.207h.06c2.04 0 3.71 1.64 3.743 3.687.03 2.068-1.62 3.77-3.688 3.802l-13.314.206h-.06zm14.98 12.068H77.81c-2.067 0-3.743-1.677-3.743-3.745s1.676-3.745 3.744-3.745h14.98c2.07 0 3.745 1.677 3.745 3.745s-1.677 3.745-3.745 3.745zM77.81 60.952c-2.044 0-3.715-1.643-3.743-3.692-.028-2.067 1.625-3.768 3.692-3.796l14.977-.207c2.05-.02 3.767 1.625 3.796 3.692.028 2.065-1.625 3.766-3.692 3.794l-14.98.207h-.05zm13.314 10.61H77.81c-2.067 0-3.743-1.676-3.743-3.744s1.676-3.744 3.744-3.744h13.315c2.068 0 3.744 1.676 3.744 3.744s-1.677 3.744-3.745 3.744zm-82.756 0c-2.04 0-3.71-1.638-3.743-3.686-.032-2.068 1.618-3.77 3.686-3.803l13.315-.207c2.065-.005 3.77 1.618 3.802 3.686.032 2.068-1.618 3.77-3.686 3.803l-13.312.207h-.06zm13.314-12.275H6.704c-2.068 0-3.745-1.676-3.745-3.744S4.634 51.8 6.702 51.8H21.68c2.07 0 3.746 1.675 3.746 3.743s-1.677 3.744-3.745 3.744zM6.702 47.43c-2.043 0-3.714-1.643-3.742-3.693-.028-2.068 1.625-3.767 3.692-3.796l14.978-.205c2.064-.01 3.767 1.624 3.796 3.692.028 2.068-1.625 3.767-3.692 3.796l-14.978.208h-.053zm14.98-10.816H8.37c-2.07 0-3.746-1.677-3.746-3.745S6.3 29.122 8.37 29.122h13.31c2.068 0 3.745 1.677 3.745 3.745s-1.677 3.744-3.745 3.744zm8.842 28.5h3.952v3.95h-3.952zm29.34-4.566H40.093c-.69 0-1.248-.56-1.248-1.248V39.527c0-.69.56-1.248 1.248-1.248h19.773c.69 0 1.248.557 1.248 1.246V59.3c0 .69-.558 1.248-1.248 1.248zM41.34 58.052h17.277V40.775H41.34v17.277z"/></svg>