<svg xmlns="http://www.w3.org/2000/svg" width="100" fill="#fff" height="100" viewBox="0 0 100 100"><g><path d="M77.123 81.133H21.787c-2.068 0-3.745-1.676-3.745-3.744V23.507c0-2.068 1.677-3.745 3.745-3.745h55.336c2.068 0 3.744 1.677 3.744 3.745v53.88c0 2.07-1.676 3.745-3.744 3.745zM25.53 73.645h47.85V27.252H25.53v46.393zM31.98 26.004c-2.042 0-3.712-1.638-3.744-3.686l-.208-13.313c-.032-2.068 1.618-3.77 3.686-3.803h.06c2.04 0 3.71 1.638 3.743 3.686l.208 13.313c.032 2.07-1.618 3.772-3.686 3.804h-.06zM44.046 26.004c-2.068 0-3.745-1.677-3.745-3.745V7.28c0-2.068 1.678-3.745 3.746-3.745s3.745 1.677 3.745 3.745V22.26c0 2.068-1.676 3.744-3.744 3.744zM56.11 26.004c-2.044 0-3.715-1.643-3.743-3.693L52.16 7.334c-.028-2.068 1.625-3.767 3.692-3.796 2.028-.005 3.767 1.624 3.796 3.692l.207 14.977c.028 2.068-1.625 3.767-3.692 3.796h-.053zM66.72 26.004c-2.067 0-3.743-1.677-3.743-3.745V8.946c0-2.068 1.676-3.745 3.744-3.745s3.745 1.677 3.745 3.745V22.26c0 2.068-1.676 3.744-3.744 3.744zM66.72 94.445c-2.04 0-3.71-1.638-3.743-3.686l-.207-13.313c-.032-2.068 1.618-3.77 3.686-3.803h.06c2.04 0 3.71 1.638 3.743 3.686l.206 13.312c.032 2.068-1.618 3.77-3.686 3.803h-.06zM54.446 96.11c-2.068 0-3.744-1.676-3.744-3.744V77.39c0-2.07 1.676-3.745 3.744-3.745s3.744 1.676 3.744 3.744v14.977c0 2.068-1.675 3.743-3.744 3.743zM42.588 96.11c-2.044 0-3.715-1.642-3.743-3.692l-.208-14.978c-.03-2.067 1.625-3.768 3.692-3.796 2.036-.02 3.766 1.624 3.795 3.692l.208 14.978c.03 2.067-1.625 3.768-3.692 3.796h-.052zM31.772 94.445c-2.068 0-3.745-1.676-3.745-3.744V77.39c0-2.07 1.677-3.745 3.745-3.745s3.745 1.676 3.745 3.744V90.7c0 2.07-1.677 3.745-3.745 3.745zM77.81 36.82c-2.04 0-3.71-1.638-3.743-3.686-.032-2.068 1.618-3.77 3.686-3.802l13.313-.207h.06c2.04 0 3.71 1.64 3.743 3.687.03 2.068-1.62 3.77-3.687 3.802l-13.314.206h-.06zM92.79 48.888H77.81c-2.067 0-3.743-1.677-3.743-3.745s1.676-3.745 3.744-3.745h14.98c2.068 0 3.744 1.677 3.744 3.745s-1.677 3.745-3.745 3.745zM77.81 60.952c-2.044 0-3.715-1.643-3.743-3.692-.028-2.067 1.625-3.768 3.692-3.796l14.978-.207c2.05-.02 3.767 1.625 3.796 3.692.028 2.066-1.625 3.767-3.692 3.795l-14.98.207h-.052zM91.124 71.562H77.81c-2.067 0-3.743-1.676-3.743-3.744s1.676-3.744 3.744-3.744h13.314c2.068 0 3.744 1.676 3.744 3.744s-1.676 3.744-3.744 3.744zM8.368 71.562c-2.04 0-3.71-1.638-3.743-3.686-.032-2.068 1.618-3.77 3.686-3.803l13.314-.207c2.065-.005 3.77 1.618 3.802 3.686.032 2.068-1.618 3.77-3.686 3.803l-13.313.207h-.06zM21.682 59.287H6.704c-2.068 0-3.745-1.676-3.745-3.744S4.635 51.8 6.703 51.8h14.978c2.068 0 3.745 1.675 3.745 3.743s-1.677 3.744-3.745 3.744zM6.703 47.43c-2.044 0-3.715-1.643-3.743-3.693-.028-2.068 1.625-3.767 3.692-3.796l14.978-.206c2.064-.01 3.767 1.624 3.796 3.692.028 2.068-1.625 3.767-3.692 3.796l-14.978.208h-.053zM21.682 36.614H8.37c-2.07 0-3.746-1.677-3.746-3.745S6.3 29.123 8.37 29.123H21.68c2.068 0 3.745 1.677 3.745 3.745s-1.677 3.744-3.745 3.744zM30.524 65.114h3.952v3.95h-3.952zM59.865 60.548H40.092c-.69 0-1.248-.56-1.248-1.248V39.527c0-.69.56-1.248 1.248-1.248h19.773c.69 0 1.248.558 1.248 1.247V59.3c0 .69-.558 1.248-1.248 1.248zM41.34 58.052h17.277V40.775H41.34v17.277z"/></g></svg>