<svg xmlns="http://www.w3.org/2000/svg" xmlns:xlink="http://www.w3.org/1999/xlink" version="1.1" x="0px" y="0px" width="100px" fill="#fff" height="100px" viewBox="0 0 100 100" enable-background="new 0 0 100 100" xml:space="preserve">
<g id="Layer_1">
</g>
<g id="_x3C_Layer_x3E_">
</g>
<g id="toolbar">
	<g>
		<path d="M77.123,81.133H21.787c-2.068,0-3.745-1.676-3.745-3.744V23.508c0-2.068,1.677-3.745,3.745-3.745h55.336    c2.068,0,3.744,1.677,3.744,3.745v53.881C80.867,79.457,79.191,81.133,77.123,81.133z M25.531,73.645h47.848V27.252H25.531V73.645    z"/>
	</g>
	<g>
		<path d="M31.979,26.004c-2.041,0-3.711-1.638-3.743-3.686L28.028,9.005c-0.032-2.068,1.618-3.771,3.686-3.803    c0.02,0,0.04,0,0.06,0c2.041,0,3.711,1.638,3.743,3.686l0.208,13.313c0.032,2.068-1.618,3.771-3.686,3.803    C32.018,26.004,31.998,26.004,31.979,26.004z"/>
	</g>
	<g>
		<path d="M44.046,26.004c-2.068,0-3.745-1.677-3.745-3.745V7.282c0-2.068,1.677-3.745,3.745-3.745    s3.745,1.677,3.745,3.745V22.26C47.791,24.328,46.114,26.004,44.046,26.004z"/>
	</g>
	<g>
		<path d="M56.11,26.004c-2.044,0-3.715-1.643-3.743-3.693L52.16,7.333c-0.028-2.068,1.625-3.767,3.692-3.796    c2.028-0.005,3.767,1.624,3.796,3.692l0.207,14.978c0.028,2.068-1.625,3.767-3.692,3.796    C56.146,26.004,56.128,26.004,56.11,26.004z"/>
	</g>
	<g>
		<path d="M66.721,26.004c-2.068,0-3.744-1.677-3.744-3.745V8.947c0-2.068,1.676-3.745,3.744-3.745    s3.744,1.677,3.744,3.745V22.26C70.465,24.328,68.789,26.004,66.721,26.004z"/>
	</g>
	<g>
		<path d="M66.72,94.445c-2.041,0-3.711-1.638-3.743-3.686L62.77,77.447c-0.032-2.068,1.618-3.771,3.686-3.803    c0.021,0,0.04,0,0.06,0c2.041,0,3.711,1.638,3.743,3.686l0.207,13.312c0.032,2.068-1.618,3.771-3.686,3.803    C66.759,94.445,66.739,94.445,66.72,94.445z"/>
	</g>
	<g>
		<path d="M54.446,96.11c-2.068,0-3.744-1.676-3.744-3.744V77.389c0-2.068,1.676-3.744,3.744-3.744    s3.744,1.676,3.744,3.744v14.978C58.19,94.435,56.515,96.11,54.446,96.11z"/>
	</g>
	<g>
		<path d="M42.588,96.11c-2.044,0-3.715-1.642-3.743-3.692L38.637,77.44c-0.029-2.067,1.625-3.768,3.692-3.796    c2.037-0.02,3.767,1.624,3.796,3.692l0.208,14.978c0.029,2.067-1.625,3.768-3.692,3.796C42.623,96.11,42.605,96.11,42.588,96.11z"/>
	</g>
	<g>
		<path d="M31.772,94.445c-2.068,0-3.745-1.676-3.745-3.744V77.389c0-2.068,1.677-3.744,3.745-3.744    s3.745,1.676,3.745,3.744v13.312C35.517,92.77,33.84,94.445,31.772,94.445z"/>
	</g>
	<g>
		<path d="M77.81,36.821c-2.041,0-3.711-1.639-3.743-3.687c-0.032-2.068,1.618-3.77,3.686-3.802l13.313-0.207    c0.021,0,0.04,0,0.06,0c2.041,0,3.711,1.639,3.743,3.687c0.032,2.068-1.618,3.77-3.686,3.802L77.869,36.82    C77.849,36.82,77.829,36.821,77.81,36.821z"/>
	</g>
	<g>
		<path d="M92.789,48.888H77.811c-2.068,0-3.744-1.677-3.744-3.745s1.676-3.745,3.744-3.745h14.979    c2.068,0,3.744,1.677,3.744,3.745S94.857,48.888,92.789,48.888z"/>
	</g>
	<g>
		<path d="M77.81,60.952c-2.044,0-3.715-1.643-3.743-3.692c-0.028-2.067,1.625-3.768,3.692-3.796l14.979-0.207    c2.049-0.019,3.767,1.625,3.796,3.692c0.028,2.067-1.625,3.768-3.692,3.796l-14.979,0.207    C77.845,60.952,77.827,60.952,77.81,60.952z"/>
	</g>
	<g>
		<path d="M91.124,71.562H77.811c-2.068,0-3.744-1.676-3.744-3.744s1.676-3.744,3.744-3.744h13.313    c2.068,0,3.744,1.676,3.744,3.744S93.192,71.562,91.124,71.562z"/>
	</g>
	<g>
		<path d="M8.368,71.562c-2.041,0-3.711-1.638-3.743-3.686c-0.032-2.068,1.618-3.771,3.686-3.803l13.313-0.207    c2.065-0.005,3.77,1.618,3.802,3.686c0.032,2.068-1.618,3.771-3.686,3.803L8.427,71.562C8.408,71.562,8.388,71.562,8.368,71.562z"/>
	</g>
	<g>
		<path d="M21.682,59.287H6.704c-2.068,0-3.745-1.676-3.745-3.744s1.677-3.744,3.745-3.744h14.978    c2.068,0,3.745,1.676,3.745,3.744S23.75,59.287,21.682,59.287z"/>
	</g>
	<g>
		<path d="M6.703,47.43c-2.044,0-3.715-1.643-3.743-3.693c-0.028-2.068,1.625-3.767,3.692-3.796l14.978-0.207    c2.064-0.01,3.767,1.624,3.796,3.692c0.028,2.068-1.625,3.767-3.692,3.796L6.756,47.43C6.738,47.43,6.721,47.43,6.703,47.43z"/>
	</g>
	<g>
		<path d="M21.682,36.614H8.369c-2.068,0-3.745-1.677-3.745-3.745s1.677-3.745,3.745-3.745h13.313    c2.068,0,3.745,1.677,3.745,3.745S23.75,36.614,21.682,36.614z"/>
	</g>
	<g>
		<rect x="30.524" y="65.114" width="3.952" height="3.951"/>
	</g>
	<g>
		<path d="M59.865,60.548H40.092c-0.689,0-1.248-0.559-1.248-1.248V39.527c0-0.689,0.559-1.248,1.248-1.248h19.773    c0.689,0,1.248,0.559,1.248,1.248V59.3C61.113,59.989,60.555,60.548,59.865,60.548z M41.34,58.052h17.277V40.775H41.34V58.052z"/>
	</g>
</g>
</svg>