<svg xmlns="http://www.w3.org/2000/svg" width="100" height="100" fill="#fff" viewBox="0 0 100 100"><path d="M81.788 45.92C80.775 29.26 66.908 16.02 50 16.02c-17.564 0-31.854 14.288-31.854 31.853 0 .485.015.967.037 1.446-.013.06-.037.116-.037.18 0 23.812 10.544 35.528 33.086 36.643.12.058.25.096.394.096h29.307c.12 0 .238-.025.35-.07.1-.042.188-.105.266-.177.01-.01.023-.013.034-.022.007-.006.01-.015.015-.02.076-.082.14-.175.184-.28.022-.056.024-.117.035-.177.01-.058.034-.11.034-.172V46.245c0-.115-.028-.223-.066-.325zM50 17.856c16.55 0 30.015 13.465 30.015 30.015V83.1l-4.676-4.674V46.244c0-.137-.034-.264-.088-.38C74.225 32.827 63.296 22.534 50 22.534c-13.973 0-25.34 11.365-25.34 25.34 0 .27.01.54.02.81-.01.27-.02.54-.02.816 0 .137.033.264.087.38.976 12.374 10.874 22.272 23.248 23.246.116.053.243.086.38.086h19.534c.507 0 .92-.41.92-.92V49.5c0-6.842-2.274-12.514-6.573-16.403-3.77-3.413-8.95-5.292-14.582-5.292-6.212 0-12.64 2.36-17.12 6.883C34.79 28.466 41.926 24.37 50 24.37c12.958 0 23.5 10.544 23.5 23.503v30.014H50c-16.55 0-30.016-13.465-30.016-30.015S33.45 17.857 50 17.857zm-.038 53.517c-12.67-.02-23.014-10.117-23.444-22.688.45-12.374 11.11-19.043 21.156-19.043 5.175 0 9.916 1.71 13.35 4.817 3.9 3.53 5.966 8.732 5.966 15.04v21.874H49.962zM21.104 61.252c4.806 10.336 14.99 17.68 26.94 18.407.103.038.212.064.328.064H74.04l4.674 4.675h-23.83c-19.47 0-30.43-7.422-33.78-23.148z"/></svg>