<svg id="Layer_1" data-name="Layer 1" xmlns="http://www.w3.org/2000/svg" xmlns:xlink="http://www.w3.org/1999/xlink" viewBox="0 0 382 500.36"><defs><style>.cls-1{fill:#fff;}.cls-2{fill:#8d0200;}.cls-3{fill:url(#radial-gradient);}.cls-4{fill:url(#radial-gradient-2);}.cls-5{fill:url(#radial-gradient-3);}.cls-6{fill:url(#radial-gradient-4);}.cls-7{fill:url(#radial-gradient-5);}.cls-8{fill:url(#radial-gradient-6);}.cls-9{fill:url(#radial-gradient-7);}.cls-10{fill:url(#radial-gradient-8);}.cls-11{fill:url(#radial-gradient-9);}.cls-12{fill:url(#radial-gradient-10);}.cls-13{fill:url(#radial-gradient-11);}.cls-14{fill:url(#radial-gradient-12);}.cls-15{fill:url(#radial-gradient-13);}.cls-16{fill:url(#radial-gradient-14);}.cls-17{fill:url(#radial-gradient-15);}.cls-18{fill:url(#radial-gradient-16);}.cls-19{fill:url(#radial-gradient-17);}.cls-20{fill:url(#radial-gradient-18);}.cls-21{fill:url(#radial-gradient-19);}</style><radialGradient id="radial-gradient" cx="190.92" cy="423.53" r="117.83" gradientUnits="userSpaceOnUse"><stop offset="0" stop-color="#c60600"/><stop offset="1" stop-color="#930600"/></radialGradient><radialGradient id="radial-gradient-2" cx="190.92" cy="390.03" r="117.83" xlink:href="#radial-gradient"/><radialGradient id="radial-gradient-3" cx="190.92" cy="356.53" r="117.83" xlink:href="#radial-gradient"/><radialGradient id="radial-gradient-4" cx="-190.78" cy="91.64" r="27.88" gradientTransform="translate(826.44 121.31) scale(0.87)" xlink:href="#radial-gradient"/><radialGradient id="radial-gradient-5" cx="590.59" cy="239.78" r="4.91" xlink:href="#radial-gradient"/><radialGradient id="radial-gradient-6" cx="599.93" cy="241.01" r="5.03" xlink:href="#radial-gradient"/><radialGradient id="radial-gradient-7" cx="611.07" cy="241.01" r="5.01" xlink:href="#radial-gradient"/><radialGradient id="radial-gradient-8" cx="622.63" cy="239.34" r="5.83" xlink:href="#radial-gradient"/><radialGradient id="radial-gradient-9" cx="632.76" cy="240.94" r="4.17" xlink:href="#radial-gradient"/><radialGradient id="radial-gradient-10" cx="641.63" cy="241.01" r="5.03" xlink:href="#radial-gradient"/><radialGradient id="radial-gradient-11" cx="652.69" cy="241.01" r="5.11" xlink:href="#radial-gradient"/><radialGradient id="radial-gradient-12" cx="660.61" cy="238.89" r="5.15" xlink:href="#radial-gradient"/><radialGradient id="radial-gradient-13" cx="668.61" cy="241.01" r="5.03" xlink:href="#radial-gradient"/><radialGradient id="radial-gradient-14" cx="681.98" cy="241.01" r="6.46" xlink:href="#radial-gradient"/><radialGradient id="radial-gradient-15" cx="695.33" cy="241.01" r="5.03" xlink:href="#radial-gradient"/><radialGradient id="radial-gradient-16" cx="705.1" cy="240.94" r="4.17" xlink:href="#radial-gradient"/><radialGradient id="radial-gradient-17" cx="710.27" cy="244.68" r="1.35" xlink:href="#radial-gradient"/><radialGradient id="radial-gradient-18" cx="717.74" cy="241.01" r="5.01" xlink:href="#radial-gradient"/><radialGradient id="radial-gradient-19" cx="729.05" cy="241.01" r="5.11" xlink:href="#radial-gradient"/></defs><title>badge_techreviewer-web-developers</title><polygon class="cls-1" points="377 5 5 5 5 423 5 423.44 191 495 377 423.44 377 423 377 5"/><path class="cls-2" d="M660.08,646.36l-191-73.48V146h382V572.88ZM479.08,566l181,69.63,181-69.63V156h-362Z" transform="translate(-469.08 -146)"/><polygon class="cls-3" points="29.92 380.56 29.92 404.18 29.92 404.56 190.92 466.5 351.92 404.56 351.92 404.18 351.92 380.56 190.92 442.5 29.92 380.56"/><polygon class="cls-4" points="29.92 347.06 29.92 370.68 29.92 371.06 190.92 433 351.92 371.06 351.92 370.68 351.92 347.06 190.92 409 29.92 347.06"/><polygon class="cls-5" points="29.92 313.56 29.92 337.18 29.92 337.56 190.92 399.5 351.92 337.56 351.92 337.18 351.92 313.56 190.92 375.5 29.92 313.56"/><path class="cls-6" d="M651.58,193.1s-16.89,2.2-17.08,2.78,12.19,12.28,12.19,12.28-3.13,16.75-2.64,17.1,15.45-7.79,15.45-7.79,15,8.15,15.44,7.79-2.63-17.1-2.63-17.1,12.38-11.7,12.19-12.28-17.08-2.78-17.08-2.78-7.32-15.38-7.92-15.38S651.58,193.1,651.58,193.1Z" transform="translate(-469.08 -146)"/><path d="M632.77,288.3v9.52H619.33v40h-12v-40H594V288.3Z" transform="translate(-469.08 -146)"/><path d="M674,290.78a23.7,23.7,0,0,1,9,9A27.52,27.52,0,0,1,683,326a24,24,0,0,1-9,9.06,26.12,26.12,0,0,1-25.27,0,23.81,23.81,0,0,1-9-9.06,27.33,27.33,0,0,1,0-26.15,23.87,23.87,0,0,1,9-9,26.32,26.32,0,0,1,25.34,0Zm-22,11.69q-3.47,3.82-3.47,10.4T652,323.23a13.22,13.22,0,0,0,18.65,0q3.5-3.86,3.5-10.36t-3.46-10.36a13.32,13.32,0,0,0-18.69,0Z" transform="translate(-469.08 -146)"/><path d="M705,320.43v17.36H693V288.3h19.39q8.82,0,13.44,4.37t4.62,11.8a16.19,16.19,0,0,1-2.07,8.22,14.17,14.17,0,0,1-6.12,5.67,21.55,21.55,0,0,1-9.87,2.07Zm13.3-16q0-6.51-7.21-6.51H705v12.88h6.09Q718.32,310.84,718.31,304.47Z" transform="translate(-469.08 -146)"/><path d="M525.41,359.82l-6.09,25.46h-7.63l-4.07-17-4.1,17h-7.63l-6.09-25.46h6.7l3.28,18.44,4.46-18.44H511l4.47,18.44,3.31-18.44Z" transform="translate(-469.08 -146)"/><path d="M547.55,376.35H533.62a4.64,4.64,0,0,0,1.15,3.26,3.7,3.7,0,0,0,2.66,1,3.63,3.63,0,0,0,2.27-.69,3.21,3.21,0,0,0,1.19-1.76h6.51a8.6,8.6,0,0,1-1.72,3.8,9.21,9.21,0,0,1-3.39,2.62,10.66,10.66,0,0,1-4.57,1,10.9,10.9,0,0,1-5.24-1.24,8.9,8.9,0,0,1-3.58-3.59,12.28,12.28,0,0,1,0-11,8.77,8.77,0,0,1,3.58-3.56,11.86,11.86,0,0,1,10.52,0,8.68,8.68,0,0,1,3.51,3.44,10.29,10.29,0,0,1,1.24,5.09A8.48,8.48,0,0,1,547.55,376.35Zm-7.11-5.56a3.92,3.92,0,0,0-2.72-1,4.05,4.05,0,0,0-2.81,1,4.28,4.28,0,0,0-1.26,3h7.85A3.72,3.72,0,0,0,540.44,370.79Z" transform="translate(-469.08 -146)"/><path d="M567.9,366.18a8.53,8.53,0,0,1,3.1,3.56,13.85,13.85,0,0,1,0,11,8.55,8.55,0,0,1-3.1,3.59,8.18,8.18,0,0,1-4.44,1.24,7.22,7.22,0,0,1-4-1,6,6,0,0,1-2.41-2.84v3.64h-6.16V358.64h6.16v10.18A6,6,0,0,1,559.5,366a7.22,7.22,0,0,1,4-1A8.09,8.09,0,0,1,567.9,366.18Zm-9.61,5.47a5.76,5.76,0,0,0,0,7.14,4.17,4.17,0,0,0,3.19,1.34,4.11,4.11,0,0,0,3.18-1.3,6,6,0,0,0,0-7.2,4.53,4.53,0,0,0-6.37,0Z" transform="translate(-469.08 -146)"/><path d="M603.83,379.14a11.22,11.22,0,0,1-4.61,4.52,14.67,14.67,0,0,1-7.07,1.62h-9.61V359.82h9.61a14.87,14.87,0,0,1,7.09,1.59,11,11,0,0,1,4.59,4.46,14.56,14.56,0,0,1,0,13.27Zm-6.62-1.28a8.2,8.2,0,0,0,0-10.73,7.79,7.79,0,0,0-5.6-1.91h-2.92v14.55h2.92A7.79,7.79,0,0,0,597.21,377.86Z" transform="translate(-469.08 -146)"/><path d="M627.83,376.35H613.89a4.68,4.68,0,0,0,1.16,3.26,3.7,3.7,0,0,0,2.66,1,3.63,3.63,0,0,0,2.27-.69,3.21,3.21,0,0,0,1.19-1.76h6.51A8.51,8.51,0,0,1,626,382a9.1,9.1,0,0,1-3.38,2.62,10.66,10.66,0,0,1-4.57,1,10.88,10.88,0,0,1-5.24-1.24,8.9,8.9,0,0,1-3.58-3.59,11,11,0,0,1-1.3-5.47,11.25,11.25,0,0,1,1.28-5.49,8.77,8.77,0,0,1,3.58-3.56,11.84,11.84,0,0,1,10.51,0,8.56,8.56,0,0,1,3.51,3.44,10.19,10.19,0,0,1,1.25,5.09A8.48,8.48,0,0,1,627.83,376.35Zm-7.11-5.56a3.94,3.94,0,0,0-2.72-1,4,4,0,0,0-2.81,1,4.28,4.28,0,0,0-1.26,3h7.85A3.72,3.72,0,0,0,620.72,370.79Z" transform="translate(-469.08 -146)"/><path d="M640.5,379.26l4.35-14.07h6.56l-7.13,20.09h-7.63l-7.13-20.09h6.55Z" transform="translate(-469.08 -146)"/><path d="M672.86,376.35H658.93a4.68,4.68,0,0,0,1.15,3.26,3.74,3.74,0,0,0,2.67,1,3.6,3.6,0,0,0,2.26-.69,3.16,3.16,0,0,0,1.19-1.76h6.52A8.62,8.62,0,0,1,671,382a9.21,9.21,0,0,1-3.39,2.62,10.62,10.62,0,0,1-4.57,1,10.86,10.86,0,0,1-5.23-1.24,8.93,8.93,0,0,1-3.59-3.59,12.33,12.33,0,0,1,0-11,8.71,8.71,0,0,1,3.58-3.56,11.84,11.84,0,0,1,10.51,0,8.68,8.68,0,0,1,3.51,3.44,10.18,10.18,0,0,1,1.24,5.09A8.48,8.48,0,0,1,672.86,376.35Zm-7.11-5.56a3.92,3.92,0,0,0-2.72-1,4,4,0,0,0-2.8,1,4.2,4.2,0,0,0-1.26,3h7.84A3.69,3.69,0,0,0,665.75,370.79Z" transform="translate(-469.08 -146)"/><path d="M682.4,358.64v26.64h-6.15V358.64Z" transform="translate(-469.08 -146)"/><path d="M701.39,366.18a9.13,9.13,0,0,1,3.71,3.58,11.76,11.76,0,0,1,0,10.94,9.15,9.15,0,0,1-3.71,3.59,12.18,12.18,0,0,1-10.71,0A9.14,9.14,0,0,1,687,380.7a11.76,11.76,0,0,1,0-10.94,9.12,9.12,0,0,1,3.73-3.58,12.18,12.18,0,0,1,10.71,0Zm-8.32,5.36a5.19,5.19,0,0,0-1.2,3.69,5.12,5.12,0,0,0,1.2,3.67,4,4,0,0,0,3,1.26,3.92,3.92,0,0,0,3-1.26,5.16,5.16,0,0,0,1.18-3.67,5.23,5.23,0,0,0-1.18-3.69,3.9,3.9,0,0,0-3-1.28A4,4,0,0,0,693.07,371.54Z" transform="translate(-469.08 -146)"/><path d="M726.63,366.18a8.51,8.51,0,0,1,3.09,3.56,13.74,13.74,0,0,1,0,11,8.53,8.53,0,0,1-3.09,3.59,8.21,8.21,0,0,1-4.45,1.24,7.22,7.22,0,0,1-4-1,6,6,0,0,1-2.41-2.84v13.21h-6.16V365.19h6.16v3.63a6.07,6.07,0,0,1,2.41-2.84,7.22,7.22,0,0,1,4-1A8.13,8.13,0,0,1,726.63,366.18ZM717,371.65a5.76,5.76,0,0,0,0,7.14,4.51,4.51,0,0,0,6.38,0,6,6,0,0,0,0-7.2,4.54,4.54,0,0,0-6.38,0Z" transform="translate(-469.08 -146)"/><path d="M765.92,367.26a9,9,0,0,1,2.12,6.35v11.67h-6.12V374.33a4.12,4.12,0,0,0-1-3,3.71,3.71,0,0,0-2.79-1.06,3.8,3.8,0,0,0-2.9,1.13,4.49,4.49,0,0,0-1.06,3.19v10.66H748V374.33a4.11,4.11,0,0,0-1-3,3.62,3.62,0,0,0-2.77-1.06,3.84,3.84,0,0,0-2.91,1.12,4.41,4.41,0,0,0-1.08,3.2v10.66h-6.16V365.19h6.16v3.42a5.92,5.92,0,0,1,2.43-2.67,7.34,7.34,0,0,1,3.83-1,7.81,7.81,0,0,1,4.07,1.06,6.73,6.73,0,0,1,2.66,3.05,8,8,0,0,1,2.86-3,8.24,8.24,0,0,1,9.85,1.17Z" transform="translate(-469.08 -146)"/><path d="M791.05,376.35H777.12a4.64,4.64,0,0,0,1.15,3.26,3.7,3.7,0,0,0,2.66,1,3.63,3.63,0,0,0,2.27-.69,3.16,3.16,0,0,0,1.19-1.76h6.51a8.6,8.6,0,0,1-1.72,3.8,9.21,9.21,0,0,1-3.39,2.62,10.66,10.66,0,0,1-4.57,1,10.88,10.88,0,0,1-5.24-1.24,8.9,8.9,0,0,1-3.58-3.59,12.28,12.28,0,0,1,0-11,8.77,8.77,0,0,1,3.58-3.56,11.86,11.86,0,0,1,10.52,0A8.68,8.68,0,0,1,790,369.6a10.29,10.29,0,0,1,1.24,5.09A8.48,8.48,0,0,1,791.05,376.35Zm-7.11-5.56a3.92,3.92,0,0,0-2.72-1,4.05,4.05,0,0,0-2.81,1,4.28,4.28,0,0,0-1.26,3H785A3.72,3.72,0,0,0,783.94,370.79Z" transform="translate(-469.08 -146)"/><path d="M812.67,367.28a9.24,9.24,0,0,1,2,6.33v11.67h-6.16V374.33a4.43,4.43,0,0,0-1.06-3.15,3.71,3.71,0,0,0-2.82-1.13,3.81,3.81,0,0,0-3,1.19,4.76,4.76,0,0,0-1.1,3.38v10.66h-6.16V365.19h6.16v3.67a6.54,6.54,0,0,1,2.57-2.84,7.53,7.53,0,0,1,4-1A7,7,0,0,1,812.67,367.28Z" transform="translate(-469.08 -146)"/><path d="M830.14,380v5.3h-2.77a8,8,0,0,1-5.49-1.75q-2-1.74-2-5.78v-7.38h-2.7v-5.18h2.7v-4.93h6.16v4.93h4v5.18h-4v7.49a2.3,2.3,0,0,0,.48,1.66,2.35,2.35,0,0,0,1.64.46Z" transform="translate(-469.08 -146)"/><path d="M574.8,402.13a11.69,11.69,0,0,1,4.12,6.91H572.4a5.91,5.91,0,0,0-2.21-2.77,6.22,6.22,0,0,0-3.55-1,5.38,5.38,0,0,0-4.35,2,9.24,9.24,0,0,0,0,10.57,5.43,5.43,0,0,0,4.35,2,6.22,6.22,0,0,0,3.55-1A5.93,5.93,0,0,0,572.4,416h6.52a11.78,11.78,0,0,1-4.12,6.9,12.45,12.45,0,0,1-8,2.57,12.6,12.6,0,0,1-6.51-1.64,11,11,0,0,1-4.34-4.59,15.57,15.57,0,0,1,0-13.46,11,11,0,0,1,4.34-4.59,12.69,12.69,0,0,1,6.51-1.64A12.44,12.44,0,0,1,574.8,402.13Z" transform="translate(-469.08 -146)"/><path d="M597.12,406.18a9.13,9.13,0,0,1,3.71,3.58,11.76,11.76,0,0,1,0,10.94,9.15,9.15,0,0,1-3.71,3.59,12.18,12.18,0,0,1-10.71,0,9.08,9.08,0,0,1-3.73-3.59,11.76,11.76,0,0,1,0-10.94,9.06,9.06,0,0,1,3.73-3.58,12.18,12.18,0,0,1,10.71,0Zm-8.32,5.36a5.19,5.19,0,0,0-1.2,3.69,5.12,5.12,0,0,0,1.2,3.67,4,4,0,0,0,3,1.26,3.88,3.88,0,0,0,3-1.26,5.12,5.12,0,0,0,1.19-3.67,5.18,5.18,0,0,0-1.19-3.69,3.86,3.86,0,0,0-3-1.28A4,4,0,0,0,588.8,411.54Z" transform="translate(-469.08 -146)"/><path d="M637.24,407.26a8.94,8.94,0,0,1,2.12,6.35v11.67h-6.12V414.33a4.12,4.12,0,0,0-1-3,3.71,3.71,0,0,0-2.79-1.06,3.8,3.8,0,0,0-2.9,1.13,4.49,4.49,0,0,0-1.06,3.19v10.66h-6.16V414.33a4.11,4.11,0,0,0-1-3,3.62,3.62,0,0,0-2.77-1.06,3.84,3.84,0,0,0-2.91,1.12,4.41,4.41,0,0,0-1.08,3.2v10.66h-6.16V405.19h6.16v3.42a5.92,5.92,0,0,1,2.43-2.67,7.34,7.34,0,0,1,3.83-1,7.81,7.81,0,0,1,4.07,1.06,6.73,6.73,0,0,1,2.66,3.05,8,8,0,0,1,2.86-3,8.24,8.24,0,0,1,9.85,1.17Z" transform="translate(-469.08 -146)"/><path d="M660.44,406.18a8.53,8.53,0,0,1,3.1,3.56,13.85,13.85,0,0,1,0,11,8.55,8.55,0,0,1-3.1,3.59,8.2,8.2,0,0,1-4.44,1.24,7.22,7.22,0,0,1-4-1,6,6,0,0,1-2.42-2.84v13.21h-6.15V405.19h6.15v3.63A6.09,6.09,0,0,1,652,406a7.22,7.22,0,0,1,4-1A8.12,8.12,0,0,1,660.44,406.18Zm-9.61,5.47a5.76,5.76,0,0,0,0,7.14,4.17,4.17,0,0,0,3.19,1.34,4.11,4.11,0,0,0,3.18-1.3,6,6,0,0,0,0-7.2,4.53,4.53,0,0,0-6.37,0Z" transform="translate(-469.08 -146)"/><path d="M679.47,406a6.33,6.33,0,0,1,2.45,2.84v-3.63H688v20.09h-6.12v-3.64a6.28,6.28,0,0,1-2.45,2.84,7.27,7.27,0,0,1-4,1,8.21,8.21,0,0,1-4.45-1.24A8.47,8.47,0,0,1,668,420.7a13.74,13.74,0,0,1,0-11,8.44,8.44,0,0,1,3.09-3.56,8.13,8.13,0,0,1,4.45-1.24A7.26,7.26,0,0,1,679.47,406Zm-5.17,5.65a6,6,0,0,0,0,7.2,4.5,4.5,0,0,0,6.37,0,5.72,5.72,0,0,0,0-7.14,4.53,4.53,0,0,0-6.37,0Z" transform="translate(-469.08 -146)"/><path d="M710.52,407.28a9.24,9.24,0,0,1,2,6.33v11.67H706.4V414.33a4.44,4.44,0,0,0-1.07-3.15,3.71,3.71,0,0,0-2.82-1.13,3.81,3.81,0,0,0-3,1.19,4.76,4.76,0,0,0-1.1,3.38v10.66h-6.16V405.19h6.16v3.67A6.6,6.6,0,0,1,701,406a7.53,7.53,0,0,1,4-1A7,7,0,0,1,710.52,407.28Z" transform="translate(-469.08 -146)"/><path d="M717.05,397.21a4.32,4.32,0,0,1,5.33,0,3,3,0,0,1,1,2.33,3,3,0,0,1-1,2.28,4.32,4.32,0,0,1-5.33,0,3,3,0,0,1-1-2.28A3,3,0,0,1,717.05,397.21Zm5.73,8v20.09h-6.16V405.19Z" transform="translate(-469.08 -146)"/><path d="M745.92,416.35H732a4.68,4.68,0,0,0,1.15,3.26,3.74,3.74,0,0,0,2.67,1,3.6,3.6,0,0,0,2.26-.69,3.16,3.16,0,0,0,1.19-1.76h6.52a8.62,8.62,0,0,1-1.73,3.8,9.26,9.26,0,0,1-3.38,2.62,10.7,10.7,0,0,1-4.58,1,10.86,10.86,0,0,1-5.23-1.24,8.93,8.93,0,0,1-3.59-3.59,12.33,12.33,0,0,1,0-11,8.71,8.71,0,0,1,3.58-3.56,11.84,11.84,0,0,1,10.51,0,8.68,8.68,0,0,1,3.51,3.44,10.18,10.18,0,0,1,1.24,5.09A8.48,8.48,0,0,1,745.92,416.35Zm-7.11-5.56a3.92,3.92,0,0,0-2.72-1,4,4,0,0,0-2.8,1,4.2,4.2,0,0,0-1.26,3h7.84A3.69,3.69,0,0,0,738.81,410.79Z" transform="translate(-469.08 -146)"/><path d="M762.72,406.84a8.35,8.35,0,0,1,2.86,5h-5.76a3.21,3.21,0,0,0-1.14-1.92,3.4,3.4,0,0,0-2.21-.7,2.4,2.4,0,0,0-1.58.45,1.56,1.56,0,0,0-.54,1.27,1.5,1.5,0,0,0,1,1.41,15.72,15.72,0,0,0,3.11.93,30.82,30.82,0,0,1,3.78,1.1,6.26,6.26,0,0,1,2.56,1.82,5,5,0,0,1,1.08,3.38,5.19,5.19,0,0,1-.94,3.06,6.08,6.08,0,0,1-2.7,2.09,10.47,10.47,0,0,1-4.18.76,10.73,10.73,0,0,1-6.51-1.8,7.61,7.61,0,0,1-3-5.15h5.94a2.69,2.69,0,0,0,1.1,2,4.09,4.09,0,0,0,2.46.68,2.32,2.32,0,0,0,1.59-.48,1.65,1.65,0,0,0,.54-1.28,1.53,1.53,0,0,0-1-1.49,18.64,18.64,0,0,0-3.22-1,25.54,25.54,0,0,1-3.68-1,6.1,6.1,0,0,1-2.48-1.74,4.86,4.86,0,0,1-1-3.3,5.37,5.37,0,0,1,2.05-4.37,8.92,8.92,0,0,1,5.79-1.67A9.25,9.25,0,0,1,762.72,406.84Z" transform="translate(-469.08 -146)"/><path d="M636.06,461.36c0-1.53-.67-2.3-2-2.3a1.84,1.84,0,0,0-1.64.79,4.76,4.76,0,0,0-.57,2.43h-4.68a7.44,7.44,0,0,1,2.19-5.43,7.32,7.32,0,0,1,5.09-1.82,6.59,6.59,0,0,1,4.86,1.63,5.69,5.69,0,0,1,1.64,4.22,9,9,0,0,1-2.21,5.65,20.81,20.81,0,0,1-5.3,4.66h7.82v3.86H627.15v-3.58Q636.06,465.11,636.06,461.36Z" transform="translate(-469.08 -146)"/><path d="M643.22,465.17a12.64,12.64,0,0,1,1.88-7.32q1.88-2.72,6-2.71t6,2.71a15.2,15.2,0,0,1,0,14.68q-1.89,2.72-6,2.72t-6-2.72A12.75,12.75,0,0,1,643.22,465.17Zm11,0a10.39,10.39,0,0,0-.63-4.08,2.45,2.45,0,0,0-2.48-1.41,2.5,2.5,0,0,0-2.52,1.43,10.15,10.15,0,0,0-.64,4.06,10.36,10.36,0,0,0,.64,4.1,2.49,2.49,0,0,0,2.52,1.44,2.44,2.44,0,0,0,2.48-1.44A10.57,10.57,0,0,0,654.2,465.17Z" transform="translate(-469.08 -146)"/><path d="M669.94,461.36c0-1.53-.67-2.3-2-2.3a1.84,1.84,0,0,0-1.64.79,4.76,4.76,0,0,0-.57,2.43h-4.68a7.44,7.44,0,0,1,2.19-5.43,7.32,7.32,0,0,1,5.09-1.82,6.59,6.59,0,0,1,4.86,1.63,5.69,5.69,0,0,1,1.64,4.22,9,9,0,0,1-2.22,5.65,20.6,20.6,0,0,1-5.29,4.66h7.82v3.86H661v-3.58Q669.94,465.11,669.94,461.36Z" transform="translate(-469.08 -146)"/><path d="M677.1,465.17a12.64,12.64,0,0,1,1.88-7.32q1.88-2.72,6-2.71t6,2.71a15.2,15.2,0,0,1,0,14.68q-1.89,2.72-6,2.72t-6-2.72A12.75,12.75,0,0,1,677.1,465.17Zm11,0a10.39,10.39,0,0,0-.63-4.08,2.44,2.44,0,0,0-2.48-1.41,2.5,2.5,0,0,0-2.52,1.43,10.15,10.15,0,0,0-.64,4.06,10.36,10.36,0,0,0,.64,4.1,2.49,2.49,0,0,0,2.52,1.44,2.43,2.43,0,0,0,2.48-1.44A10.57,10.57,0,0,0,688.08,465.17Z" transform="translate(-469.08 -146)"/><path class="cls-7" d="M593.67,243.82V246h-1.33a3.66,3.66,0,0,1-2.56-.81,3.49,3.49,0,0,1-.9-2.7v-4.32H587.5V236h1.38v-2.47h2.54V236h2.23v2.14h-2.23v4.36a1.39,1.39,0,0,0,.29,1,1.31,1.31,0,0,0,1,.29Z" transform="translate(-469.08 -146)"/><path class="cls-8" d="M604.78,241.5h-7.31a2.77,2.77,0,0,0,.72,2,2.32,2.32,0,0,0,1.66.63,2.38,2.38,0,0,0,1.46-.43,1.94,1.94,0,0,0,.75-1.17h2.68a4.24,4.24,0,0,1-.84,1.87,4.49,4.49,0,0,1-1.67,1.3,5.38,5.38,0,0,1-2.26.47,5.26,5.26,0,0,1-2.59-.63,4.29,4.29,0,0,1-1.76-1.77,6.19,6.19,0,0,1,0-5.44,4.26,4.26,0,0,1,1.76-1.78,5.47,5.47,0,0,1,2.59-.61,5.29,5.29,0,0,1,2.58.61,4.28,4.28,0,0,1,1.71,1.69,4.88,4.88,0,0,1,.52,3.3Zm-3.11-3a2.43,2.43,0,0,0-1.7-.63,2.51,2.51,0,0,0-1.73.63,2.62,2.62,0,0,0-.77,1.85h4.84A2.23,2.23,0,0,0,601.67,238.53Z" transform="translate(-469.08 -146)"/><path class="cls-9" d="M614.36,237a4.5,4.5,0,0,1,1.61,2.84h-2.68a2,2,0,0,0-.74-1.25,2.23,2.23,0,0,0-1.45-.46,2.17,2.17,0,0,0-1.69.75,3.9,3.9,0,0,0,0,4.37,2.17,2.17,0,0,0,1.69.75,2.29,2.29,0,0,0,1.45-.46,2.06,2.06,0,0,0,.74-1.25H616a4.5,4.5,0,0,1-1.61,2.84,4.92,4.92,0,0,1-3.21,1,5.23,5.23,0,0,1-2.59-.63,4.31,4.31,0,0,1-1.77-1.77,6.19,6.19,0,0,1,0-5.44,4.28,4.28,0,0,1,1.77-1.78,5.44,5.44,0,0,1,2.59-.61A4.92,4.92,0,0,1,614.36,237Z" transform="translate(-469.08 -146)"/><path class="cls-10" d="M626.47,237a4.59,4.59,0,0,1,1,3.18V246H625v-5.51a2.57,2.57,0,0,0-.61-1.84,2.16,2.16,0,0,0-1.67-.66,2.23,2.23,0,0,0-1.73.7,2.88,2.88,0,0,0-.65,2V246h-2.54V232.68h2.54V238a3.18,3.18,0,0,1,1.31-1.58,3.83,3.83,0,0,1,2.09-.57A3.53,3.53,0,0,1,626.47,237Z" transform="translate(-469.08 -146)"/><path class="cls-11" d="M633.74,236.43a4,4,0,0,1,2-.55v2.72h-.74c-1.86,0-2.79.87-2.79,2.59V246h-2.53V236h2.53v1.91A4.2,4.2,0,0,1,633.74,236.43Z" transform="translate(-469.08 -146)"/><path class="cls-12" d="M646.48,241.5h-7.31a2.77,2.77,0,0,0,.72,2,2.34,2.34,0,0,0,1.66.63,2.39,2.39,0,0,0,1.47-.43,1.88,1.88,0,0,0,.74-1.17h2.69a4.37,4.37,0,0,1-.85,1.87,4.46,4.46,0,0,1-1.66,1.3,5.41,5.41,0,0,1-2.26.47,5.29,5.29,0,0,1-2.6-.63,4.35,4.35,0,0,1-1.76-1.77,6.19,6.19,0,0,1,0-5.44,4.31,4.31,0,0,1,1.76-1.78,5.51,5.51,0,0,1,2.6-.61,5.35,5.35,0,0,1,2.58.61A4.28,4.28,0,0,1,646,238.2a4.88,4.88,0,0,1,.6,2.44A4.75,4.75,0,0,1,646.48,241.5Zm-3.1-3a2.43,2.43,0,0,0-1.7-.63,2.49,2.49,0,0,0-1.73.63,2.58,2.58,0,0,0-.78,1.85H644A2.26,2.26,0,0,0,643.38,238.53Z" transform="translate(-469.08 -146)"/><path class="cls-13" d="M652.71,243.46l2.52-7.43h2.7l-3.69,10h-3.1l-3.68-10h2.71Z" transform="translate(-469.08 -146)"/><path class="cls-14" d="M659.48,232.17a1.62,1.62,0,0,1,1.13-.39,1.64,1.64,0,0,1,1.14.39,1.35,1.35,0,0,1,0,2,1.64,1.64,0,0,1-1.14.38,1.61,1.61,0,0,1-1.13-.38,1.35,1.35,0,0,1,0-2Zm2.39,3.86v10h-2.54V236Z" transform="translate(-469.08 -146)"/><path class="cls-15" d="M673.47,241.5h-7.31a2.69,2.69,0,0,0,.72,2,2.3,2.3,0,0,0,1.65.63,2.39,2.39,0,0,0,1.47-.43,1.94,1.94,0,0,0,.75-1.17h2.68a4.15,4.15,0,0,1-.85,1.87,4.38,4.38,0,0,1-1.66,1.3,5.38,5.38,0,0,1-2.26.47,5.23,5.23,0,0,1-2.59-.63,4.31,4.31,0,0,1-1.77-1.77,6.19,6.19,0,0,1,0-5.44,4.28,4.28,0,0,1,1.77-1.78,5.44,5.44,0,0,1,2.59-.61,5.35,5.35,0,0,1,2.58.61A4.28,4.28,0,0,1,673,238.2a4.88,4.88,0,0,1,.61,2.44A4.75,4.75,0,0,1,673.47,241.5Zm-3.11-3a2.43,2.43,0,0,0-1.7-.63,2.51,2.51,0,0,0-1.73.63,2.58,2.58,0,0,0-.77,1.85H671A2.23,2.23,0,0,0,670.36,238.53Z" transform="translate(-469.08 -146)"/><path class="cls-16" d="M689.63,236,687,246h-2.81L682,238.75,679.8,246H677l-2.66-10h2.54l1.62,7.7,2.21-7.7h2.68l2.24,7.7,1.63-7.7Z" transform="translate(-469.08 -146)"/><path class="cls-17" d="M700.18,241.5h-7.31a2.69,2.69,0,0,0,.72,2,2.3,2.3,0,0,0,1.65.63,2.39,2.39,0,0,0,1.47-.43,1.94,1.94,0,0,0,.75-1.17h2.68a4.15,4.15,0,0,1-.85,1.87,4.38,4.38,0,0,1-1.66,1.3,5.38,5.38,0,0,1-2.26.47,5.23,5.23,0,0,1-2.59-.63,4.31,4.31,0,0,1-1.77-1.77,6.19,6.19,0,0,1,0-5.44,4.28,4.28,0,0,1,1.77-1.78,5.44,5.44,0,0,1,2.59-.61,5.35,5.35,0,0,1,2.58.61,4.28,4.28,0,0,1,1.71,1.69,4.88,4.88,0,0,1,.52,3.3Zm-3.11-3a2.43,2.43,0,0,0-1.7-.63,2.51,2.51,0,0,0-1.73.63,2.58,2.58,0,0,0-.77,1.85h4.84A2.23,2.23,0,0,0,697.07,238.53Z" transform="translate(-469.08 -146)"/><path class="cls-18" d="M706.08,236.43a4,4,0,0,1,2-.55v2.72h-.74c-1.86,0-2.79.87-2.79,2.59V246h-2.53V236h2.53v1.91A4.28,4.28,0,0,1,706.08,236.43Z" transform="translate(-469.08 -146)"/><path class="cls-19" d="M711.64,243.35V246h-2.73v-2.65Z" transform="translate(-469.08 -146)"/><path class="cls-20" d="M721,237a4.54,4.54,0,0,1,1.61,2.84H720a2.08,2.08,0,0,0-.74-1.25,2.24,2.24,0,0,0-1.46-.46,2.17,2.17,0,0,0-1.68.75,3.85,3.85,0,0,0,0,4.37,2.17,2.17,0,0,0,1.68.75,2.3,2.3,0,0,0,1.46-.46,2.11,2.11,0,0,0,.74-1.25h2.68a4.54,4.54,0,0,1-1.61,2.84,4.92,4.92,0,0,1-3.21,1,5.27,5.27,0,0,1-2.6-.63,4.35,4.35,0,0,1-1.76-1.77,6.19,6.19,0,0,1,0-5.44,4.31,4.31,0,0,1,1.76-1.78,5.48,5.48,0,0,1,2.6-.61A4.92,4.92,0,0,1,721,237Z" transform="translate(-469.08 -146)"/><path class="cls-21" d="M731.67,236.51a4.45,4.45,0,0,1,1.82,1.78,5.86,5.86,0,0,1,0,5.44,4.49,4.49,0,0,1-1.82,1.77,5.76,5.76,0,0,1-5.24,0,4.58,4.58,0,0,1-1.83-1.77,5.93,5.93,0,0,1,0-5.44,4.54,4.54,0,0,1,1.83-1.78,5.93,5.93,0,0,1,5.24,0Zm-4.42,2.33a3,3,0,0,0-.74,2.17,3,3,0,0,0,.74,2.17,2.53,2.53,0,0,0,3.6,0,3,3,0,0,0,.74-2.17,3,3,0,0,0-.74-2.17,2.56,2.56,0,0,0-3.6,0Z" transform="translate(-469.08 -146)"/></svg>