<svg xmlns="http://www.w3.org/2000/svg" xmlns:xlink="http://www.w3.org/1999/xlink" version="1.1" id="Your_Icon" x="0px" y="0px" width="100px" height="100px"  fill="#fff" viewBox="0 0 100 100" enable-background="new 0 0 100 100" xml:space="preserve">
<path d="M81.788,45.919C80.775,29.262,66.908,16.019,50,16.019c-17.564,0-31.854,14.289-31.854,31.854  c0,0.485,0.015,0.967,0.037,1.446c-0.013,0.061-0.037,0.117-0.037,0.182c0,23.811,10.544,35.527,33.086,36.642  c0.12,0.058,0.251,0.096,0.394,0.096h29.307c0.119,0,0.238-0.024,0.35-0.07c0.101-0.041,0.188-0.104,0.266-0.176  c0.011-0.009,0.024-0.013,0.035-0.022c0.007-0.007,0.009-0.016,0.015-0.022c0.077-0.081,0.142-0.174,0.185-0.278  c0.022-0.057,0.024-0.118,0.035-0.178c0.012-0.058,0.035-0.11,0.035-0.172V46.244C81.854,46.129,81.826,46.021,81.788,45.919z   M50,17.857c16.55,0,30.015,13.465,30.015,30.015V83.1l-4.676-4.674V46.244c0-0.137-0.033-0.264-0.087-0.38  C74.225,32.827,63.296,22.533,50,22.533c-13.973,0-25.341,11.366-25.341,25.34c0,0.272,0.012,0.541,0.021,0.811  c-0.009,0.271-0.021,0.541-0.021,0.816c0,0.137,0.034,0.264,0.088,0.381c0.976,12.373,10.874,22.271,23.248,23.245  c0.116,0.053,0.243,0.086,0.379,0.086h1.588c0.013,0,0.025,0.001,0.039,0.001c0.001,0,0.003-0.001,0.005-0.001h17.903  c0.508,0,0.92-0.41,0.92-0.919V49.5c0-6.842-2.273-12.514-6.572-16.403c-3.771-3.413-8.951-5.292-14.582-5.292  c-6.212,0-12.639,2.361-17.119,6.883C34.789,28.466,41.925,24.371,50,24.371c12.958,0,23.501,10.543,23.501,23.502v30.014H50  c-16.551,0-30.016-13.465-30.016-30.015S33.45,17.857,50,17.857z M49.962,71.374c-12.669-0.021-23.014-10.117-23.444-22.688  c0.451-12.374,11.109-19.043,21.156-19.043c5.175,0,9.916,1.71,13.349,4.817c3.902,3.531,5.967,8.732,5.967,15.04v21.874H49.962z   M21.104,61.252c4.806,10.336,14.991,17.679,26.941,18.407c0.102,0.039,0.211,0.065,0.327,0.065H74.04l4.674,4.675H54.885  C35.413,84.399,24.453,76.978,21.104,61.252z"/>
</svg>